<svg width="1440" height="900" viewBox="0 0 1440 900" fill="none" xmlns="http://www.w3.org/2000/svg">
<path opacity="0.0144928" d="M1340.28 801.317C1351.19 800.93 1360.53 793.368 1363.18 782.775L1441.61 469.051C1443.17 462.786 1442.2 456.157 1438.91 450.604L1202.56 52.4066C1199.97 48.0397 1196.08 44.5862 1191.44 42.5236L820.897 -122.182C812.483 -125.922 802.683 -124.629 795.527 -118.835L576.396 58.6146C569.24 64.4091 565.938 73.7264 567.847 82.7339L651.912 479.428C652.965 484.396 655.535 488.914 659.268 492.357L999.625 806.327C1004.37 810.705 1010.65 813.032 1017.11 812.803L1340.28 801.317Z" stroke="url(#paint0_linear_14_239)" stroke-opacity="0.3"/>
<path opacity="0.0289855" d="M1295.44 825.445C1306.33 825.611 1316.02 818.57 1319.23 808.163L1413.78 501.343C1415.68 495.163 1415.07 488.481 1412.07 482.753L1199.06 76.3991C1196.69 71.8879 1192.98 68.2259 1188.44 65.9224L829.886 -115.883C821.684 -120.042 811.844 -119.257 804.405 -113.852L577.645 50.8988C570.205 56.3039 566.419 65.4196 567.839 74.5049L629.948 471.689C630.735 476.722 633.07 481.383 636.63 485.027L957.272 813.18C961.792 817.805 967.957 820.456 974.423 820.554L1295.44 825.445Z" stroke="url(#paint1_linear_14_239)" stroke-opacity="0.3"/>
<path opacity="0.0434783" d="M1250.18 848.039C1261.01 848.755 1271.03 842.251 1274.78 832.06L1384.95 532.964C1387.19 526.886 1386.93 520.17 1384.23 514.283L1194.75 101.114C1192.62 96.4704 1189.1 92.6084 1184.66 90.0687L838.873 -108.038C830.905 -112.603 821.052 -112.329 813.35 -107.327L579.685 44.4172C571.983 49.4189 567.725 58.3078 568.655 67.4442L608.988 463.917C609.505 468.999 611.598 473.793 614.975 477.628L915.358 818.77C919.638 823.631 925.668 826.599 932.13 827.026L1250.18 848.039Z" stroke="url(#paint2_linear_14_239)" stroke-opacity="0.3"/>
<path opacity="0.057971" d="M1204.57 869.09C1215.32 870.35 1225.63 864.399 1229.92 854.453L1355.15 563.866C1357.72 557.91 1357.82 551.179 1355.43 545.148L1189.62 126.505C1187.73 121.74 1184.4 117.687 1180.09 114.916L847.774 -98.6605C840.059 -103.619 830.22 -103.853 822.277 -99.2677L582.443 39.2008C574.5 43.7865 569.784 52.424 570.221 61.5849L589.028 456.164C589.271 461.283 591.115 466.197 594.297 470.214L873.947 823.133C877.975 828.217 883.855 831.496 890.297 832.251L1204.57 869.09Z" stroke="url(#paint3_linear_14_239)" stroke-opacity="0.3"/>
<path opacity="0.0724638" d="M1158.71 888.593C1169.36 890.392 1179.93 885.006 1184.73 875.333L1324.44 594.007C1327.33 588.189 1327.79 581.462 1325.72 575.304L1183.62 152.521C1181.98 147.648 1178.85 143.413 1174.67 140.417L856.505 -87.769C849.062 -93.1067 839.264 -93.8475 831.104 -89.6896L585.844 35.2764C577.684 39.4344 572.524 47.7968 572.467 56.9553L570.059 448.485C570.027 453.625 571.613 458.646 574.593 462.835L833.105 826.305C836.871 831.599 842.584 835.181 848.989 836.263L1158.71 888.593Z" stroke="url(#paint4_linear_14_239)" stroke-opacity="0.3"/>
<path opacity="0.0869565" d="M1112.68 906.55C1123.19 908.88 1134 904.07 1139.3 894.697L1292.87 623.344C1296.07 617.682 1296.89 610.978 1295.15 604.71L1176.73 179.11C1175.35 174.141 1172.43 169.736 1168.4 166.521L864.983 -75.3871C857.832 -81.0887 848.1 -82.3323 839.745 -78.6123L589.811 32.6652C581.456 36.3852 575.869 44.4494 575.321 53.579L552.069 440.928C551.76 446.076 553.083 451.191 555.85 455.543L792.894 828.328C796.385 833.818 801.917 837.694 808.269 839.101L1112.68 906.55Z" stroke="url(#paint5_linear_14_239)" stroke-opacity="0.3"/>
<path opacity="0.101449" d="M1066.57 922.967C1076.92 925.818 1087.93 921.595 1093.71 912.548L1260.48 651.84C1263.99 646.35 1265.17 639.688 1263.75 633.327L1168.92 206.221C1167.8 201.17 1165.11 196.603 1161.23 193.176L873.127 -61.5418C866.285 -67.5913 856.645 -69.3327 848.119 -66.0597L594.268 31.3847C585.741 34.6577 579.743 42.4017 578.706 51.4757L535.044 433.546C534.456 438.687 535.512 443.881 538.058 448.386L753.372 829.245C756.578 834.917 761.913 839.078 768.195 840.808L1066.57 922.967Z" stroke="url(#paint6_linear_14_239)" stroke-opacity="0.3"/>
<path opacity="0.115942" d="M1020.47 937.855C1030.64 941.216 1041.81 937.586 1048.06 928.892L1227.32 679.458C1231.13 674.158 1232.67 667.558 1231.59 661.121L1160.17 233.799C1159.32 228.68 1156.86 223.964 1153.15 220.332L880.86 -46.2646C874.343 -52.645 864.822 -54.8777 856.149 -52.0595L599.137 31.4487C590.464 34.2669 584.073 41.6695 582.552 50.6617L518.969 426.389C518.103 431.507 518.885 436.768 521.202 441.413L714.595 829.103C717.508 834.943 722.631 839.38 728.827 841.429L1020.47 937.855Z" stroke="url(#paint7_linear_14_239)" stroke-opacity="0.3"/>
<path opacity="0.130435" d="M974.459 951.228C984.412 955.087 995.718 952.058 1002.41 943.739L1193.46 706.167C1197.55 701.073 1199.45 694.554 1198.71 688.058L1150.46 261.791C1149.88 256.616 1147.66 251.763 1144.13 247.934L888.106 -29.5916C881.931 -36.2851 872.553 -39.0014 863.757 -36.6445L604.343 32.8654C595.547 35.2223 588.783 42.2636 586.783 51.1477L503.824 419.503C502.68 424.584 503.185 429.897 505.265 434.672L676.616 827.953C679.227 833.946 684.125 838.646 690.219 841.01L974.459 951.228Z" stroke="url(#paint8_linear_14_239)" stroke-opacity="0.3"/>
<path opacity="0.144928" d="M928.619 963.106C938.335 967.451 949.745 965.026 956.854 957.105L1158.94 731.939C1163.31 727.066 1165.55 720.646 1165.16 714.111L1139.78 290.142C1139.47 284.926 1137.5 279.946 1134.15 275.93L894.791 -11.5624C888.972 -18.5504 879.763 -21.7413 870.868 -19.8507L609.807 35.6395C600.913 37.5301 593.797 44.191 591.325 52.9413L489.588 412.937C488.167 417.965 488.391 423.317 490.227 428.209L639.486 825.847C641.787 831.976 646.445 836.93 652.422 839.603L928.619 963.106Z" stroke="url(#paint9_linear_14_239)" stroke-opacity="0.3"/>
<path opacity="0.15942" d="M883.034 973.515C892.489 978.33 903.968 976.511 911.473 969.01L1123.82 756.748C1128.46 752.111 1131.05 745.809 1131 739.252L1128.11 318.796C1128.08 313.552 1126.36 308.458 1123.21 304.264L900.845 7.77948C895.397 0.516243 886.38 -3.13891 877.412 -1.71863L615.455 39.7713C606.488 41.1916 599.041 47.4544 596.105 56.0456L476.237 406.735C474.541 411.696 474.482 417.071 476.068 422.069L603.25 822.839C605.234 829.09 609.64 834.284 615.484 837.26L883.034 973.515Z" stroke="url(#paint10_linear_14_239)" stroke-opacity="0.3"/>
<path opacity="0.173913" d="M837.779 982.481C846.95 987.751 858.467 986.54 866.342 979.479L1088.16 780.57C1093.05 776.185 1095.98 770.019 1096.28 763.458L1115.45 347.695C1115.69 342.439 1114.23 337.245 1111.29 332.88L906.2 28.3863C901.136 20.8677 892.334 16.7599 883.319 17.7074L621.21 45.2561C612.195 46.2037 604.439 52.0518 601.049 60.4589L463.745 400.94C461.777 405.82 461.433 411.204 462.762 416.295L567.952 818.987C569.612 825.343 573.754 830.765 579.45 834.038L837.779 982.481Z" stroke="url(#paint11_linear_14_239)" stroke-opacity="0.3"/>
<path opacity="0.188406" d="M792.932 990.039C801.797 995.747 813.32 995.143 821.539 988.54L1052.02 803.388C1057.15 799.267 1060.41 793.257 1061.06 786.709L1101.78 376.786C1102.3 371.532 1101.11 366.249 1098.38 361.725L910.792 50.2078C906.123 42.4544 897.56 37.9067 888.522 38.3804L626.998 52.0863C617.959 52.5599 609.918 57.9779 606.086 66.1769L452.083 395.597C449.847 400.38 449.216 405.758 450.284 410.929L533.63 814.351C534.961 820.794 538.828 826.431 544.36 829.993L792.932 990.039Z" stroke="url(#paint12_linear_14_239)" stroke-opacity="0.3"/>
<path opacity="0.202899" d="M748.568 996.225C757.105 1002.35 768.6 1002.35 777.138 996.225L1015.45 825.185C1020.81 821.342 1024.39 815.504 1025.38 808.99L1087.1 406.011C1087.9 400.773 1086.98 395.416 1084.48 390.743L914.562 73.1902C910.299 65.223 901.997 60.2492 892.96 60.2492L632.746 60.2492C623.709 60.2492 615.407 65.223 611.144 73.1902L441.223 390.743C438.723 395.416 437.805 400.773 438.607 406.011L500.323 808.99C501.32 815.504 504.901 821.342 510.255 825.185L748.568 996.225Z" stroke="url(#paint13_linear_14_239)" stroke-opacity="0.3"/>
<path opacity="0.217391" d="M704.755 1001.08C712.946 1007.61 724.382 1008.21 733.211 1002.57L978.514 845.95C984.078 842.397 987.974 836.749 989.317 830.286L1071.41 435.314C1072.5 430.107 1071.85 424.689 1069.59 419.878L917.452 97.2765C913.604 89.117 905.583 83.7323 896.574 83.2601L638.381 69.7288C629.372 69.2567 620.832 73.7735 616.153 81.4861L431.131 386.418C428.372 390.966 427.168 396.287 427.7 401.579L468.061 802.968C468.721 809.536 472.005 815.56 477.167 819.675L704.755 1001.08Z" stroke="url(#paint14_linear_14_239)" stroke-opacity="0.3"/>
<path opacity="0.231884" d="M661.563 1004.65C669.389 1011.56 680.733 1012.75 689.824 1007.62L941.267 865.672C947.026 862.421 951.226 856.98 952.913 850.586L1054.72 464.64C1056.08 459.479 1055.72 454.014 1053.69 449.076L919.406 122.407C915.982 114.077 908.264 108.298 899.307 107.356L643.833 80.5047C634.876 79.5633 626.125 83.6119 621.044 91.0477L421.774 382.659C418.762 387.066 417.272 392.337 417.53 397.669L436.872 796.348C437.193 802.953 440.17 809.148 445.127 813.525L661.563 1004.65Z" stroke="url(#paint15_linear_14_239)" stroke-opacity="0.3"/>
<path opacity="0.246377" d="M619.058 1006.97C626.5 1014.24 637.722 1016.02 647.047 1011.41L903.77 884.346C909.708 881.408 914.202 876.19 916.228 869.883L1037.03 493.934C1038.67 488.832 1038.59 483.334 1036.81 478.282L920.378 148.519C917.385 140.042 909.989 133.884 901.109 132.478L649.034 92.5533C640.154 91.1469 631.217 94.7172 625.751 101.855L413.116 379.498C409.858 383.752 408.084 388.957 408.067 394.315L406.784 789.195C406.762 795.82 409.424 802.171 414.163 806.8L619.058 1006.97Z" stroke="url(#paint16_linear_14_239)" stroke-opacity="0.3"/>
<path opacity="0.26087" d="M577.299 1008.11C584.341 1015.72 595.41 1018.07 604.938 1013.99L866.08 901.97C872.178 899.354 876.955 894.376 879.317 888.174L1018.35 523.14C1020.27 518.114 1020.47 512.597 1018.94 507.441L920.32 175.55C917.763 166.947 910.707 160.43 901.928 158.564L653.917 105.847C645.138 103.981 636.042 107.065 630.207 113.884L405.119 376.969C401.623 381.056 399.568 386.18 399.273 391.551L377.814 781.577C377.45 788.203 379.788 794.693 384.296 799.563L577.299 1008.11Z" stroke="url(#paint17_linear_14_239)" stroke-opacity="0.3"/>
<path opacity="0.275362" d="M536.345 1008.12C542.972 1016.04 553.858 1018.96 563.56 1015.41L828.254 918.543C834.497 916.259 839.543 911.535 842.235 905.457L998.691 552.206C1000.88 547.269 1001.37 541.748 1000.1 536.501L919.19 203.431C917.075 194.725 910.377 187.868 901.723 185.549L658.417 120.355C649.763 118.037 640.534 120.626 634.35 127.108L397.746 375.101C394.019 379.008 391.687 384.036 391.112 389.405L349.981 773.558C349.273 780.168 351.282 786.782 355.546 791.882L536.345 1008.12Z" stroke="url(#paint18_linear_14_239)" stroke-opacity="0.3"/>
<path opacity="0.289855" d="M496.252 1007.04C502.449 1015.26 513.124 1018.73 522.969 1015.72L790.351 934.07C796.72 932.125 802.023 927.671 805.039 921.733L978.068 581.078C980.522 576.245 981.305 570.734 980.293 565.409L916.952 232.095C915.282 223.309 908.958 216.131 900.453 213.368L662.473 136.044C653.968 133.28 644.633 135.37 638.118 141.496L390.957 373.922C387.008 377.635 384.402 382.553 383.548 387.906L323.298 765.206C322.248 771.783 323.92 778.503 327.93 783.82L496.252 1007.04Z" stroke="url(#paint19_linear_14_239)" stroke-opacity="0.3"/>
<path opacity="0.304348" d="M457.069 1004.95C462.825 1013.44 473.259 1017.44 483.217 1014.99L752.426 948.557C758.903 946.959 764.449 942.788 767.781 937.009L956.497 609.705C959.215 604.99 960.287 599.504 959.541 594.113L913.571 261.471C912.349 252.629 906.415 245.152 898.082 241.953L666.025 152.875C657.692 149.676 648.279 151.262 641.454 157.015L384.711 373.456C380.55 376.964 377.675 381.757 376.54 387.08L297.774 756.59C296.383 763.115 297.714 769.925 301.458 775.447L457.069 1004.95Z" stroke="url(#paint20_linear_14_239)" stroke-opacity="0.3"/>
<path opacity="0.318841" d="M418.845 1001.9C424.147 1010.63 434.314 1015.16 444.353 1013.26L714.535 962.015C721.102 960.769 726.875 956.895 730.516 951.29L933.999 638.036C936.976 633.454 938.335 628.008 937.861 622.564L909.019 291.49C908.246 282.614 902.716 274.858 894.577 271.234L669.016 170.808C660.877 167.184 651.413 168.264 644.299 173.629L378.964 373.727C374.601 377.017 371.464 381.672 370.05 386.95L273.414 747.775C271.685 754.232 272.669 761.114 276.137 766.828L418.845 1001.9Z" stroke="url(#paint21_linear_14_239)" stroke-opacity="0.3"/>
<path opacity="0.333333" d="M381.621 997.956C386.46 1006.91 396.333 1011.94 406.422 1010.59L676.732 974.455C683.369 973.568 689.354 970.002 693.294 964.588L910.597 666.024C913.826 661.588 915.472 656.196 915.272 650.713L903.271 322.077C902.946 313.191 897.833 305.178 889.91 301.141L671.392 189.801C663.469 185.764 653.981 186.337 646.601 191.298L373.676 374.755C369.122 377.816 365.727 382.317 364.036 387.537L250.22 738.831C248.156 745.201 248.79 752.138 251.973 758.029L381.621 997.956Z" stroke="url(#paint22_linear_14_239)" stroke-opacity="0.3"/>
<path opacity="0.347826" d="M345.439 993.184C349.806 1002.34 359.359 1007.85 369.467 1007.06L639.071 985.893C645.76 985.368 651.94 982.123 656.17 976.916L886.318 693.62C889.792 689.344 891.723 684.021 891.799 678.511L896.307 353.16C896.429 344.287 891.744 336.041 884.059 331.603L673.103 209.808C665.417 205.371 655.933 205.436 648.31 209.98L368.801 376.558C364.068 379.379 360.424 383.713 358.458 388.86L228.19 729.822C225.796 736.089 226.076 743.064 228.965 749.118L345.439 993.184Z" stroke="url(#paint23_linear_14_239)" stroke-opacity="0.3"/>
<path opacity="0.362319" d="M310.331 987.652C314.218 996.973 323.428 1002.95 333.525 1002.71L601.603 996.348C608.323 996.188 614.682 993.275 619.191 988.291L861.186 720.78C864.899 716.676 867.112 711.437 867.467 705.915L888.109 384.666C888.677 375.828 884.43 367.371 877.003 362.548L674.099 230.78C666.671 225.957 657.219 225.518 649.376 229.631L364.296 379.152C359.396 381.722 355.51 385.875 353.271 390.936L207.316 720.816C204.597 726.963 204.522 733.957 207.109 740.16L310.331 987.652Z" stroke="url(#paint24_linear_14_239)" stroke-opacity="0.3"/>
<path opacity="0.376812" d="M276.329 981.427C279.731 990.893 288.574 997.318 298.628 997.629L564.379 1005.84C571.109 1006.05 577.629 1003.48 582.406 998.729L835.234 747.459C839.176 743.541 841.669 738.4 842.304 732.879L878.666 416.52C879.676 407.74 875.878 399.097 868.727 393.902L674.336 252.669C667.186 247.474 657.792 246.532 649.753 250.206L360.116 382.549C355.061 384.858 350.941 388.818 348.434 393.777L187.589 711.879C184.551 717.888 184.12 724.883 186.397 731.221L276.329 981.427Z" stroke="url(#paint25_linear_14_239)" stroke-opacity="0.3"/>
<path opacity="0.391304" d="M243.46 974.58C246.372 984.165 254.827 991.011 264.808 991.867L527.446 1014.39C534.169 1014.97 540.831 1012.75 545.863 1008.25L808.495 773.615C812.657 769.896 815.425 764.867 816.34 759.361L867.972 448.649C869.418 439.949 866.076 431.143 859.222 425.593L673.774 275.42C666.92 269.87 657.612 268.431 649.402 271.654L356.215 386.759C351.019 388.799 346.676 392.552 343.904 397.397L168.997 703.073C165.646 708.929 164.858 715.908 166.82 722.364L243.46 974.58Z" stroke="url(#paint26_linear_14_239)" stroke-opacity="0.3"/>
<path opacity="0.405797" d="M211.746 967.181C214.165 976.859 222.211 984.103 232.089 985.498L490.853 1022.03C497.547 1022.98 504.334 1021.12 509.608 1016.89L781.001 799.21C785.375 795.701 788.413 790.799 789.609 785.321L856.023 480.978C857.9 472.38 855.021 463.436 848.481 457.548L672.374 298.98C665.834 293.092 656.638 291.163 648.283 293.928L352.549 391.791C347.226 393.553 342.668 397.087 339.637 401.803L151.521 694.463C147.866 700.15 146.723 707.095 148.362 713.653L211.746 967.181Z" stroke="url(#paint27_linear_14_239)" stroke-opacity="0.3"/>
<path opacity="0.42029" d="M181.205 959.301C183.13 969.046 190.748 976.664 200.493 978.589L454.644 1028.79C461.289 1030.1 468.181 1028.6 473.683 1024.65L752.79 824.205C757.365 820.919 760.668 816.157 762.143 810.721L842.821 513.434C845.12 504.96 842.709 495.903 836.5 489.694L670.1 323.294C663.891 317.085 654.834 314.673 646.359 316.973L349.072 397.65C343.636 399.125 338.875 402.429 335.589 407.004L135.141 686.111C131.19 691.612 129.693 698.505 131.005 705.15L181.205 959.301Z" stroke="url(#paint28_linear_14_239)" stroke-opacity="0.3"/>
<path opacity="0.434783" d="M151.851 951.011C153.281 960.797 160.454 968.764 170.037 971.209L418.861 1034.69C425.438 1036.37 432.416 1035.24 438.131 1031.58L723.9 848.565C728.665 845.513 732.227 840.906 733.981 835.526L828.369 545.945C831.084 537.615 829.145 528.47 823.282 521.959L666.923 348.304C661.06 341.793 652.168 338.908 643.6 340.738L345.739 404.34C340.205 405.521 335.251 408.582 331.718 413.002L119.833 678.075C115.595 683.377 113.747 690.199 114.728 696.914L151.851 951.011Z" stroke="url(#paint29_linear_14_239)" stroke-opacity="0.3"/>
<path opacity="0.449275" d="M123.694 942.383C124.63 952.185 131.342 960.474 140.735 963.427L383.546 1039.77C390.034 1041.81 397.078 1041.06 402.992 1037.7L694.371 872.257C699.315 869.45 703.129 865.011 705.159 859.7L812.679 578.439C815.8 570.274 814.335 561.065 808.834 554.272L662.814 373.952C657.313 367.159 648.61 363.811 639.974 365.167L342.505 411.859C336.888 412.741 331.753 415.548 327.979 419.801L105.57 670.415C101.056 675.502 98.8592 682.236 99.5055 689.006L123.694 942.383Z" stroke="url(#paint30_linear_14_239)" stroke-opacity="0.3"/>
<path opacity="0.463768" d="M96.7394 933.489C97.1834 943.281 103.42 951.865 112.595 955.313L348.738 1044.06C355.117 1046.45 362.206 1046.09 368.302 1043.04L664.245 895.251C669.355 892.699 673.414 888.441 675.718 883.214L795.763 610.844C799.28 602.865 798.29 593.617 793.165 586.563L657.749 400.179C652.624 393.124 644.135 389.326 635.459 390.205L339.324 420.208C333.641 420.784 328.337 423.328 324.33 427.4L92.3216 663.187C87.542 668.045 85.0015 674.673 85.3102 681.481L96.7394 933.489Z" stroke="url(#paint31_linear_14_239)" stroke-opacity="0.3"/>
<path opacity="0.478261" d="M70.9876 924.399C70.9438 934.155 76.6925 943.008 85.623 946.936L314.471 1047.6C320.722 1050.35 327.836 1050.36 334.099 1047.64L633.563 917.52C638.828 915.232 643.123 911.168 645.697 906.037L777.639 643.093C781.54 635.318 781.026 626.057 776.289 618.761L651.709 426.925C646.971 419.63 638.72 415.394 630.03 415.795L336.153 429.381C330.419 429.646 324.959 431.916 320.728 435.796L80.0538 656.445C75.0205 661.06 72.1413 667.566 72.1106 674.394L70.9876 924.399Z" stroke="url(#paint32_linear_14_239)" stroke-opacity="0.3"/>
<path opacity="0.492754" d="M46.4372 915.185C45.9106 924.881 51.1598 933.972 59.82 938.364L280.781 1050.42C286.884 1053.52 294.003 1053.92 300.416 1051.53L602.373 939.037C607.779 937.022 612.301 933.165 615.142 928.144L758.329 675.117C762.603 667.565 762.563 658.316 758.224 650.801L644.677 454.13C640.338 446.616 632.348 441.956 623.671 441.881L332.949 439.372C327.18 439.322 321.579 441.309 317.131 444.984L68.7319 650.241C63.457 654.599 60.2452 660.966 59.8741 667.798L46.4372 915.185Z" stroke="url(#paint33_linear_14_239)" stroke-opacity="0.3"/>
<path opacity="0.507246" d="M23.0797 905.914C22.0766 915.526 26.8167 924.828 35.1818 929.666L247.699 1052.57C253.635 1056 260.738 1056.79 267.282 1054.74L570.716 959.779C576.25 958.047 580.99 954.409 584.094 949.511L737.858 706.851C742.49 699.54 742.922 690.327 738.992 682.614L636.638 481.733C632.709 474.021 625.002 468.955 616.364 468.405L329.667 450.171C323.881 449.803 318.151 451.499 313.497 454.958L58.3152 644.623C52.8117 648.714 49.2743 654.923 48.5625 661.743L23.0797 905.914Z" stroke="url(#paint34_linear_14_239)" stroke-opacity="0.3"/>
<path opacity="0.521739" d="M0.905487 896.657C-0.566335 906.16 3.65659 915.645 11.7031 920.909L215.253 1054.09C221.004 1057.85 228.07 1059.02 234.728 1057.32L538.642 979.728C544.289 978.286 549.237 974.878 552.598 970.116L716.254 738.231C721.232 731.177 722.13 722.025 718.619 714.138L627.585 509.673C624.074 501.787 616.671 496.33 608.099 495.31L326.267 461.768C320.479 461.079 314.636 462.476 309.786 465.708L48.7636 639.639C43.0451 643.45 39.1897 649.487 38.1379 656.278L0.905487 896.657Z" stroke="url(#paint35_linear_14_239)" stroke-opacity="0.3"/>
<path opacity="0.536232" d="M-20.1013 887.48C-22.033 896.851 -18.3334 906.488 -10.6279 912.159L183.471 1055.01C189.017 1059.09 196.025 1060.65 202.779 1059.3L506.196 998.865C511.942 997.72 517.088 994.554 520.7 989.941L693.549 769.195C698.857 762.416 700.217 753.348 697.132 745.31L617.511 537.889C614.425 529.851 607.347 524.023 598.866 522.537L322.706 474.149C316.935 473.138 310.993 474.229 305.957 477.223L40.0321 635.334C34.1128 638.853 29.9481 644.701 28.5576 651.446L-20.1013 887.48Z" stroke="url(#paint36_linear_14_239)" stroke-opacity="0.3"/>
<path opacity="0.550725" d="M-39.9579 878.449C-42.3394 887.665 -39.1679 897.425 -31.8245 903.481L152.375 1055.38C157.7 1059.77 164.629 1061.71 171.46 1060.73L473.427 1017.18C479.257 1016.33 484.589 1013.42 488.446 1008.97L669.78 799.684C675.403 793.195 677.218 784.236 674.564 776.07L606.413 566.322C603.76 558.156 597.025 551.975 588.662 550.03L318.945 487.3C313.208 485.965 307.182 486.743 301.971 489.489L32.0758 631.746C25.9705 634.964 21.5056 640.608 19.7788 647.29L-39.9579 878.449Z" stroke="url(#paint37_linear_14_239)" stroke-opacity="0.3"/>
<path opacity="0.565217" d="M-58.6874 869.628C-61.5074 878.666 -58.8669 888.521 -51.9054 894.938L121.988 1055.25C127.073 1059.93 133.903 1062.25 140.792 1061.63L440.382 1034.65C446.281 1034.12 451.787 1031.47 455.883 1027.19L644.984 829.643C650.905 823.457 653.167 814.63 650.951 806.36L594.293 594.91C592.077 586.64 585.705 580.126 577.485 577.73L314.945 501.201C309.259 499.544 303.165 500.002 297.791 502.491L24.8458 628.916C18.5698 631.823 13.8149 637.248 11.7548 643.85L-58.6874 869.628Z" stroke="url(#paint38_linear_14_239)" stroke-opacity="0.3"/>
<path opacity="0.57971" d="M-76.315 861.078C-79.5611 869.918 -77.4529 879.836 -70.8917 886.592L92.3271 1054.65C97.1566 1059.62 103.867 1062.32 110.794 1062.06L407.111 1051.27C413.062 1051.06 418.731 1048.68 423.057 1044.59L619.204 859.016C625.405 853.149 628.106 844.476 626.331 836.125L581.156 623.596C579.381 615.245 573.387 608.42 565.335 605.583L310.667 515.835C305.051 513.855 298.905 513.99 293.38 516.212L18.2925 626.879C11.8615 629.466 6.82741 634.656 4.43799 641.163L-76.315 861.078Z" stroke="url(#paint39_linear_14_239)" stroke-opacity="0.3"/>
<path opacity="0.594203" d="M-92.8698 852.86C-96.5287 861.481 -94.9523 871.434 -88.8083 878.503L63.4087 1053.63C67.9663 1058.88 74.5357 1061.94 81.4821 1062.06L373.662 1067.05C379.65 1067.15 385.469 1065.05 390.018 1061.16L592.483 887.754C598.948 882.217 602.076 873.72 600.744 865.313L567.009 652.321C565.678 643.913 560.078 636.799 552.218 633.531L306.077 531.179C300.547 528.879 294.366 528.685 288.703 530.633L12.3642 625.665C5.79439 627.925 0.492733 632.867 -2.22139 639.262L-92.8698 852.86Z" stroke="url(#paint40_linear_14_239)" stroke-opacity="0.3"/>
<path opacity="0.608696" d="M-108.384 845.031C-112.441 853.414 -111.394 863.372 -105.683 870.728L35.2465 1052.25C39.5166 1057.75 45.9254 1061.17 52.8712 1061.66L340.085 1081.96C346.094 1082.39 352.048 1080.58 356.811 1076.9L564.869 915.808C571.579 910.612 575.123 902.315 574.235 893.875L551.864 681.027C550.977 672.587 545.786 665.207 538.142 661.521L301.139 547.211C295.713 544.594 289.514 544.068 283.725 545.733L7.00828 625.305C0.316351 627.229 -5.24066 631.91 -8.274 638.178L-108.384 845.031Z" stroke="url(#paint41_linear_14_239)" stroke-opacity="0.3"/>
<path opacity="0.623188" d="M-122.893 837.646C-127.333 845.772 -126.812 855.707 -121.547 863.324L7.84963 1050.53C11.8178 1056.27 18.0461 1060.05 24.9715 1060.91L306.427 1096.02C312.439 1096.77 318.517 1095.27 323.485 1091.8L536.41 943.134C543.346 938.291 547.293 930.212 546.851 921.763L535.735 709.66C535.292 701.211 530.522 693.589 523.117 689.498L295.819 563.906C290.516 560.975 284.314 560.114 278.413 561.489L2.16932 625.823C-4.62783 627.406 -10.4273 631.813 -13.7736 637.937L-122.893 837.646Z" stroke="url(#paint42_linear_14_239)" stroke-opacity="0.3"/>
<path opacity="0.637681" d="M-136.434 830.758C-141.24 838.609 -141.24 848.491 -136.434 856.342L-18.7724 1048.54C-15.12 1054.5 -9.09174 1058.62 -2.20669 1059.86L272.738 1109.22C278.737 1110.3 284.923 1109.1 290.087 1105.86L507.159 969.69C514.302 965.209 518.639 957.369 518.639 948.936L518.639 738.164C518.639 729.731 514.302 721.891 507.159 717.41L290.087 581.237C284.923 577.998 278.737 576.8 272.738 577.877L-2.20665 627.241C-9.09171 628.478 -15.12 632.598 -18.7724 638.564L-136.434 830.758Z" stroke="url(#paint43_linear_14_239)" stroke-opacity="0.3"/>
<path opacity="0.652174" d="M-149.049 824.416C-154.204 831.975 -154.718 841.777 -150.381 849.834L-44.6156 1046.3C-41.2921 1052.48 -35.4828 1056.93 -28.658 1058.54L239.065 1121.57C245.034 1122.98 251.314 1122.1 256.663 1119.1L477.169 995.439C484.5 991.328 489.211 983.745 489.651 975.352L500.597 766.488C501.037 758.094 497.144 750.061 490.283 745.206L283.911 599.177C278.905 595.635 272.752 594.099 266.668 594.873L-6.1772 629.579C-13.1326 630.464 -19.3756 634.286 -23.3263 640.079L-149.049 824.416Z" stroke="url(#paint44_linear_14_239)" stroke-opacity="0.3"/>
<path opacity="0.666667" d="M-160.78 818.668C-166.267 825.92 -167.286 835.614 -163.427 843.848L-69.6763 1043.88C-66.6938 1050.24 -61.122 1055.02 -54.3773 1056.99L205.456 1133.08C211.378 1134.82 217.737 1134.25 223.262 1131.5L446.495 1020.35C453.993 1016.61 459.064 1009.31 459.94 1000.98L481.633 794.579C482.509 786.249 479.067 778.048 472.509 772.837L277.265 617.697C272.433 613.858 266.33 611.983 260.177 612.449L-9.7982 632.852C-16.8062 633.382 -23.2492 636.895 -27.4897 642.5L-160.78 818.668Z" stroke="url(#paint45_linear_14_239)" stroke-opacity="0.3"/>
<path opacity="0.681159" d="M-171.675 813.556C-177.474 820.486 -178.988 830.045 -175.614 838.428L-93.9552 1041.31C-91.3248 1047.84 -86.0086 1052.93 -79.3638 1055.27L171.957 1143.76C177.816 1145.82 184.238 1145.58 189.927 1143.09L415.194 1044.38C422.839 1041.03 428.253 1034.02 429.559 1025.77L461.772 822.391C463.077 814.146 460.096 805.803 453.859 800.255L270.121 636.766C265.481 632.638 259.446 630.425 253.237 630.577L-13.1278 637.072C-20.1704 637.243 -26.7982 640.438 -31.3194 645.841L-171.675 813.556Z" stroke="url(#paint46_linear_14_239)" stroke-opacity="0.3"/>
<path opacity="0.695652" d="M-181.78 809.123C-187.872 815.717 -189.87 825.115 -186.986 833.617L-117.455 1038.63C-115.187 1045.32 -110.143 1050.7 -103.618 1053.4L138.615 1153.61C144.392 1156 150.863 1156.09 156.704 1153.87L383.324 1067.51C391.096 1064.55 396.835 1057.85 398.565 1049.71L441.042 849.874C442.771 841.738 440.254 833.281 434.359 827.414L262.454 656.352C258.023 651.943 252.074 649.394 245.825 649.228L-16.2238 642.246C-23.2828 642.058 -30.0797 644.925 -34.8717 650.112L-181.78 809.123Z" stroke="url(#paint47_linear_14_239)" stroke-opacity="0.3"/>
<path opacity="0.710145" d="M-191.144 805.403C-197.51 811.65 -199.978 820.862 -197.588 829.454L-140.179 1035.9C-138.282 1042.72 -133.529 1048.39 -127.142 1051.44L105.475 1162.66C111.152 1165.37 117.656 1165.8 123.639 1163.85L350.945 1089.72C358.823 1087.15 364.869 1080.78 367.014 1072.77L419.475 876.985C421.62 868.981 419.573 860.434 414.034 854.27L254.244 676.424C250.038 671.743 244.192 668.86 237.919 668.372L-19.1429 648.381C-26.2002 647.832 -33.1501 650.362 -38.2024 655.32L-191.144 805.403Z" stroke="url(#paint48_linear_14_239)" stroke-opacity="0.3"/>
<path opacity="0.724638" d="M-199.82 802.433C-206.438 808.321 -209.363 817.322 -207.47 825.975L-162.136 1033.15C-160.619 1040.08 -156.171 1046.02 -149.943 1049.42L72.5789 1170.92C78.1395 1173.95 84.66 1174.72 90.7718 1173.05L318.115 1110.99C326.08 1108.82 332.413 1102.78 334.964 1094.93L397.103 903.682C399.654 895.831 398.08 887.222 392.915 880.782L245.467 696.946C241.503 692.004 235.779 688.79 229.496 687.977L-21.9441 655.477C-28.9815 654.568 -36.0676 656.754 -41.3693 661.47L-199.82 802.433Z" stroke="url(#paint49_linear_14_239)" stroke-opacity="0.3"/>
<path opacity="0.73913" d="M-207.861 800.242C-214.71 805.761 -218.076 814.528 -216.678 823.213L-183.335 1030.43C-182.205 1037.45 -178.078 1043.64 -172.027 1047.38L39.9707 1178.41C45.3973 1181.76 51.9181 1182.87 58.1467 1181.49L284.898 1131.3C292.927 1129.52 299.529 1123.83 302.476 1116.16L373.963 929.925C376.91 922.248 375.809 913.604 371.032 906.911L236.107 717.886C232.401 712.693 226.815 709.151 220.538 708.013L-24.6838 663.534C-31.683 662.264 -38.8885 664.1 -44.4277 668.563L-207.861 800.242Z" stroke="url(#paint50_linear_14_239)" stroke-opacity="0.3"/>
<path opacity="0.753623" d="M-215.32 798.858C-222.38 804 -226.169 812.51 -225.266 821.197L-203.788 1027.77C-203.051 1034.86 -199.259 1041.28 -193.404 1045.35L7.69083 1185.15C12.966 1188.82 19.4706 1190.27 25.8034 1189.18L251.353 1150.63C259.426 1149.25 266.275 1143.93 269.607 1136.45L350.091 955.676C353.422 948.194 352.795 939.542 348.418 932.619L226.146 739.207C222.713 733.777 217.284 729.912 211.029 728.446L-27.4192 672.546C-34.3621 670.918 -41.6697 672.396 -47.4341 676.594L-215.32 798.858Z" stroke="url(#paint51_linear_14_239)" stroke-opacity="0.3"/>
<path opacity="0.768116" d="M-222.253 798.304C-229.501 803.061 -233.696 811.293 -233.283 819.953L-223.509 1025.22C-223.169 1032.36 -219.727 1039 -214.085 1043.39L-24.221 1191.17C-19.1144 1195.15 -12.6427 1196.94 -6.21873 1196.16L217.541 1168.99C225.638 1168 232.715 1163.06 236.417 1155.79L325.527 980.901C329.229 973.634 329.073 965 325.109 957.872L215.57 760.874C212.426 755.219 207.171 751.037 200.954 749.242L-30.206 682.504C-37.0745 680.521 -44.4665 681.637 -50.4435 685.559L-222.253 798.304Z" stroke="url(#paint52_linear_14_239)" stroke-opacity="0.3"/>
<path opacity="0.782609" d="M-228.715 798.6C-236.13 802.966 -240.711 810.9 -240.784 819.504L-242.514 1022.81C-242.575 1029.98 -239.495 1036.81 -234.085 1041.51L-55.7268 1196.5C-50.806 1200.77 -44.3839 1202.91 -37.8819 1202.44L183.525 1186.36C191.625 1185.77 198.907 1181.2 202.968 1174.17L300.31 1005.57C304.371 998.535 304.682 989.946 301.142 982.638L204.367 782.851C201.525 776.984 196.462 772.492 190.299 770.368L-33.0995 693.397C-39.8757 691.063 -47.3343 691.812 -53.5105 695.448L-228.715 798.6Z" stroke="url(#paint53_linear_14_239)" stroke-opacity="0.3"/>
<path opacity="0.797101" d="M-234.764 799.763C-242.323 803.732 -247.271 811.35 -247.822 819.87L-260.821 1020.59C-261.286 1027.76 -258.579 1034.77 -253.418 1039.77L-86.7907 1201.15C-82.0725 1205.72 -75.7169 1208.21 -69.1504 1208.05L149.366 1202.74C157.449 1202.54 164.914 1198.37 169.318 1191.59L274.483 1029.65C278.887 1022.87 279.661 1014.35 276.553 1006.89L192.526 805.102C190.001 799.038 185.146 794.242 179.053 791.791L-36.1538 705.211C-42.8199 702.529 -50.3273 702.909 -56.6888 706.249L-234.764 799.763Z" stroke="url(#paint54_linear_14_239)" stroke-opacity="0.3"/>
<path opacity="0.811594" d="M-240.458 801.805C-248.139 805.375 -253.431 812.659 -254.453 821.067L-278.451 1018.58C-279.32 1025.73 -276.998 1032.9 -272.102 1038.18L-117.379 1205.17C-112.88 1210.03 -106.608 1212.86 -99.9903 1213.01L115.122 1218.14C123.168 1218.33 130.795 1214.56 135.526 1208.04L248.089 1053.11C252.82 1046.6 254.051 1038.18 251.382 1030.59L180.037 827.589C177.843 821.344 173.214 816.253 167.206 813.475L-39.4222 717.927C-45.9608 714.904 -53.4987 714.911 -60.0314 717.947L-240.458 801.805Z" stroke="url(#paint55_linear_14_239)" stroke-opacity="0.3"/>
<path opacity="0.826087" d="M-245.851 804.735C-253.632 807.904 -259.247 814.838 -260.728 823.107L-295.424 1016.82C-296.698 1023.93 -294.769 1031.24 -290.155 1036.79L-147.457 1208.58C-143.194 1213.72 -137.023 1216.89 -130.368 1217.37L80.8563 1232.56C88.8462 1233.13 96.6125 1229.76 101.654 1223.54L221.173 1075.94C226.214 1069.72 227.894 1061.42 225.671 1053.73L166.897 850.276C165.045 843.866 160.66 838.489 154.753 835.386L-42.9549 731.525C-49.3488 728.166 -56.8989 727.799 -63.5881 730.523L-245.851 804.735Z" stroke="url(#paint56_linear_14_239)" stroke-opacity="0.3"/>
<path opacity="0.84058" d="M-251.003 808.561C-258.862 811.326 -264.776 817.895 -266.705 825.999L-311.765 1015.34C-313.441 1022.38 -311.916 1029.81 -307.598 1035.62L-176.997 1211.42C-172.986 1216.82 -166.932 1220.34 -160.254 1221.14L46.6262 1246.01C54.5408 1246.96 62.4235 1244 67.7575 1238.08L193.779 1098.12C199.113 1092.19 201.232 1084.04 199.458 1076.27L153.099 873.125C151.603 866.568 147.477 860.914 141.688 857.49L-46.8024 745.98C-53.0347 742.294 -60.5788 741.552 -67.4094 743.956L-251.003 808.561Z" stroke="url(#paint57_linear_14_239)" stroke-opacity="0.3"/>
<path opacity="0.855072" d="M-255.97 813.282C-263.884 815.645 -270.075 821.836 -272.438 829.749L-327.498 1014.18C-329.575 1021.13 -328.459 1028.65 -324.452 1034.71L-205.968 1213.73C-202.226 1219.38 -196.306 1223.23 -189.619 1224.36L12.4899 1258.51C20.3105 1259.83 28.2869 1257.28 33.8953 1251.67L165.954 1119.62C171.562 1114.01 174.109 1106.03 172.788 1098.21L138.643 896.101C137.513 889.414 133.662 883.494 128.007 879.751L-51.0126 761.268C-57.0668 757.261 -64.5864 756.145 -71.5432 758.222L-255.97 813.282Z" stroke="url(#paint58_linear_14_239)" stroke-opacity="0.3"/>
<path opacity="0.869565" d="M-260.809 818.899C-268.757 820.86 -275.199 826.661 -277.981 834.36L-342.649 1013.35C-345.123 1020.2 -344.424 1027.79 -340.742 1034.07L-234.347 1215.53C-230.887 1221.43 -225.119 1225.61 -218.437 1227.07L-21.4959 1270.07C-13.7873 1271.75 -5.74004 1269.62 0.123473 1264.34L137.743 1140.42C143.607 1135.15 146.569 1127.36 145.701 1119.52L123.527 919.166C122.775 912.368 119.215 906.194 113.709 902.137L-55.6314 777.357C-61.4915 773.039 -68.9684 771.55 -76.0356 773.295L-260.809 818.899Z" stroke="url(#paint59_linear_14_239)" stroke-opacity="0.3"/>
<path opacity="0.884058" d="M-265.576 825.406C-273.535 826.969 -280.205 832.37 -283.388 839.83L-357.247 1012.9C-360.112 1019.61 -359.834 1027.25 -356.491 1033.74L-262.107 1216.86C-258.946 1223 -253.347 1227.51 -246.684 1229.3L-55.2762 1280.71C-47.6972 1282.74 -39.6017 1281.03 -33.503 1276.09L109.194 1160.53C115.292 1155.6 118.656 1148.03 118.241 1140.2L107.754 942.284C107.389 935.395 104.136 928.979 98.7949 924.612L-60.7029 794.218C-66.3534 789.598 -73.7694 787.738 -80.9311 789.145L-265.576 825.406Z" stroke="url(#paint60_linear_14_239)" stroke-opacity="0.3"/>
<path opacity="0.898551" d="M-270.325 832.796C-278.274 833.964 -285.146 838.957 -288.714 846.156L-371.32 1012.84C-374.569 1019.4 -374.718 1027.06 -371.724 1033.74L-289.228 1217.78C-286.381 1224.13 -280.967 1228.97 -274.338 1231.09L-88.7974 1290.45C-81.3648 1292.83 -73.2439 1291.53 -66.9306 1286.94L80.3521 1179.93C86.6655 1175.35 90.4161 1168.03 90.4511 1160.22L91.3266 965.419C91.3579 958.459 88.4273 951.814 83.2666 947.143L-66.2688 811.815C-71.6947 806.904 -79.0315 804.676 -86.2716 805.741L-270.325 832.796Z" stroke="url(#paint61_linear_14_239)" stroke-opacity="0.3"/>
<path opacity="0.913043" d="M-275.11 841.056C-283.029 841.835 -290.076 846.412 -294.009 853.329L-384.898 1013.2C-388.524 1019.57 -389.101 1027.24 -386.469 1034.09L-315.69 1218.3C-313.171 1224.86 -307.959 1230.02 -301.377 1232.47L-122.008 1299.33C-114.738 1302.04 -106.614 1301.15 -100.107 1296.92L51.2654 1198.62C57.7723 1194.39 61.8931 1187.34 62.3745 1179.59L74.2519 988.536C74.6877 981.526 72.0938 974.666 67.1287 969.697L-72.3684 830.112C-77.5551 824.922 -84.7949 822.33 -92.0971 823.049L-275.11 841.056Z" stroke="url(#paint62_linear_14_239)" stroke-opacity="0.3"/>
<path opacity="0.927536" d="M-279.984 850.172C-287.852 850.569 -295.05 854.724 -299.327 861.34L-398.012 1013.99C-402.006 1020.17 -403.012 1027.81 -400.753 1034.81L-341.477 1218.48C-339.299 1225.23 -334.306 1230.7 -327.786 1233.49L-154.858 1307.37C-147.766 1310.4 -139.662 1309.91 -132.983 1306.06L21.9796 1216.59C28.6584 1212.73 33.1318 1205.96 34.0539 1198.3L56.5367 1011.6C57.3843 1004.56 55.1413 997.501 50.3869 992.242L-79.039 849.072C-83.9726 843.614 -91.0977 840.663 -98.4454 841.033L-279.984 850.172Z" stroke="url(#paint63_linear_14_239)" stroke-opacity="0.3"/>
<path opacity="0.942029" d="M-284.999 860.128C-292.796 860.148 -300.118 863.879 -304.717 870.175L-410.693 1015.23C-415.045 1021.19 -416.481 1028.79 -414.603 1035.92L-366.573 1218.36C-364.751 1225.28 -359.993 1231.06 -353.549 1234.18L-187.302 1314.6C-180.402 1317.94 -172.339 1317.85 -165.51 1314.37L-7.45947 1233.84C-0.630766 1230.36 4.17632 1223.89 5.53163 1216.34L38.19 1034.58C39.4558 1027.53 37.5774 1020.29 33.0486 1014.74L-86.3152 868.654C-90.9825 862.941 -97.9753 859.636 -105.352 859.655L-284.999 860.128Z" stroke="url(#paint64_linear_14_239)" stroke-opacity="0.3"/>
<path opacity="0.956522" d="M-290.203 870.9C-297.91 870.554 -305.33 873.857 -310.229 879.816L-422.975 1016.95C-427.672 1022.67 -429.537 1030.2 -428.049 1037.44L-390.967 1217.98C-389.513 1225.06 -385.006 1231.14 -378.653 1234.58L-219.292 1321.05C-212.599 1324.68 -204.599 1325 -197.643 1321.9L-37.0058 1250.38C-30.0496 1247.28 -24.9288 1241.13 -23.1493 1233.72L19.2238 1057.44C20.9131 1050.41 19.4126 1042.99 15.1239 1037.17L-94.2281 888.815C-98.6166 882.861 -105.46 879.209 -112.849 878.876L-290.203 870.9Z" stroke="url(#paint65_linear_14_239)" stroke-opacity="0.3"/>
<path opacity="0.971014" d="M-295.645 882.468C-303.243 881.763 -310.735 884.639 -315.91 890.246L-434.889 1019.16C-439.919 1024.61 -442.21 1032.04 -441.119 1039.38L-414.649 1217.37C-413.575 1224.6 -409.336 1230.96 -403.087 1234.74L-250.788 1326.77C-244.315 1330.68 -236.398 1331.39 -229.337 1328.67L-66.6154 1266.21C-59.5545 1263.5 -54.1411 1257.68 -51.948 1250.44L-0.350033 1080.14C1.76712 1073.15 0.657304 1065.59 -3.37703 1059.5L-102.808 909.513C-106.906 903.332 -113.583 899.339 -120.967 898.655L-295.645 882.468Z" stroke="url(#paint66_linear_14_239)" stroke-opacity="0.3"/>
<path opacity="0.985507" d="M-301.37 894.802C-308.841 893.752 -316.379 896.201 -321.805 901.442L-446.47 1021.86C-451.818 1027.03 -454.531 1034.34 -453.843 1041.75L-437.611 1216.59C-436.929 1223.94 -432.973 1230.58 -426.842 1234.69L-281.75 1331.79C-275.508 1335.97 -267.695 1337.05 -260.552 1334.73L-96.2439 1281.34C-89.1009 1279.02 -83.4171 1273.55 -80.8228 1266.51L-20.516 1102.66C-17.9677 1095.74 -18.6747 1088.04 -22.4407 1081.69L-112.079 930.702C-115.875 924.308 -122.37 919.984 -129.733 918.948L-301.37 894.802Z" stroke="url(#paint67_linear_14_239)" stroke-opacity="0.3"/>
<path d="M-307.423 907.877C-314.749 906.49 -322.307 908.516 -327.959 913.379L-457.75 1025.07C-463.402 1029.94 -466.531 1037.11 -466.252 1044.56L-459.849 1215.68C-459.571 1223.13 -455.914 1230.04 -449.915 1234.47L-312.14 1336.16C-306.141 1340.58 -298.452 1342.04 -291.25 1340.11L-125.85 1295.79C-118.648 1293.86 -112.716 1288.75 -109.735 1281.92L-41.2592 1124.97C-38.2777 1118.14 -38.5702 1110.32 -42.0542 1103.73L-122.067 952.336C-125.551 945.744 -131.847 941.097 -139.173 939.711L-307.423 907.877Z" stroke="url(#paint68_linear_14_239)" stroke-opacity="0.3"/>
<defs>
<linearGradient id="paint0_linear_14_239" x1="1359.1" y1="801.149" x2="623.993" y2="-106.635" gradientUnits="userSpaceOnUse">
<stop stop-color="#009035"/>
<stop offset="1" stop-color="#004622"/>
</linearGradient>
<linearGradient id="paint1_linear_14_239" x1="1314.19" y1="826.231" x2="633.654" y2="-110.44" gradientUnits="userSpaceOnUse">
<stop stop-color="#009035"/>
<stop offset="1" stop-color="#004622"/>
</linearGradient>
<linearGradient id="paint2_linear_14_239" x1="1268.79" y1="849.77" x2="643.83" y2="-112.587" gradientUnits="userSpaceOnUse">
<stop stop-color="#009035"/>
<stop offset="1" stop-color="#004622"/>
</linearGradient>
<linearGradient id="paint3_linear_14_239" x1="1223.01" y1="871.754" x2="654.423" y2="-113.064" gradientUnits="userSpaceOnUse">
<stop stop-color="#009035"/>
<stop offset="1" stop-color="#004622"/>
</linearGradient>
<linearGradient id="paint4_linear_14_239" x1="1176.92" y1="892.178" x2="665.34" y2="-111.861" gradientUnits="userSpaceOnUse">
<stop stop-color="#009035"/>
<stop offset="1" stop-color="#004622"/>
</linearGradient>
<linearGradient id="paint5_linear_14_239" x1="1130.63" y1="911.039" x2="676.486" y2="-108.98" gradientUnits="userSpaceOnUse">
<stop stop-color="#009035"/>
<stop offset="1" stop-color="#004622"/>
</linearGradient>
<linearGradient id="paint6_linear_14_239" x1="1084.21" y1="928.342" x2="687.764" y2="-104.423" gradientUnits="userSpaceOnUse">
<stop stop-color="#009035"/>
<stop offset="1" stop-color="#004622"/>
</linearGradient>
<linearGradient id="paint7_linear_14_239" x1="1037.75" y1="944.093" x2="699.085" y2="-98.1984" gradientUnits="userSpaceOnUse">
<stop stop-color="#009035"/>
<stop offset="1" stop-color="#004622"/>
</linearGradient>
<linearGradient id="paint8_linear_14_239" x1="991.334" y1="958.308" x2="710.355" y2="-90.3214" gradientUnits="userSpaceOnUse">
<stop stop-color="#009035"/>
<stop offset="1" stop-color="#004622"/>
</linearGradient>
<linearGradient id="paint9_linear_14_239" x1="945.053" y1="971.002" x2="721.483" y2="-80.8106" gradientUnits="userSpaceOnUse">
<stop stop-color="#009035"/>
<stop offset="1" stop-color="#004622"/>
</linearGradient>
<linearGradient id="paint10_linear_14_239" x1="898.985" y1="982.199" x2="732.383" y2="-69.6899" gradientUnits="userSpaceOnUse">
<stop stop-color="#009035"/>
<stop offset="1" stop-color="#004622"/>
</linearGradient>
<linearGradient id="paint11_linear_14_239" x1="853.211" y1="991.925" x2="742.966" y2="-56.9883" gradientUnits="userSpaceOnUse">
<stop stop-color="#009035"/>
<stop offset="1" stop-color="#004622"/>
</linearGradient>
<linearGradient id="paint12_linear_14_239" x1="807.808" y1="1000.21" x2="753.149" y2="-42.7387" gradientUnits="userSpaceOnUse">
<stop stop-color="#009035"/>
<stop offset="1" stop-color="#004622"/>
</linearGradient>
<linearGradient id="paint13_linear_14_239" x1="762.853" y1="1007.09" x2="762.853" y2="-26.9788" gradientUnits="userSpaceOnUse">
<stop stop-color="#009035"/>
<stop offset="1" stop-color="#004622"/>
</linearGradient>
<linearGradient id="paint14_linear_14_239" x1="718.418" y1="1012.61" x2="771.997" y2="-9.75053" gradientUnits="userSpaceOnUse">
<stop stop-color="#009035"/>
<stop offset="1" stop-color="#004622"/>
</linearGradient>
<linearGradient id="paint15_linear_14_239" x1="674.572" y1="1016.8" x2="780.507" y2="8.90012" gradientUnits="userSpaceOnUse">
<stop stop-color="#009035"/>
<stop offset="1" stop-color="#004622"/>
</linearGradient>
<linearGradient id="paint16_linear_14_239" x1="631.385" y1="1019.72" x2="788.311" y2="28.9237" gradientUnits="userSpaceOnUse">
<stop stop-color="#009035"/>
<stop offset="1" stop-color="#004622"/>
</linearGradient>
<linearGradient id="paint17_linear_14_239" x1="588.918" y1="1021.4" x2="795.339" y2="50.2667" gradientUnits="userSpaceOnUse">
<stop stop-color="#009035"/>
<stop offset="1" stop-color="#004622"/>
</linearGradient>
<linearGradient id="paint18_linear_14_239" x1="547.232" y1="1021.92" x2="801.528" y2="72.8724" gradientUnits="userSpaceOnUse">
<stop stop-color="#009035"/>
<stop offset="1" stop-color="#004622"/>
</linearGradient>
<linearGradient id="paint19_linear_14_239" x1="506.385" y1="1021.31" x2="806.815" y2="96.6812" gradientUnits="userSpaceOnUse">
<stop stop-color="#009035"/>
<stop offset="1" stop-color="#004622"/>
</linearGradient>
<linearGradient id="paint20_linear_14_239" x1="466.429" y1="1019.64" x2="811.144" y2="121.63" gradientUnits="userSpaceOnUse">
<stop stop-color="#009035"/>
<stop offset="1" stop-color="#004622"/>
</linearGradient>
<linearGradient id="paint21_linear_14_239" x1="427.414" y1="1016.98" x2="814.462" y2="147.654" gradientUnits="userSpaceOnUse">
<stop stop-color="#009035"/>
<stop offset="1" stop-color="#004622"/>
</linearGradient>
<linearGradient id="paint22_linear_14_239" x1="389.385" y1="1013.37" x2="816.719" y2="174.684" gradientUnits="userSpaceOnUse">
<stop stop-color="#009035"/>
<stop offset="1" stop-color="#004622"/>
</linearGradient>
<linearGradient id="paint23_linear_14_239" x1="352.385" y1="1008.9" x2="817.871" y2="202.652" gradientUnits="userSpaceOnUse">
<stop stop-color="#009035"/>
<stop offset="1" stop-color="#004622"/>
</linearGradient>
<linearGradient id="paint24_linear_14_239" x1="316.449" y1="1003.62" x2="817.878" y2="231.486" gradientUnits="userSpaceOnUse">
<stop stop-color="#009035"/>
<stop offset="1" stop-color="#004622"/>
</linearGradient>
<linearGradient id="paint25_linear_14_239" x1="281.611" y1="997.603" x2="816.704" y2="261.111" gradientUnits="userSpaceOnUse">
<stop stop-color="#009035"/>
<stop offset="1" stop-color="#004622"/>
</linearGradient>
<linearGradient id="paint26_linear_14_239" x1="247.902" y1="990.919" x2="814.318" y2="291.453" gradientUnits="userSpaceOnUse">
<stop stop-color="#009035"/>
<stop offset="1" stop-color="#004622"/>
</linearGradient>
<linearGradient id="paint27_linear_14_239" x1="215.345" y1="983.639" x2="810.694" y2="322.437" gradientUnits="userSpaceOnUse">
<stop stop-color="#009035"/>
<stop offset="1" stop-color="#004622"/>
</linearGradient>
<linearGradient id="paint28_linear_14_239" x1="183.961" y1="975.833" x2="805.808" y2="353.986" gradientUnits="userSpaceOnUse">
<stop stop-color="#009035"/>
<stop offset="1" stop-color="#004622"/>
</linearGradient>
<linearGradient id="paint29_linear_14_239" x1="153.766" y1="967.573" x2="799.644" y2="386.022" gradientUnits="userSpaceOnUse">
<stop stop-color="#009035"/>
<stop offset="1" stop-color="#004622"/>
</linearGradient>
<linearGradient id="paint30_linear_14_239" x1="124.772" y1="958.932" x2="792.189" y2="418.468" gradientUnits="userSpaceOnUse">
<stop stop-color="#009035"/>
<stop offset="1" stop-color="#004622"/>
</linearGradient>
<linearGradient id="paint31_linear_14_239" x1="96.9868" y1="949.981" x2="783.434" y2="451.248" gradientUnits="userSpaceOnUse">
<stop stop-color="#009035"/>
<stop offset="1" stop-color="#004622"/>
</linearGradient>
<linearGradient id="paint32_linear_14_239" x1="70.414" y1="940.792" x2="773.376" y2="484.284" gradientUnits="userSpaceOnUse">
<stop stop-color="#009035"/>
<stop offset="1" stop-color="#004622"/>
</linearGradient>
<linearGradient id="paint33_linear_14_239" x1="45.0538" y1="931.437" x2="762.015" y2="517.498" gradientUnits="userSpaceOnUse">
<stop stop-color="#009035"/>
<stop offset="1" stop-color="#004622"/>
</linearGradient>
<linearGradient id="paint34_linear_14_239" x1="20.8999" y1="921.984" x2="749.357" y2="550.817" gradientUnits="userSpaceOnUse">
<stop stop-color="#009035"/>
<stop offset="1" stop-color="#004622"/>
</linearGradient>
<linearGradient id="paint35_linear_14_239" x1="-2.05514" y1="912.505" x2="735.41" y2="584.164" gradientUnits="userSpaceOnUse">
<stop stop-color="#009035"/>
<stop offset="1" stop-color="#004622"/>
</linearGradient>
<linearGradient id="paint36_linear_14_239" x1="-23.8251" y1="903.067" x2="720.189" y2="617.467" gradientUnits="userSpaceOnUse">
<stop stop-color="#009035"/>
<stop offset="1" stop-color="#004622"/>
</linearGradient>
<linearGradient id="paint37_linear_14_239" x1="-44.4253" y1="893.738" x2="703.711" y2="650.654" gradientUnits="userSpaceOnUse">
<stop stop-color="#009035"/>
<stop offset="1" stop-color="#004622"/>
</linearGradient>
<linearGradient id="paint38_linear_14_239" x1="-63.8769" y1="884.582" x2="685.998" y2="683.654" gradientUnits="userSpaceOnUse">
<stop stop-color="#009035"/>
<stop offset="1" stop-color="#004622"/>
</linearGradient>
<linearGradient id="paint39_linear_14_239" x1="-82.2033" y1="875.663" x2="667.075" y2="716.399" gradientUnits="userSpaceOnUse">
<stop stop-color="#009035"/>
<stop offset="1" stop-color="#004622"/>
</linearGradient>
<linearGradient id="paint40_linear_14_239" x1="-99.4319" y1="867.042" x2="646.972" y2="748.824" gradientUnits="userSpaceOnUse">
<stop stop-color="#009035"/>
<stop offset="1" stop-color="#004622"/>
</linearGradient>
<linearGradient id="paint41_linear_14_239" x1="-115.593" y1="858.779" x2="625.722" y2="780.864" gradientUnits="userSpaceOnUse">
<stop stop-color="#009035"/>
<stop offset="1" stop-color="#004622"/>
</linearGradient>
<linearGradient id="paint42_linear_14_239" x1="-130.721" y1="850.93" x2="603.36" y2="812.459" gradientUnits="userSpaceOnUse">
<stop stop-color="#009035"/>
<stop offset="1" stop-color="#004622"/>
</linearGradient>
<linearGradient id="paint43_linear_14_239" x1="-144.851" y1="843.55" x2="579.927" y2="843.55" gradientUnits="userSpaceOnUse">
<stop stop-color="#009035"/>
<stop offset="1" stop-color="#004622"/>
</linearGradient>
<linearGradient id="paint44_linear_14_239" x1="-158.025" y1="836.69" x2="555.464" y2="874.082" gradientUnits="userSpaceOnUse">
<stop stop-color="#009035"/>
<stop offset="1" stop-color="#004622"/>
</linearGradient>
<linearGradient id="paint45_linear_14_239" x1="-170.283" y1="830.398" x2="530.018" y2="904.003" gradientUnits="userSpaceOnUse">
<stop stop-color="#009035"/>
<stop offset="1" stop-color="#004622"/>
</linearGradient>
<linearGradient id="paint46_linear_14_239" x1="-181.67" y1="824.721" x2="503.636" y2="933.263" gradientUnits="userSpaceOnUse">
<stop stop-color="#009035"/>
<stop offset="1" stop-color="#004622"/>
</linearGradient>
<linearGradient id="paint47_linear_14_239" x1="-192.234" y1="819.701" x2="476.368" y2="961.817" gradientUnits="userSpaceOnUse">
<stop stop-color="#009035"/>
<stop offset="1" stop-color="#004622"/>
</linearGradient>
<linearGradient id="paint48_linear_14_239" x1="-202.022" y1="815.377" x2="448.267" y2="989.622" gradientUnits="userSpaceOnUse">
<stop stop-color="#009035"/>
<stop offset="1" stop-color="#004622"/>
</linearGradient>
<linearGradient id="paint49_linear_14_239" x1="-211.086" y1="811.786" x2="419.387" y2="1016.64" gradientUnits="userSpaceOnUse">
<stop stop-color="#009035"/>
<stop offset="1" stop-color="#004622"/>
</linearGradient>
<linearGradient id="paint50_linear_14_239" x1="-219.478" y1="808.96" x2="389.785" y2="1042.83" gradientUnits="userSpaceOnUse">
<stop stop-color="#009035"/>
<stop offset="1" stop-color="#004622"/>
</linearGradient>
<linearGradient id="paint51_linear_14_239" x1="-227.252" y1="806.929" x2="359.518" y2="1068.18" gradientUnits="userSpaceOnUse">
<stop stop-color="#009035"/>
<stop offset="1" stop-color="#004622"/>
</linearGradient>
<linearGradient id="paint52_linear_14_239" x1="-234.462" y1="805.718" x2="328.646" y2="1092.64" gradientUnits="userSpaceOnUse">
<stop stop-color="#009035"/>
<stop offset="1" stop-color="#004622"/>
</linearGradient>
<linearGradient id="paint53_linear_14_239" x1="-241.164" y1="805.349" x2="297.227" y2="1116.19" gradientUnits="userSpaceOnUse">
<stop stop-color="#009035"/>
<stop offset="1" stop-color="#004622"/>
</linearGradient>
<linearGradient id="paint54_linear_14_239" x1="-247.415" y1="805.841" x2="265.323" y2="1138.82" gradientUnits="userSpaceOnUse">
<stop stop-color="#009035"/>
<stop offset="1" stop-color="#004622"/>
</linearGradient>
<linearGradient id="paint55_linear_14_239" x1="-253.272" y1="807.209" x2="232.996" y2="1160.5" gradientUnits="userSpaceOnUse">
<stop stop-color="#009035"/>
<stop offset="1" stop-color="#004622"/>
</linearGradient>
<linearGradient id="paint56_linear_14_239" x1="-258.793" y1="809.465" x2="200.307" y2="1181.24" gradientUnits="userSpaceOnUse">
<stop stop-color="#009035"/>
<stop offset="1" stop-color="#004622"/>
</linearGradient>
<linearGradient id="paint57_linear_14_239" x1="-264.034" y1="812.616" x2="167.318" y2="1201.01" gradientUnits="userSpaceOnUse">
<stop stop-color="#009035"/>
<stop offset="1" stop-color="#004622"/>
</linearGradient>
<linearGradient id="paint58_linear_14_239" x1="-269.054" y1="816.666" x2="134.09" y2="1219.81" gradientUnits="userSpaceOnUse">
<stop stop-color="#009035"/>
<stop offset="1" stop-color="#004622"/>
</linearGradient>
<linearGradient id="paint59_linear_14_239" x1="-273.908" y1="821.617" x2="100.685" y2="1237.65" gradientUnits="userSpaceOnUse">
<stop stop-color="#009035"/>
<stop offset="1" stop-color="#004622"/>
</linearGradient>
<linearGradient id="paint60_linear_14_239" x1="-278.655" y1="827.465" x2="67.164" y2="1254.52" gradientUnits="userSpaceOnUse">
<stop stop-color="#009035"/>
<stop offset="1" stop-color="#004622"/>
</linearGradient>
<linearGradient id="paint61_linear_14_239" x1="-283.349" y1="834.205" x2="33.5861" y2="1270.43" gradientUnits="userSpaceOnUse">
<stop stop-color="#009035"/>
<stop offset="1" stop-color="#004622"/>
</linearGradient>
<linearGradient id="paint62_linear_14_239" x1="-288.044" y1="841.826" x2="0.0108211" y2="1285.39" gradientUnits="userSpaceOnUse">
<stop stop-color="#009035"/>
<stop offset="1" stop-color="#004622"/>
</linearGradient>
<linearGradient id="paint63_linear_14_239" x1="-292.796" y1="850.317" x2="-33.5048" y2="1299.42" gradientUnits="userSpaceOnUse">
<stop stop-color="#009035"/>
<stop offset="1" stop-color="#004622"/>
</linearGradient>
<linearGradient id="paint64_linear_14_239" x1="-297.656" y1="859.661" x2="-66.9047" y2="1312.54" gradientUnits="userSpaceOnUse">
<stop stop-color="#009035"/>
<stop offset="1" stop-color="#004622"/>
</linearGradient>
<linearGradient id="paint65_linear_14_239" x1="-302.673" y1="869.839" x2="-100.134" y2="1324.75" gradientUnits="userSpaceOnUse">
<stop stop-color="#009035"/>
<stop offset="1" stop-color="#004622"/>
</linearGradient>
<linearGradient id="paint66_linear_14_239" x1="-307.899" y1="880.83" x2="-133.14" y2="1336.09" gradientUnits="userSpaceOnUse">
<stop stop-color="#009035"/>
<stop offset="1" stop-color="#004622"/>
</linearGradient>
<linearGradient id="paint67_linear_14_239" x1="-313.379" y1="892.608" x2="-165.872" y2="1346.59" gradientUnits="userSpaceOnUse">
<stop stop-color="#009035"/>
<stop offset="1" stop-color="#004622"/>
</linearGradient>
<linearGradient id="paint68_linear_14_239" x1="-319.159" y1="905.147" x2="-198.282" y2="1356.27" gradientUnits="userSpaceOnUse">
<stop stop-color="#009035"/>
<stop offset="1" stop-color="#004622"/>
</linearGradient>
</defs>
</svg>
