<svg width="1440" height="900" viewBox="0 0 1440 900" fill="none" xmlns="http://www.w3.org/2000/svg">
<path opacity="0.0144928" d="M1719.98 1343.43C1730.62 1345.88 1741.6 1340.99 1746.9 1331.45L1948.31 968.623C1951.45 962.978 1952.22 956.323 1950.48 950.106L1791.42 383.89C1790.05 379.001 1787.19 374.659 1783.24 371.466L1381.31 46.3966C1374.15 40.6063 1364.35 39.3191 1355.94 43.0642L1024.14 190.792C1015.72 194.537 1010.12 202.682 1009.64 211.877L982.264 728.083C981.995 733.154 983.309 738.184 986.023 742.476L1300.37 1239.55C1303.83 1245.01 1309.29 1248.88 1315.59 1250.33L1719.98 1343.43Z" stroke="url(#paint0_linear_14_381)" stroke-opacity="0.3"/>
<path opacity="0.0289855" d="M1657.47 1358.41C1667.94 1361.38 1679.13 1357.09 1684.92 1347.87L1904.04 998.923C1907.48 993.447 1908.62 986.833 1907.2 980.523L1779.44 411.918C1778.32 406.948 1775.69 402.45 1771.89 399.049L1390.34 56.8475C1383.49 50.7079 1373.78 48.9186 1365.2 52.214L1028.1 181.612C1019.52 184.908 1013.5 192.733 1012.52 201.876L957.948 711.494C957.406 716.558 958.455 721.666 960.951 726.106L1246.48 1234.15C1249.65 1239.79 1254.92 1243.94 1261.14 1245.71L1657.47 1358.41Z" stroke="url(#paint1_linear_14_381)" stroke-opacity="0.3"/>
<path opacity="0.0434783" d="M1594.92 1371.37C1605.2 1374.87 1616.56 1371.18 1622.82 1362.3L1858.76 1028.08C1862.5 1022.79 1863.98 1016.24 1862.9 1009.85L1766.25 440.57C1765.4 435.533 1762.99 430.89 1759.36 427.289L1398.86 69.1865C1392.35 62.7144 1382.76 60.4296 1374.03 63.2675L1032.64 174.189C1023.91 177.027 1017.5 184.511 1016.03 193.577L934.865 695.185C934.049 700.229 934.83 705.401 937.098 709.979L1193.52 1227.35C1196.4 1233.15 1201.46 1237.58 1207.59 1239.66L1594.92 1371.37Z" stroke="url(#paint2_linear_14_381)" stroke-opacity="0.3"/>
<path opacity="0.057971" d="M1532.44 1382.34C1542.51 1386.34 1554.01 1383.26 1560.72 1374.76L1812.54 1056.06C1816.56 1050.98 1818.4 1044.5 1817.65 1038.06L1751.83 469.779C1751.24 464.688 1749.07 459.911 1745.62 456.118L1406.79 83.3705C1400.62 76.5842 1391.18 73.8113 1382.32 76.185L1037.65 168.538C1028.8 170.912 1022 178.035 1020.05 186.996L912.992 679.222C911.902 684.229 912.411 689.453 914.446 694.156L1141.58 1219.21C1144.15 1225.16 1148.99 1229.85 1155.01 1232.25L1532.44 1382.34Z" stroke="url(#paint3_linear_14_381)" stroke-opacity="0.3"/>
<path opacity="0.0724638" d="M1470.16 1391.33C1479.98 1395.83 1491.58 1393.36 1498.73 1385.26L1765.45 1082.83C1769.75 1077.95 1771.93 1071.57 1771.53 1065.09L1736.16 499.473C1735.84 494.342 1733.91 489.442 1730.65 485.467L1414.03 99.3496C1408.22 92.2675 1398.95 89.016 1389.99 90.9202L1043.04 164.667C1034.08 166.571 1026.93 173.313 1024.51 182.145L892.302 663.663C890.941 668.621 891.174 673.881 892.968 678.698L1090.71 1209.8C1092.98 1215.89 1097.57 1220.83 1103.48 1223.53L1470.16 1391.33Z" stroke="url(#paint4_linear_14_381)" stroke-opacity="0.3"/>
<path opacity="0.0869565" d="M1408.16 1398.39C1417.71 1403.36 1429.39 1401.51 1436.94 1393.83L1717.56 1108.33C1722.12 1103.69 1724.65 1097.43 1724.59 1090.92L1719.21 529.579C1719.16 524.422 1717.49 519.412 1714.42 515.263L1420.47 117.069C1415.04 109.711 1405.96 105.991 1396.93 107.421L1048.69 162.577C1039.66 164.008 1032.17 170.351 1029.28 179.027L872.766 648.569C871.135 653.461 871.089 658.744 872.636 663.664L1040.99 1199.2C1042.94 1205.4 1047.28 1210.58 1053.05 1213.58L1408.16 1398.39Z" stroke="url(#paint5_linear_14_381)" stroke-opacity="0.3"/>
<path opacity="0.101449" d="M1346.56 1403.53C1355.82 1408.97 1367.54 1407.73 1375.47 1400.49L1668.95 1132.55C1673.77 1128.16 1676.63 1122.03 1676.91 1115.52L1700.98 560.027C1701.2 554.857 1699.79 549.75 1696.93 545.437L1426.04 136.469C1421 128.855 1412.14 124.678 1403.05 125.633L1054.52 162.265C1045.44 163.22 1037.64 169.148 1034.29 177.644L854.348 633.995C852.45 638.809 852.125 644.099 853.419 649.109L992.456 1187.46C994.085 1193.77 998.161 1199.17 1003.78 1202.47L1346.56 1403.53Z" stroke="url(#paint6_linear_14_381)" stroke-opacity="0.3"/>
<path opacity="0.115942" d="M1285.45 1406.81C1294.4 1412.69 1306.13 1412.07 1314.42 1405.29L1619.69 1155.46C1624.74 1151.33 1627.94 1145.35 1628.56 1138.86L1681.45 590.743C1681.95 585.576 1680.8 580.384 1678.15 575.917L1430.65 157.487C1426 149.638 1417.39 145.017 1408.28 145.494L1060.42 163.724C1051.31 164.202 1043.22 169.698 1039.43 177.99L837.015 619.999C834.853 624.718 834.247 630.003 835.283 635.089L945.176 1174.67C946.478 1181.07 950.278 1186.68 955.733 1190.26L1285.45 1406.81Z" stroke="url(#paint7_linear_14_381)" stroke-opacity="0.3"/>
<path opacity="0.130435" d="M1224.94 1408.26C1233.56 1414.57 1245.26 1414.57 1253.88 1408.26L1569.86 1177.04C1575.14 1173.18 1578.65 1167.38 1579.62 1160.91L1660.62 621.656C1661.4 616.506 1660.51 611.243 1658.09 606.631L1434.21 180.054C1429.98 171.991 1421.62 166.94 1412.52 166.94H1066.3C1057.2 166.94 1048.84 171.991 1044.61 180.054L820.727 606.631C818.306 611.243 817.419 616.506 818.192 621.656L899.195 1160.91C900.166 1167.38 903.68 1173.18 908.955 1177.04L1224.94 1408.26Z" stroke="url(#paint8_linear_14_381)" stroke-opacity="0.3"/>
<path opacity="0.144928" d="M1165.12 1407.95C1173.38 1414.66 1185.03 1415.27 1193.94 1409.46L1519.53 1197.27C1525.02 1193.7 1528.84 1188.08 1530.16 1181.66L1638.49 652.693C1639.54 647.574 1638.92 642.253 1636.73 637.509L1436.65 204.099C1432.84 195.843 1424.77 190.377 1415.69 189.902L1072.07 171.893C1062.99 171.417 1054.39 176.01 1049.74 183.822L805.443 593.943C802.768 598.432 801.6 603.659 802.107 608.86L854.556 1146.26C855.192 1152.77 858.409 1158.76 863.491 1162.89L1165.12 1407.95Z" stroke="url(#paint9_linear_14_381)" stroke-opacity="0.3"/>
<path opacity="0.15942" d="M1106.07 1405.92C1113.96 1413.01 1125.52 1414.23 1134.71 1408.93L1468.78 1216.14C1474.46 1212.86 1478.59 1207.44 1480.25 1201.1L1615.06 683.783C1616.38 678.709 1616.04 673.344 1614.09 668.478L1437.9 229.545C1434.52 221.119 1426.75 215.254 1417.72 214.305L1077.62 178.559C1068.59 177.61 1059.78 181.733 1054.72 189.271L791.12 581.981C788.198 586.334 786.749 591.511 786.988 596.749L811.299 1130.79C811.598 1137.34 814.51 1143.5 819.384 1147.88L1106.07 1405.92Z" stroke="url(#paint10_linear_14_381)" stroke-opacity="0.3"/>
<path opacity="0.173913" d="M1047.9 1402.23C1055.39 1409.69 1066.83 1411.5 1076.26 1406.72L1417.69 1233.63C1423.55 1230.66 1427.97 1225.46 1429.96 1219.2L1590.33 714.852C1591.92 709.838 1591.86 704.443 1590.15 699.467L1437.89 256.312C1434.94 247.738 1427.5 241.492 1418.55 240.074L1082.88 186.909C1073.92 185.491 1064.92 189.133 1059.47 196.376L777.713 570.789C774.549 574.994 772.822 580.105 772.789 585.367L769.458 1114.59C769.417 1121.16 772.015 1127.47 776.669 1132.11L1047.9 1402.23Z" stroke="url(#paint11_linear_14_381)" stroke-opacity="0.3"/>
<path opacity="0.188406" d="M990.667 1396.95C997.753 1404.75 1009.04 1407.15 1018.69 1402.9L1366.32 1249.75C1372.35 1247.1 1377.05 1242.13 1379.37 1235.98L1564.32 745.833C1566.18 740.892 1566.4 735.482 1564.94 730.407L1436.55 284.318C1434.05 275.621 1426.95 269.012 1418.1 267.13L1087.74 196.91C1078.89 195.028 1069.72 198.181 1063.9 205.108L765.171 560.412C761.773 564.454 759.772 569.485 759.465 574.757L729.062 1097.75C728.68 1104.32 730.956 1110.77 735.378 1115.64L990.667 1396.95Z" stroke="url(#paint12_linear_14_381)" stroke-opacity="0.3"/>
<path opacity="0.202899" d="M934.466 1390.14C941.127 1398.27 952.231 1401.25 962.064 1397.54L1314.77 1264.49C1320.94 1262.16 1325.9 1257.45 1328.55 1251.42L1537.03 776.654C1539.16 771.801 1539.66 766.389 1538.46 761.229L1433.84 313.479C1431.79 304.68 1425.05 297.727 1416.32 295.388L1092.14 208.523C1083.41 206.184 1074.1 208.839 1067.92 215.432L753.45 550.887C749.825 554.753 747.552 559.69 746.971 564.958L690.136 1080.35C689.414 1086.9 691.361 1093.47 695.538 1098.57L934.466 1390.14Z" stroke="url(#paint13_linear_14_381)" stroke-opacity="0.3"/>
<path opacity="0.217391" d="M879.366 1381.89C885.588 1390.31 896.479 1393.85 906.466 1390.69L1263.09 1277.86C1269.39 1275.86 1274.61 1271.42 1277.58 1265.52L1508.49 807.248C1510.89 802.498 1511.67 797.098 1510.72 791.865L1429.7 343.707C1428.09 334.83 1421.74 327.553 1413.16 324.765L1095.98 221.706C1087.4 218.918 1077.98 221.071 1071.46 227.31L742.495 542.253C738.653 545.931 736.112 550.759 735.257 556.008L652.699 1062.48C651.637 1069 653.25 1075.67 657.171 1080.98L879.366 1381.89Z" stroke="url(#paint14_linear_14_381)" stroke-opacity="0.3"/>
<path opacity="0.231884" d="M825.434 1372.26C831.205 1380.96 841.854 1385.04 851.964 1382.44L1211.38 1289.85C1217.78 1288.2 1223.24 1284.04 1226.53 1278.3L1478.72 837.546C1481.37 832.912 1482.44 827.54 1481.75 822.245L1424.08 374.91C1422.93 365.978 1416.97 358.398 1408.56 355.171L1099.18 236.41C1090.77 233.183 1081.27 234.828 1074.44 240.696L732.253 534.539C728.203 538.017 725.4 542.722 724.27 547.939L616.764 1044.23C615.364 1050.69 616.636 1057.45 620.292 1062.96L825.434 1372.26Z" stroke="url(#paint15_linear_14_381)" stroke-opacity="0.3"/>
<path opacity="0.246377" d="M772.738 1361.33C778.044 1370.28 788.424 1374.9 798.625 1372.86L1159.69 1300.5C1166.18 1299.2 1171.87 1295.32 1175.46 1289.75L1447.74 867.485C1450.64 862.981 1451.99 857.65 1451.58 852.308L1416.94 406.999C1416.25 398.035 1410.7 390.174 1402.48 386.517L1101.67 252.587C1093.46 248.93 1083.9 250.066 1076.77 255.546L722.672 527.779C718.424 531.045 715.363 535.613 713.96 540.785L582.343 1025.68C580.607 1032.07 581.535 1038.9 584.914 1044.59L772.738 1361.33Z" stroke="url(#paint16_linear_14_381)" stroke-opacity="0.3"/>
<path opacity="0.26087" d="M721.333 1349.19C726.166 1358.36 736.249 1363.5 746.51 1362.02L1108.1 1309.8C1114.66 1308.85 1120.57 1305.28 1124.45 1299.9L1415.58 897C1418.73 892.64 1420.36 887.365 1420.21 881.988L1408.25 439.878C1408.01 430.907 1402.88 422.786 1394.89 418.711L1103.38 270.181C1095.38 266.106 1085.8 266.73 1078.4 271.807L713.694 521.999C709.258 525.041 705.948 529.459 704.272 534.57L549.437 1006.92C547.369 1013.22 547.949 1020.1 551.042 1025.97L721.333 1349.19Z" stroke="url(#paint17_linear_14_381)" stroke-opacity="0.3"/>
<path opacity="0.275362" d="M671.276 1335.92C675.625 1345.29 685.386 1350.92 695.676 1350.01L1056.67 1317.79C1063.3 1317.2 1069.39 1313.94 1073.57 1308.76L1382.27 926.029C1385.66 921.826 1387.57 916.621 1387.69 911.223L1397.98 473.454C1398.19 464.497 1393.5 456.14 1385.74 451.661L1104.23 289.133C1096.48 284.654 1086.89 284.766 1079.24 289.427L705.264 517.222C700.652 520.031 697.098 524.284 695.153 529.322L518.047 988.035C515.652 994.237 515.881 1001.14 518.68 1007.17L671.276 1335.92Z" stroke="url(#paint18_linear_14_381)" stroke-opacity="0.3"/>
<path opacity="0.289855" d="M622.614 1321.61C626.473 1331.15 635.886 1337.26 646.174 1336.91L1005.49 1324.47C1012.15 1324.24 1018.42 1321.31 1022.87 1316.36L1347.85 954.515C1351.47 950.482 1353.65 945.361 1354.05 939.955L1386.11 507.631C1386.77 498.713 1382.52 490.143 1375.02 485.272L1104.17 309.384C1096.67 304.513 1087.11 304.116 1079.24 308.347L697.325 513.47C692.55 516.035 688.76 520.112 686.549 525.061L488.167 969.115C485.451 975.196 485.327 982.12 487.823 988.294L622.614 1321.61Z" stroke="url(#paint19_linear_14_381)" stroke-opacity="0.3"/>
<path opacity="0.304348" d="M575.391 1306.34C578.753 1316.03 587.795 1322.6 598.05 1322.8L954.617 1329.89C961.287 1330.02 967.723 1327.43 972.438 1322.71L1312.35 982.397C1316.2 978.547 1318.65 973.525 1319.33 968.125L1372.6 542.312C1373.71 533.455 1369.92 524.696 1362.7 519.45L1103.13 330.867C1095.91 325.62 1086.41 324.716 1078.33 328.507L689.819 510.76C684.892 513.072 680.875 516.958 678.401 521.805L459.787 950.244C456.755 956.186 456.277 963.109 458.465 969.412L575.391 1306.34Z" stroke="url(#paint20_linear_14_381)" stroke-opacity="0.3"/>
<path opacity="0.318841" d="M529.644 1290.2C532.505 1300.01 541.154 1307.02 551.343 1307.78L904.108 1334.06C910.774 1334.56 917.353 1332.31 922.32 1327.84L1275.82 1009.62C1279.88 1005.97 1282.6 1001.06 1283.55 995.677L1357.47 577.402C1359.02 568.629 1355.68 559.705 1348.76 554.098L1101.06 353.516C1094.14 347.91 1084.71 346.503 1076.45 349.844L682.687 509.106C677.621 511.155 673.386 514.839 670.654 519.571L432.891 931.504C429.55 937.293 428.719 944.196 430.591 950.612L529.644 1290.2Z" stroke="url(#paint21_linear_14_381)" stroke-opacity="0.3"/>
<path opacity="0.333333" d="M485.406 1273.3C487.763 1283.2 495.997 1290.61 506.091 1291.92L854.031 1337.02C860.672 1337.88 867.376 1335.99 872.583 1331.78L1238.29 1036.14C1242.56 1032.69 1245.55 1027.91 1246.77 1022.56L1340.68 612.804C1342.67 604.137 1339.8 595.074 1333.2 589.124L1097.9 377.263C1091.29 371.313 1081.98 369.41 1073.57 372.292L675.871 508.52C670.68 510.298 666.236 513.767 663.252 518.372L407.46 912.98C403.818 918.599 402.634 925.464 404.185 931.978L485.406 1273.3Z" stroke="url(#paint22_linear_14_381)" stroke-opacity="0.3"/>
<path opacity="0.347826" d="M442.705 1255.71C444.554 1265.68 452.354 1273.48 462.324 1275.33L804.445 1338.81C811.041 1340.03 817.851 1338.5 823.285 1334.57L1199.82 1061.9C1204.28 1058.67 1207.53 1054.03 1209.03 1048.72L1322.25 648.422C1324.67 639.883 1322.28 630.705 1316 624.43L1093.61 402.033C1087.33 395.758 1078.15 393.367 1069.61 395.782L669.312 509.008C664.01 510.508 659.368 513.751 656.136 518.214L383.47 894.751C379.536 900.185 378.001 906.994 379.225 913.59L442.705 1255.71Z" stroke="url(#paint23_linear_14_381)" stroke-opacity="0.3"/>
<path opacity="0.362319" d="M401.559 1237.54C402.902 1247.55 410.25 1255.71 420.065 1258.09L755.407 1339.46C761.938 1341.05 768.835 1339.88 774.48 1336.23L1160.45 1086.85C1165.1 1083.85 1168.6 1079.36 1170.37 1074.12L1302.18 684.161C1305.02 675.771 1303.11 666.503 1297.18 659.922L1088.14 427.755C1082.21 421.173 1073.19 418.302 1064.55 420.245L662.95 510.577C657.552 511.791 652.723 514.797 649.251 519.106L360.891 876.897C356.673 882.13 354.791 888.867 355.684 895.528L401.559 1237.54Z" stroke="url(#paint24_linear_14_381)" stroke-opacity="0.3"/>
<path opacity="0.376812" d="M361.987 1218.87C362.823 1228.9 369.702 1237.39 379.333 1240.29L706.97 1339.03C713.418 1340.97 720.381 1340.17 726.223 1336.82L1120.24 1110.96C1125.06 1108.19 1128.8 1103.87 1130.84 1098.71L1280.48 719.927C1283.73 711.707 1282.29 702.376 1276.73 695.507L1081.45 454.352C1075.89 447.483 1067.06 444.143 1058.34 445.61L656.728 513.227C651.248 514.149 646.244 516.908 642.538 521.049L339.69 859.494C335.2 864.512 332.973 871.158 333.533 877.869L361.987 1218.87Z" stroke="url(#paint25_linear_14_381)" stroke-opacity="0.3"/>
<path opacity="0.391304" d="M323.998 1199.81C324.33 1209.82 330.724 1218.62 340.144 1222.03L659.187 1337.54C665.531 1339.83 672.542 1339.41 678.565 1336.37L1079.23 1134.18C1084.21 1131.66 1088.19 1127.52 1090.5 1122.44L1257.16 755.628C1260.81 747.598 1259.86 738.228 1254.67 731.092L1073.51 481.747C1068.33 474.612 1059.71 470.814 1050.95 471.802L650.588 516.956C645.041 517.582 639.874 520.083 635.942 524.045L319.83 842.616C315.078 847.405 312.511 853.943 312.735 860.686L323.998 1199.81Z" stroke="url(#paint26_linear_14_381)" stroke-opacity="0.3"/>
<path opacity="0.405797" d="M287.597 1180.43C287.429 1190.41 293.326 1199.49 302.506 1203.39L612.107 1335.04C618.328 1337.69 625.366 1337.65 631.554 1334.93L1037.48 1156.47C1042.61 1154.21 1046.82 1150.26 1049.39 1145.28L1232.24 791.171C1236.28 783.352 1235.81 773.968 1231.02 766.587L1064.3 509.864C1059.5 502.483 1051.12 498.24 1042.34 498.748L644.471 521.761C638.874 522.084 633.556 524.318 629.407 528.089L301.271 826.335C296.269 830.882 293.367 837.294 293.254 844.053L287.597 1180.43Z" stroke="url(#paint27_linear_14_381)" stroke-opacity="0.3"/>
<path opacity="0.42029" d="M252.783 1160.85C252.12 1170.76 257.507 1180.09 266.422 1184.47L565.774 1331.6C571.853 1334.58 578.898 1334.92 585.235 1332.53L995.048 1177.8C1000.32 1175.81 1004.74 1172.06 1007.57 1167.19L1205.74 826.469C1210.16 818.878 1210.17 809.506 1205.78 801.901L1053.78 538.622C1049.39 531.017 1041.26 526.344 1032.48 526.372L638.321 527.631C632.689 527.65 627.235 529.608 622.877 533.176L283.967 810.719C278.727 815.01 275.497 821.28 275.045 828.039L252.783 1160.85Z" stroke="url(#paint28_linear_14_381)" stroke-opacity="0.3"/>
<path opacity="0.434783" d="M219.552 1141.14C218.4 1150.96 223.267 1160.51 231.891 1165.36L520.232 1327.25C526.15 1330.57 533.182 1331.29 539.65 1329.23L951.993 1198.14C957.385 1196.42 962.018 1192.89 965.105 1188.15L1177.71 861.433C1182.49 854.09 1182.98 844.754 1179 836.947L1041.94 567.942C1037.96 560.136 1030.12 555.048 1021.37 554.597L632.083 534.559C626.432 534.268 620.854 535.942 616.298 539.297L267.87 795.834C262.405 799.858 258.854 805.969 258.063 812.71L219.552 1141.14Z" stroke="url(#paint29_linear_14_381)" stroke-opacity="0.3"/>
<path opacity="0.449275" d="M187.89 1121.4C186.257 1131.11 190.595 1140.85 198.904 1146.14L475.519 1322.04C481.258 1325.69 488.255 1326.79 494.837 1325.08L908.37 1217.46C913.872 1216.03 918.705 1212.72 922.041 1208.12L1148.16 895.979C1153.29 888.901 1154.26 879.626 1150.71 871.641L1028.76 597.745C1025.2 589.76 1017.66 584.274 1008.97 583.348L625.7 542.528C620.047 541.926 614.36 543.309 609.614 546.44L252.928 781.742C247.251 785.487 243.386 791.423 242.258 798.129L187.89 1121.4Z" stroke="url(#paint30_linear_14_381)" stroke-opacity="0.3"/>
<path opacity="0.463768" d="M157.783 1101.72C155.678 1111.29 159.48 1121.19 167.45 1126.9L431.672 1316.04C437.214 1320.01 444.157 1321.49 450.833 1320.12L864.243 1235.74C869.84 1234.59 874.862 1231.53 878.441 1227.08L1117.15 930.026C1122.61 923.229 1124.05 914.04 1120.93 905.899L1014.23 627.952C1011.11 619.811 1003.89 613.945 995.282 612.548L619.12 551.524C613.481 550.609 607.699 551.693 602.775 554.589L239.085 768.502C233.211 771.957 229.042 777.702 227.578 784.357L157.783 1101.72Z" stroke="url(#paint31_linear_14_381)" stroke-opacity="0.3"/>
<path opacity="0.478261" d="M129.209 1082.18C126.642 1091.59 129.904 1101.63 137.513 1107.73L388.723 1309.3C394.049 1313.57 400.917 1315.43 407.671 1314.42L819.672 1252.95C825.349 1252.11 830.549 1249.29 834.364 1245L1084.71 963.494C1090.49 956.994 1092.39 947.915 1089.7 939.642L998.349 658.482C995.661 650.208 988.788 643.981 980.29 642.12L612.289 561.525C606.681 560.297 600.82 561.077 595.729 563.729L226.284 756.169C220.228 759.323 215.763 764.862 213.966 771.45L129.209 1082.18Z" stroke="url(#paint32_linear_14_381)" stroke-opacity="0.3"/>
<path opacity="0.492754" d="M102.144 1062.87C99.1256 1072.1 101.843 1082.24 109.071 1088.72L346.702 1301.87C351.796 1306.44 358.569 1308.67 365.381 1308.02L774.719 1269.09C780.462 1268.55 785.828 1265.99 789.872 1261.88L1050.89 996.308C1056.98 990.12 1059.33 981.175 1057.09 972.793L981.112 689.257C978.866 680.875 972.354 674.307 963.992 671.988L605.158 572.511C599.598 570.97 593.673 571.44 588.426 573.839L214.465 744.795C208.242 747.64 203.492 752.958 201.365 759.462L102.144 1062.87Z" stroke="url(#paint33_linear_14_381)" stroke-opacity="0.3"/>
<path opacity="0.507246" d="M76.5541 1043.87C73.0977 1052.89 75.2685 1063.11 82.0965 1069.95L305.634 1293.81C310.479 1298.66 317.136 1301.26 323.987 1300.98L729.446 1284.14C735.239 1283.9 740.759 1281.61 745.025 1277.68L1015.75 1028.4C1022.12 1022.53 1024.92 1013.75 1023.12 1005.28L962.522 720.198C960.723 711.732 954.589 704.844 946.388 702.077L597.675 584.457C592.181 582.604 586.208 582.759 580.817 584.896L203.563 734.427C197.188 736.953 192.164 742.036 189.712 748.44L76.5541 1043.87Z" stroke="url(#paint34_linear_14_381)" stroke-opacity="0.3"/>
<path opacity="0.521739" d="M52.4064 1025.27C48.5253 1034.06 50.1495 1044.32 56.5593 1051.49L265.54 1285.18C270.121 1290.3 276.642 1293.27 283.514 1293.35L683.916 1298.08C689.744 1298.15 695.405 1296.14 699.884 1292.41L979.334 1059.69C985.968 1054.16 989.204 1045.56 987.854 1037.03L942.588 751.23C941.237 742.704 935.499 735.517 927.483 732.313L589.795 597.336C584.383 595.173 578.377 595.01 572.856 596.876L193.513 725.11C187.003 727.31 181.717 732.144 178.943 738.431L52.4064 1025.27Z" stroke="url(#paint35_linear_14_381)" stroke-opacity="0.3"/>
<path opacity="0.536232" d="M29.6611 1007.13C25.37 1015.68 26.449 1025.95 32.4242 1033.42L226.441 1276.04C230.742 1281.42 237.108 1284.74 243.98 1285.19L638.192 1310.92C644.039 1311.3 649.829 1309.57 654.512 1306.05L941.707 1090.12C948.588 1084.95 952.249 1076.54 951.349 1067.98L921.321 782.276C920.421 773.713 915.092 766.251 907.285 762.621L581.471 611.119C576.158 608.648 570.136 608.164 564.497 609.753L184.248 716.882C177.62 718.75 172.084 723.321 168.995 729.476L29.6611 1007.13Z" stroke="url(#paint36_linear_14_381)" stroke-opacity="0.3"/>
<path opacity="0.550725" d="M8.27501 989.542C3.58952 997.827 4.12664 1008.08 9.65249 1015.83L188.352 1266.45C192.359 1272.07 198.55 1275.74 205.403 1276.56L592.338 1322.65C598.187 1323.34 604.092 1321.91 608.97 1318.61L902.93 1119.63C910.041 1114.82 914.113 1106.64 913.664 1098.06L898.738 813.261C898.288 804.686 893.383 796.973 885.808 792.93L572.66 625.774C567.463 623 561.442 622.191 555.698 623.495L175.699 709.78C168.969 711.308 163.196 715.604 159.798 721.611L8.27501 989.542Z" stroke="url(#paint37_linear_14_381)" stroke-opacity="0.3"/>
<path opacity="0.565217" d="M-11.7999 972.567C-16.8632 980.568 -16.8632 990.77 -11.7999 998.77L151.284 1256.47C154.983 1262.31 160.98 1266.32 167.795 1267.5L546.416 1333.26C552.251 1334.28 558.256 1333.14 563.319 1330.07L863.069 1148.17C870.389 1143.73 874.859 1135.79 874.859 1127.22V844.113C874.859 835.551 870.389 827.61 863.069 823.168L563.319 641.267C558.256 638.195 552.251 637.06 546.416 638.073L167.795 703.834C160.98 705.017 154.983 709.026 151.284 714.871L-11.7999 972.567Z" stroke="url(#paint38_linear_14_381)" stroke-opacity="0.3"/>
<path opacity="0.57971" d="M-30.6145 956.274C-36.038 963.973 -36.5687 974.099 -31.9796 982.323L115.247 1246.15C118.624 1252.2 124.408 1256.54 131.165 1258.09L500.487 1342.78C506.292 1344.11 512.383 1343.28 517.621 1340.45L822.191 1175.67C829.701 1171.61 834.553 1163.93 835 1155.41L849.708 874.762C850.155 866.236 846.131 858.093 839.088 853.268L553.409 657.563C548.496 654.197 542.525 652.736 536.613 653.453L160.462 699.07C153.581 699.905 147.375 703.615 143.383 709.282L-30.6145 956.274Z" stroke="url(#paint39_linear_14_381)" stroke-opacity="0.3"/>
<path opacity="0.594203" d="M-48.2227 940.729C-53.9883 948.11 -55.0417 958.132 -50.9366 966.55L80.244 1235.56C83.2891 1241.8 88.8421 1246.46 95.5211 1248.37L454.614 1351.19C460.372 1352.84 466.534 1352.32 471.936 1349.74L780.368 1202.1C788.046 1198.43 793.266 1191.03 794.156 1182.56L823.315 905.139C824.204 896.674 820.636 888.353 813.89 883.162L542.893 674.625C538.147 670.973 532.227 669.185 526.252 669.601L153.629 695.513C146.698 695.995 140.298 699.397 136.021 704.872L-48.2227 940.729Z" stroke="url(#paint40_linear_14_381)" stroke-opacity="0.3"/>
<path opacity="0.608696" d="M-64.6831 925.99C-70.7716 933.038 -72.338 942.927 -68.7253 951.511L46.2777 1224.75C48.9789 1231.17 54.2833 1236.14 60.8653 1238.41L408.856 1358.52C414.55 1360.49 420.768 1360.29 426.324 1357.96L737.671 1227.41C745.497 1224.13 751.068 1217.03 752.395 1208.65L795.708 935.179C797.036 926.797 793.931 918.325 787.502 912.786L531.736 692.414C527.172 688.482 521.32 686.369 515.298 686.478L147.221 693.18C140.259 693.307 133.68 696.39 129.128 701.659L-64.6831 925.99Z" stroke="url(#paint41_linear_14_381)" stroke-opacity="0.3"/>
<path opacity="0.623188" d="M-80.0556 912.114C-86.4473 918.814 -88.5157 928.545 -85.4017 937.265L13.3469 1213.79C15.6939 1220.36 20.7326 1225.62 27.1984 1228.25L363.274 1364.78C368.887 1367.07 375.147 1367.18 380.843 1365.12L694.175 1251.56C702.128 1248.67 708.032 1241.89 709.791 1233.62L766.926 964.818C768.685 956.542 766.05 947.945 759.957 942.077L519.905 710.888C515.54 706.685 509.773 704.248 503.718 704.048L141.164 692.083C134.189 691.853 127.447 694.609 122.629 699.658L-80.0556 912.114Z" stroke="url(#paint42_linear_14_381)" stroke-opacity="0.3"/>
<path opacity="0.637681" d="M-94.4031 899.153C-101.078 905.493 -103.635 915.039 -101.025 923.866L-18.553 1202.73C-16.5692 1209.44 -11.8127 1214.98 -5.4822 1217.96L317.926 1369.99C323.442 1372.59 329.727 1373.03 335.553 1371.24L649.956 1274.51C658.016 1272.03 664.235 1265.58 666.417 1257.43L737.006 993.995C739.188 985.85 737.029 977.154 731.288 970.977L507.37 730.007C503.221 725.541 497.556 722.783 491.482 722.271L135.385 692.235C128.414 691.647 121.525 694.066 116.453 698.884L-94.4031 899.153Z" stroke="url(#paint43_linear_14_381)" stroke-opacity="0.3"/>
<path opacity="0.652174" d="M-107.792 887.155C-114.729 893.122 -117.762 902.457 -115.658 911.362L-49.431 1191.63C-47.8186 1198.45 -43.36 1204.26 -37.1837 1207.58L272.868 1374.17C278.27 1377.07 284.565 1377.84 290.508 1376.33L605.092 1296.24C613.238 1294.17 619.751 1288.06 622.349 1280.07L705.989 1022.65C708.586 1014.66 706.904 1005.89 701.533 999.427L494.104 749.726C490.185 745.008 484.64 741.932 478.563 741.105L129.806 693.636C122.859 692.691 115.839 694.767 110.524 699.34L-107.792 887.155Z" stroke="url(#paint44_linear_14_381)" stroke-opacity="0.3"/>
<path opacity="0.666667" d="M-120.291 876.162C-127.467 881.747 -130.96 890.847 -129.364 899.799L-79.2975 1180.54C-78.0636 1187.46 -73.918 1193.52 -67.9143 1197.17L228.156 1377.34C233.428 1380.55 239.716 1381.65 245.764 1380.42L559.662 1316.73C567.871 1315.06 574.66 1309.31 577.662 1301.49L673.919 1050.74C676.921 1042.92 675.719 1034.1 670.733 1027.37L480.082 770.001C476.408 765.042 470.999 761.652 464.934 760.509L124.355 696.291C117.449 694.989 110.316 696.715 104.769 701.031L-120.291 876.162Z" stroke="url(#paint45_linear_14_381)" stroke-opacity="0.3"/>
<path opacity="0.681159" d="M-131.967 866.214C-139.362 871.407 -143.299 880.248 -142.209 889.219L-108.166 1169.52C-107.317 1176.51 -103.498 1182.8 -97.6854 1186.78L183.844 1379.53C188.969 1383.03 195.235 1384.47 201.374 1383.53L513.744 1335.94C521.996 1334.68 529.04 1329.31 532.436 1321.69L640.845 1078.2C644.24 1070.57 643.519 1061.74 638.931 1054.77L465.281 790.787C461.868 785.599 456.611 781.9 450.575 780.439L118.958 700.193C112.111 698.536 104.882 699.907 99.1167 703.955L-131.967 866.214Z" stroke="url(#paint46_linear_14_381)" stroke-opacity="0.3"/>
<path opacity="0.695652" d="M-142.894 857.345C-150.485 862.138 -154.848 870.699 -154.263 879.658L-136.055 1158.62C-135.595 1165.67 -132.117 1172.17 -126.513 1176.47L139.983 1380.76C144.944 1384.57 151.172 1386.33 157.39 1385.69L467.417 1353.88C475.692 1353.03 482.97 1348.04 486.746 1340.63L606.814 1104.98C610.59 1097.57 610.348 1088.75 606.172 1081.56L449.681 812.039C446.542 806.633 441.455 802.631 435.462 800.853L113.541 705.336C106.771 703.327 99.464 704.337 93.4928 708.107L-142.894 857.345Z" stroke="url(#paint47_linear_14_381)" stroke-opacity="0.3"/>
<path opacity="0.710145" d="M-153.143 849.586C-160.909 853.972 -165.677 862.231 -165.593 871.149L-162.982 1147.89C-162.916 1154.97 -159.791 1161.67 -154.412 1166.27L96.6239 1381.08C101.405 1385.17 107.577 1387.27 113.861 1386.93L420.763 1370.52C429.039 1370.08 436.529 1365.48 440.673 1358.31L571.88 1131.05C576.023 1123.87 576.258 1115.09 572.503 1107.7L433.265 833.708C430.415 828.098 425.515 823.8 419.581 821.705L108.033 711.706C101.358 709.349 93.9903 709.995 87.8269 713.476L-153.143 849.586Z" stroke="url(#paint48_linear_14_381)" stroke-opacity="0.3"/>
<path opacity="0.724638" d="M-162.789 842.96C-170.705 846.934 -175.86 854.872 -176.271 863.72L-188.971 1137.38C-189.3 1144.47 -186.54 1151.35 -181.404 1156.25L53.8133 1380.52C58.3986 1384.89 64.4992 1387.32 70.8345 1387.29L373.861 1385.87C382.117 1385.83 389.798 1381.64 394.294 1374.71L536.095 1156.36C540.591 1149.43 541.298 1140.71 537.976 1133.15L416.02 855.748C413.471 849.948 408.773 845.361 402.914 842.951L102.363 719.287C95.8007 716.587 88.3902 716.865 82.0485 720.048L-162.789 842.96Z" stroke="url(#paint49_linear_14_381)" stroke-opacity="0.3"/>
<path opacity="0.73913" d="M-171.905 837.489C-179.949 841.047 -185.469 848.644 -186.367 857.395L-214.047 1127.14C-214.773 1134.22 -212.387 1141.26 -207.511 1146.44L11.5973 1379.11C15.9708 1383.75 21.9834 1386.51 28.3567 1386.79L326.791 1399.92C335.006 1400.28 342.855 1396.5 347.688 1389.84L499.516 1180.87C504.35 1174.22 505.523 1165.58 502.641 1157.88L397.934 878.111C395.698 872.136 391.219 867.269 385.451 864.545L96.4615 728.06C90.0294 725.022 82.5945 724.93 76.0889 727.807L-171.905 837.489Z" stroke="url(#paint50_linear_14_381)" stroke-opacity="0.3"/>
<path opacity="0.753623" d="M-180.566 833.189C-188.716 836.328 -194.579 843.567 -195.955 852.192L-238.236 1117.22C-239.359 1124.26 -237.359 1131.44 -232.756 1136.89L-29.9823 1376.9C-25.836 1381.8 -19.928 1384.89 -13.5308 1385.48L279.629 1412.68C287.785 1413.43 295.778 1410.06 300.933 1403.7L462.199 1204.55C467.353 1198.19 468.986 1189.67 466.551 1181.85L378.996 900.749C377.085 894.615 372.842 889.477 367.179 886.442L90.2607 737.999C83.9756 734.63 76.5345 734.166 69.8799 736.729L-180.566 833.189Z" stroke="url(#paint51_linear_14_381)" stroke-opacity="0.3"/>
<path opacity="0.768116" d="M-188.848 830.07C-197.08 832.788 -203.263 839.655 -205.106 848.126L-261.568 1107.65C-263.087 1114.64 -261.48 1121.94 -257.167 1127.64L-70.8846 1373.92C-66.9807 1379.08 -61.1936 1382.49 -54.7866 1383.39L232.456 1424.15C240.531 1425.3 248.647 1422.35 254.105 1416.29L424.203 1227.38C429.66 1221.31 431.744 1212.93 429.76 1205.02L359.201 923.614C357.627 917.338 353.634 911.938 348.093 908.595L83.6954 749.076C77.5742 745.383 70.1452 744.547 63.3568 746.789L-188.848 830.07Z" stroke="url(#paint52_linear_14_381)" stroke-opacity="0.3"/>
<path opacity="0.782609" d="M-196.824 828.14C-205.116 830.437 -211.595 836.916 -213.892 845.208L-284.074 1098.49C-285.987 1105.4 -284.781 1112.79 -280.772 1118.73L-111.071 1370.22C-107.425 1375.62 -101.775 1379.35 -95.3723 1380.58L185.346 1434.36C193.323 1435.89 201.538 1433.36 207.28 1427.62L385.587 1249.31C391.33 1243.57 393.854 1235.35 392.325 1227.38L338.546 946.66C337.32 940.257 333.592 934.608 328.188 930.961L76.7024 761.26C70.7614 757.251 63.3629 756.045 56.456 757.959L-196.824 828.14Z" stroke="url(#paint53_linear_14_381)" stroke-opacity="0.3"/>
<path opacity="0.797101" d="M-204.57 827.4C-212.899 829.278 -219.65 835.356 -222.388 843.443L-305.788 1089.76C-308.092 1096.57 -307.293 1104.04 -303.601 1110.21L-150.508 1365.85C-147.133 1371.48 -141.637 1375.53 -135.253 1377.07L138.376 1443.31C146.234 1445.21 154.525 1443.12 160.534 1437.71L346.412 1270.34C352.421 1264.93 355.373 1256.91 354.303 1248.89L317.029 969.837C316.16 963.326 312.712 957.438 307.46 953.492L69.22 774.516C63.4752 770.2 56.1253 768.624 49.1159 770.204L-204.57 827.4Z" stroke="url(#paint54_linear_14_381)" stroke-opacity="0.3"/>
<path opacity="0.811594" d="M-212.16 827.849C-220.504 829.309 -227.501 834.975 -230.664 842.833L-326.746 1081.51C-329.436 1088.19 -329.049 1095.72 -325.687 1102.09L-189.163 1360.85C-186.074 1366.71 -180.748 1371.06 -174.397 1372.93L91.6173 1451.04C99.3397 1453.31 107.683 1451.64 113.938 1446.57L306.738 1290.44C312.993 1285.38 316.361 1277.57 315.748 1269.54L294.652 993.099C294.148 986.499 290.995 980.383 285.911 976.145L61.1894 788.805C55.6562 784.192 48.3732 782.248 41.2773 783.49L-212.16 827.849Z" stroke="url(#paint55_linear_14_381)" stroke-opacity="0.3"/>
<path opacity="0.826087" d="M-219.666 829.479C-228.002 830.525 -235.22 835.77 -238.791 843.374L-346.984 1073.77C-350.054 1080.3 -350.083 1087.86 -347.063 1094.42L-227.006 1355.28C-224.217 1361.34 -219.077 1366 -212.773 1368.18L45.1424 1457.56C52.7113 1460.19 61.0846 1458.94 67.5653 1454.23L266.627 1309.61C273.107 1304.9 276.877 1297.32 276.721 1289.31L271.418 1016.4C271.289 1009.73 268.444 1003.4 263.542 998.874L52.5553 804.085C47.2486 799.185 40.0506 796.877 32.8844 797.777L-219.666 829.479Z" stroke="url(#paint56_linear_14_381)" stroke-opacity="0.3"/>
<path opacity="0.84058" d="M-227.16 832.278C-235.467 832.915 -242.88 837.73 -246.841 845.059L-366.541 1066.57C-369.984 1072.94 -370.432 1080.5 -367.765 1087.24L-264.012 1349.18C-261.535 1355.43 -256.597 1360.39 -250.354 1362.89L-0.980365 1462.91C6.41829 1465.88 14.7981 1465.06 21.4837 1460.72L226.139 1327.82C232.825 1323.48 236.98 1316.15 237.278 1308.19L247.335 1039.69C247.587 1032.97 245.064 1026.44 240.359 1021.63L43.2642 820.311C38.1985 815.136 31.1034 812.468 23.8834 813.022L-227.16 832.278Z" stroke="url(#paint57_linear_14_381)" stroke-opacity="0.3"/>
<path opacity="0.855072" d="M-234.712 836.233C-242.968 836.466 -250.55 840.844 -254.881 847.877L-385.456 1059.94C-389.263 1066.12 -390.132 1073.67 -387.828 1080.55L-300.156 1342.6C-298.005 1349.03 -293.284 1354.28 -287.117 1357.11L-46.6837 1467.13C-39.4715 1470.43 -31.1078 1470.04 -24.239 1466.07L185.337 1345.07C192.206 1341.1 196.73 1334.06 197.478 1326.16L222.411 1062.93C223.051 1056.18 220.863 1049.46 216.369 1044.38L33.2668 837.436C28.4559 831.998 21.4812 828.975 14.224 829.18L-234.712 836.233Z" stroke="url(#paint58_linear_14_381)" stroke-opacity="0.3"/>
<path opacity="0.869565" d="M-242.392 841.321C-250.576 841.159 -258.301 845.095 -262.98 851.812L-403.772 1053.9C-407.933 1059.87 -409.223 1067.39 -407.292 1074.41L-335.42 1335.6C-333.606 1342.2 -329.118 1347.73 -323.041 1350.87L-91.9052 1470.25C-84.8948 1473.87 -76.5698 1473.89 -69.5396 1470.31L144.281 1361.36C151.311 1357.78 156.186 1351.03 157.377 1343.23L196.658 1086.07C197.69 1079.31 195.85 1072.42 191.582 1067.08L22.5148 855.409C17.9719 849.721 11.1351 846.348 3.85725 846.204L-242.392 841.321Z" stroke="url(#paint59_linear_14_381)" stroke-opacity="0.3"/>
<path opacity="0.884058" d="M-250.265 847.522C-258.357 846.972 -266.198 850.463 -271.204 856.845L-421.528 1048.49C-426.033 1054.23 -427.743 1061.68 -426.192 1068.81L-369.785 1328.23C-368.32 1334.97 -364.08 1340.79 -358.107 1344.24L-136.582 1472.31C-129.788 1476.24 -121.524 1476.67 -114.355 1473.48L103.031 1376.69C110.2 1373.5 115.406 1367.07 117.034 1359.39L170.089 1109.07C171.519 1102.32 170.038 1095.28 166.009 1089.68L10.9663 874.179C6.70386 868.254 0.0219855 864.539 -7.25974 864.044L-250.265 847.522Z" stroke="url(#paint60_linear_14_381)" stroke-opacity="0.3"/>
<path opacity="0.898551" d="M-258.396 854.807C-266.377 853.878 -274.306 856.922 -279.616 862.953L-438.769 1043.72C-443.605 1049.21 -445.732 1056.57 -444.569 1063.8L-403.238 1320.55C-402.132 1327.42 -398.155 1333.5 -392.3 1337.26L-180.658 1473.36C-174.094 1477.58 -165.912 1478.42 -158.627 1475.62L61.6474 1391.07C68.9328 1388.27 74.4502 1382.17 76.5038 1374.64L142.72 1131.89C144.552 1125.17 143.441 1118 139.665 1112.15L-1.41938 893.69C-5.38947 887.543 -11.8997 883.492 -19.1685 882.646L-258.396 854.807Z" stroke="url(#paint61_linear_14_381)" stroke-opacity="0.3"/>
<path opacity="0.913043" d="M-266.848 863.144C-274.699 861.847 -282.69 864.444 -288.28 870.108L-455.537 1039.6C-460.691 1044.82 -463.233 1052.08 -462.463 1059.38L-435.767 1312.6C-435.031 1319.59 -431.332 1325.92 -425.61 1330L-224.077 1473.44C-217.756 1477.94 -209.678 1479.18 -202.299 1476.78L20.1879 1404.49C27.5668 1402.1 33.374 1396.34 35.8432 1388.99L114.57 1154.48C116.805 1147.82 116.075 1140.52 112.565 1134.44L-14.6789 913.886C-18.3457 907.53 -24.6679 903.152 -31.9072 901.956L-266.848 863.144Z" stroke="url(#paint62_linear_14_381)" stroke-opacity="0.3"/>
<path opacity="0.927536" d="M-275.679 872.501C-283.381 870.847 -291.409 872.998 -297.253 878.281L-471.876 1036.16C-477.333 1041.1 -480.285 1048.22 -479.914 1055.57L-467.366 1304.45C-467.009 1311.53 -463.602 1318.11 -458.025 1322.49L-266.789 1472.62C-260.723 1477.38 -252.769 1479.01 -245.319 1477.01L-21.2894 1416.98C-13.8401 1414.99 -7.76546 1409.6 -4.89313 1402.44L85.6581 1176.81C88.2987 1170.23 87.9596 1162.83 84.7284 1156.52L-28.8446 934.708C-32.1976 928.159 -38.3159 923.464 -45.5091 921.92L-275.679 872.501Z" stroke="url(#paint63_linear_14_381)" stroke-opacity="0.3"/>
<path opacity="0.942029" d="M-284.948 882.837C-292.485 880.839 -300.522 882.548 -306.595 887.439L-487.832 1033.41C-493.577 1038.04 -496.931 1045.01 -496.963 1052.39L-498.029 1296.15C-498.061 1303.31 -494.96 1310.12 -489.543 1314.8L-308.747 1470.93C-302.946 1475.94 -295.136 1477.95 -287.639 1476.36L-62.73 1428.55C-55.2335 1426.96 -48.9145 1421.95 -45.653 1415.01L56.006 1198.84C59.052 1192.36 59.1131 1184.87 56.1732 1178.35L-43.9469 956.096C-46.9767 949.37 -52.8758 944.367 -60.0061 942.477L-284.948 882.837Z" stroke="url(#paint64_linear_14_381)" stroke-opacity="0.3"/>
<path opacity="0.956522" d="M-294.707 894.114C-302.061 891.784 -310.083 893.055 -316.358 897.543L-503.446 1031.36C-509.462 1035.66 -513.212 1042.45 -513.65 1049.84L-527.755 1287.75C-528.183 1294.96 -525.403 1302 -520.158 1306.97L-349.904 1468.45C-344.379 1473.69 -336.732 1476.06 -329.212 1474.87L-104.078 1439.21C-96.557 1438.02 -90.0177 1433.4 -86.3826 1426.71L25.639 1220.53C29.0898 1214.17 29.5597 1206.62 26.9231 1199.89L-60.0093 977.989C-62.7073 971.102 -68.3721 965.802 -75.4234 963.569L-294.707 894.114Z" stroke="url(#paint65_linear_14_381)" stroke-opacity="0.3"/>
<path opacity="0.971014" d="M-305.009 906.285C-312.165 903.639 -320.146 904.477 -326.596 908.554L-518.766 1030.01C-525.035 1033.97 -529.172 1040.56 -530.017 1047.93L-556.547 1279.3C-557.379 1286.55 -554.932 1293.8 -549.873 1299.07L-390.224 1465.22C-384.984 1470.68 -377.518 1473.4 -369.996 1472.61L-145.282 1448.99C-137.761 1448.2 -131.025 1443.98 -127.034 1437.56L-5.41907 1241.84C-1.56549 1235.64 -0.678764 1228.04 -3.00055 1221.12L-77.0553 1000.32C-79.4137 993.292 -84.83 987.707 -91.786 985.135L-305.009 906.285Z" stroke="url(#paint66_linear_14_381)" stroke-opacity="0.3"/>
<defs>
<linearGradient id="paint0_linear_14_381" x1="1738.21" y1="1348.14" x2="1139.63" y2="3.71393" gradientUnits="userSpaceOnUse">
<stop stop-color="#009035"/>
<stop offset="1" stop-color="#004622"/>
</linearGradient>
<linearGradient id="paint1_linear_14_381" x1="1675.37" y1="1364.02" x2="1152.63" y2="2.23296" gradientUnits="userSpaceOnUse">
<stop stop-color="#009035"/>
<stop offset="1" stop-color="#004622"/>
</linearGradient>
<linearGradient id="paint2_linear_14_381" x1="1612.45" y1="1377.86" x2="1165.71" y2="2.93764" gradientUnits="userSpaceOnUse">
<stop stop-color="#009035"/>
<stop offset="1" stop-color="#004622"/>
</linearGradient>
<linearGradient id="paint3_linear_14_381" x1="1549.57" y1="1389.68" x2="1178.76" y2="5.81283" gradientUnits="userSpaceOnUse">
<stop stop-color="#009035"/>
<stop offset="1" stop-color="#004622"/>
</linearGradient>
<linearGradient id="paint4_linear_14_381" x1="1486.82" y1="1399.51" x2="1191.65" y2="10.8356" gradientUnits="userSpaceOnUse">
<stop stop-color="#009035"/>
<stop offset="1" stop-color="#004622"/>
</linearGradient>
<linearGradient id="paint5_linear_14_381" x1="1424.33" y1="1407.37" x2="1204.28" y2="17.9765" gradientUnits="userSpaceOnUse">
<stop stop-color="#009035"/>
<stop offset="1" stop-color="#004622"/>
</linearGradient>
<linearGradient id="paint6_linear_14_381" x1="1362.2" y1="1413.29" x2="1216.52" y2="27.2001" gradientUnits="userSpaceOnUse">
<stop stop-color="#009035"/>
<stop offset="1" stop-color="#004622"/>
</linearGradient>
<linearGradient id="paint7_linear_14_381" x1="1300.52" y1="1417.31" x2="1228.26" y2="38.466" gradientUnits="userSpaceOnUse">
<stop stop-color="#009035"/>
<stop offset="1" stop-color="#004622"/>
</linearGradient>
<linearGradient id="paint8_linear_14_381" x1="1239.41" y1="1419.47" x2="1239.41" y2="51.7268" gradientUnits="userSpaceOnUse">
<stop stop-color="#009035"/>
<stop offset="1" stop-color="#004622"/>
</linearGradient>
<linearGradient id="paint9_linear_14_381" x1="1178.95" y1="1419.83" x2="1249.85" y2="66.9298" gradientUnits="userSpaceOnUse">
<stop stop-color="#009035"/>
<stop offset="1" stop-color="#004622"/>
</linearGradient>
<linearGradient id="paint10_linear_14_381" x1="1119.23" y1="1418.43" x2="1259.49" y2="84.0171" gradientUnits="userSpaceOnUse">
<stop stop-color="#009035"/>
<stop offset="1" stop-color="#004622"/>
</linearGradient>
<linearGradient id="paint11_linear_14_381" x1="1060.36" y1="1415.34" x2="1268.23" y2="102.925" gradientUnits="userSpaceOnUse">
<stop stop-color="#009035"/>
<stop offset="1" stop-color="#004622"/>
</linearGradient>
<linearGradient id="paint12_linear_14_381" x1="1002.4" y1="1410.62" x2="1275.97" y2="123.587" gradientUnits="userSpaceOnUse">
<stop stop-color="#009035"/>
<stop offset="1" stop-color="#004622"/>
</linearGradient>
<linearGradient id="paint13_linear_14_381" x1="945.452" y1="1404.34" x2="1282.64" y2="145.929" gradientUnits="userSpaceOnUse">
<stop stop-color="#009035"/>
<stop offset="1" stop-color="#004622"/>
</linearGradient>
<linearGradient id="paint14_linear_14_381" x1="889.579" y1="1396.56" x2="1288.15" y2="169.878" gradientUnits="userSpaceOnUse">
<stop stop-color="#009035"/>
<stop offset="1" stop-color="#004622"/>
</linearGradient>
<linearGradient id="paint15_linear_14_381" x1="834.854" y1="1387.36" x2="1292.43" y2="195.349" gradientUnits="userSpaceOnUse">
<stop stop-color="#009035"/>
<stop offset="1" stop-color="#004622"/>
</linearGradient>
<linearGradient id="paint16_linear_14_381" x1="781.347" y1="1376.83" x2="1295.39" y2="222.261" gradientUnits="userSpaceOnUse">
<stop stop-color="#009035"/>
<stop offset="1" stop-color="#004622"/>
</linearGradient>
<linearGradient id="paint17_linear_14_381" x1="729.116" y1="1365.04" x2="1296.99" y2="250.526" gradientUnits="userSpaceOnUse">
<stop stop-color="#009035"/>
<stop offset="1" stop-color="#004622"/>
</linearGradient>
<linearGradient id="paint18_linear_14_381" x1="678.22" y1="1352.07" x2="1297.15" y2="280.054" gradientUnits="userSpaceOnUse">
<stop stop-color="#009035"/>
<stop offset="1" stop-color="#004622"/>
</linearGradient>
<linearGradient id="paint19_linear_14_381" x1="628.709" y1="1338.01" x2="1295.82" y2="310.752" gradientUnits="userSpaceOnUse">
<stop stop-color="#009035"/>
<stop offset="1" stop-color="#004622"/>
</linearGradient>
<linearGradient id="paint20_linear_14_381" x1="580.628" y1="1322.95" x2="1292.95" y2="342.525" gradientUnits="userSpaceOnUse">
<stop stop-color="#009035"/>
<stop offset="1" stop-color="#004622"/>
</linearGradient>
<linearGradient id="paint21_linear_14_381" x1="534.018" y1="1306.99" x2="1288.5" y2="375.276" gradientUnits="userSpaceOnUse">
<stop stop-color="#009035"/>
<stop offset="1" stop-color="#004622"/>
</linearGradient>
<linearGradient id="paint22_linear_14_381" x1="488.914" y1="1290.2" x2="1282.43" y2="408.907" gradientUnits="userSpaceOnUse">
<stop stop-color="#009035"/>
<stop offset="1" stop-color="#004622"/>
</linearGradient>
<linearGradient id="paint23_linear_14_381" x1="445.346" y1="1272.69" x2="1274.72" y2="443.318" gradientUnits="userSpaceOnUse">
<stop stop-color="#009035"/>
<stop offset="1" stop-color="#004622"/>
</linearGradient>
<linearGradient id="paint24_linear_14_381" x1="403.336" y1="1254.55" x2="1265.32" y2="478.409" gradientUnits="userSpaceOnUse">
<stop stop-color="#009035"/>
<stop offset="1" stop-color="#004622"/>
</linearGradient>
<linearGradient id="paint25_linear_14_381" x1="362.903" y1="1235.86" x2="1254.24" y2="514.078" gradientUnits="userSpaceOnUse">
<stop stop-color="#009035"/>
<stop offset="1" stop-color="#004622"/>
</linearGradient>
<linearGradient id="paint26_linear_14_381" x1="324.06" y1="1216.74" x2="1241.44" y2="550.225" gradientUnits="userSpaceOnUse">
<stop stop-color="#009035"/>
<stop offset="1" stop-color="#004622"/>
</linearGradient>
<linearGradient id="paint27_linear_14_381" x1="286.814" y1="1197.26" x2="1226.92" y2="586.749" gradientUnits="userSpaceOnUse">
<stop stop-color="#009035"/>
<stop offset="1" stop-color="#004622"/>
</linearGradient>
<linearGradient id="paint28_linear_14_381" x1="251.166" y1="1177.53" x2="1210.69" y2="623.549" gradientUnits="userSpaceOnUse">
<stop stop-color="#009035"/>
<stop offset="1" stop-color="#004622"/>
</linearGradient>
<linearGradient id="paint29_linear_14_381" x1="217.114" y1="1157.63" x2="1192.74" y2="660.525" gradientUnits="userSpaceOnUse">
<stop stop-color="#009035"/>
<stop offset="1" stop-color="#004622"/>
</linearGradient>
<linearGradient id="paint30_linear_14_381" x1="184.648" y1="1137.66" x2="1173.09" y2="697.58" gradientUnits="userSpaceOnUse">
<stop stop-color="#009035"/>
<stop offset="1" stop-color="#004622"/>
</linearGradient>
<linearGradient id="paint31_linear_14_381" x1="153.754" y1="1117.71" x2="1151.75" y2="734.616" gradientUnits="userSpaceOnUse">
<stop stop-color="#009035"/>
<stop offset="1" stop-color="#004622"/>
</linearGradient>
<linearGradient id="paint32_linear_14_381" x1="124.412" y1="1097.86" x2="1128.74" y2="771.539" gradientUnits="userSpaceOnUse">
<stop stop-color="#009035"/>
<stop offset="1" stop-color="#004622"/>
</linearGradient>
<linearGradient id="paint33_linear_14_381" x1="96.6011" y1="1078.21" x2="1104.08" y2="808.255" gradientUnits="userSpaceOnUse">
<stop stop-color="#009035"/>
<stop offset="1" stop-color="#004622"/>
</linearGradient>
<linearGradient id="paint34_linear_14_381" x1="70.2894" y1="1058.83" x2="1077.81" y2="844.673" gradientUnits="userSpaceOnUse">
<stop stop-color="#009035"/>
<stop offset="1" stop-color="#004622"/>
</linearGradient>
<linearGradient id="paint35_linear_14_381" x1="45.4449" y1="1039.81" x2="1049.96" y2="880.708" gradientUnits="userSpaceOnUse">
<stop stop-color="#009035"/>
<stop offset="1" stop-color="#004622"/>
</linearGradient>
<linearGradient id="paint36_linear_14_381" x1="22.0299" y1="1021.22" x2="1020.58" y2="916.273" gradientUnits="userSpaceOnUse">
<stop stop-color="#009035"/>
<stop offset="1" stop-color="#004622"/>
</linearGradient>
<linearGradient id="paint37_linear_14_381" x1="0.0027591" y1="1003.15" x2="989.707" y2="951.285" gradientUnits="userSpaceOnUse">
<stop stop-color="#009035"/>
<stop offset="1" stop-color="#004622"/>
</linearGradient>
<linearGradient id="paint38_linear_14_381" x1="-20.6831" y1="985.669" x2="957.39" y2="985.669" gradientUnits="userSpaceOnUse">
<stop stop-color="#009035"/>
<stop offset="1" stop-color="#004622"/>
</linearGradient>
<linearGradient id="paint39_linear_14_381" x1="-40.0771" y1="968.839" x2="923.685" y2="1019.35" gradientUnits="userSpaceOnUse">
<stop stop-color="#009035"/>
<stop offset="1" stop-color="#004622"/>
</linearGradient>
<linearGradient id="paint40_linear_14_381" x1="-58.232" y1="952.73" x2="888.648" y2="1052.25" gradientUnits="userSpaceOnUse">
<stop stop-color="#009035"/>
<stop offset="1" stop-color="#004622"/>
</linearGradient>
<linearGradient id="paint41_linear_14_381" x1="-75.2051" y1="937.404" x2="852.339" y2="1084.31" gradientUnits="userSpaceOnUse">
<stop stop-color="#009035"/>
<stop offset="1" stop-color="#004622"/>
</linearGradient>
<linearGradient id="paint42_linear_14_381" x1="-91.0554" y1="922.92" x2="814.824" y2="1115.47" gradientUnits="userSpaceOnUse">
<stop stop-color="#009035"/>
<stop offset="1" stop-color="#004622"/>
</linearGradient>
<linearGradient id="paint43_linear_14_381" x1="-105.845" y1="909.331" x2="776.169" y2="1145.67" gradientUnits="userSpaceOnUse">
<stop stop-color="#009035"/>
<stop offset="1" stop-color="#004622"/>
</linearGradient>
<linearGradient id="paint44_linear_14_381" x1="-119.639" y1="896.687" x2="736.444" y2="1174.85" gradientUnits="userSpaceOnUse">
<stop stop-color="#009035"/>
<stop offset="1" stop-color="#004622"/>
</linearGradient>
<linearGradient id="paint45_linear_14_381" x1="-132.505" y1="885.033" x2="695.721" y2="1202.96" gradientUnits="userSpaceOnUse">
<stop stop-color="#009035"/>
<stop offset="1" stop-color="#004622"/>
</linearGradient>
<linearGradient id="paint46_linear_14_381" x1="-144.511" y1="874.411" x2="654.075" y2="1229.96" gradientUnits="userSpaceOnUse">
<stop stop-color="#009035"/>
<stop offset="1" stop-color="#004622"/>
</linearGradient>
<linearGradient id="paint47_linear_14_381" x1="-155.73" y1="864.858" x2="611.58" y2="1255.82" gradientUnits="userSpaceOnUse">
<stop stop-color="#009035"/>
<stop offset="1" stop-color="#004622"/>
</linearGradient>
<linearGradient id="paint48_linear_14_381" x1="-166.232" y1="856.405" x2="568.316" y2="1280.5" gradientUnits="userSpaceOnUse">
<stop stop-color="#009035"/>
<stop offset="1" stop-color="#004622"/>
</linearGradient>
<linearGradient id="paint49_linear_14_381" x1="-176.092" y1="849.079" x2="524.361" y2="1303.96" gradientUnits="userSpaceOnUse">
<stop stop-color="#009035"/>
<stop offset="1" stop-color="#004622"/>
</linearGradient>
<linearGradient id="paint50_linear_14_381" x1="-185.382" y1="842.903" x2="479.795" y2="1326.18" gradientUnits="userSpaceOnUse">
<stop stop-color="#009035"/>
<stop offset="1" stop-color="#004622"/>
</linearGradient>
<linearGradient id="paint51_linear_14_381" x1="-194.18" y1="837.896" x2="434.699" y2="1347.15" gradientUnits="userSpaceOnUse">
<stop stop-color="#009035"/>
<stop offset="1" stop-color="#004622"/>
</linearGradient>
<linearGradient id="paint52_linear_14_381" x1="-202.56" y1="834.071" x2="389.152" y2="1366.85" gradientUnits="userSpaceOnUse">
<stop stop-color="#009035"/>
<stop offset="1" stop-color="#004622"/>
</linearGradient>
<linearGradient id="paint53_linear_14_381" x1="-210.595" y1="831.437" x2="343.238" y2="1385.27" gradientUnits="userSpaceOnUse">
<stop stop-color="#009035"/>
<stop offset="1" stop-color="#004622"/>
</linearGradient>
<linearGradient id="paint54_linear_14_381" x1="-218.363" y1="829.997" x2="297.034" y2="1402.4" gradientUnits="userSpaceOnUse">
<stop stop-color="#009035"/>
<stop offset="1" stop-color="#004622"/>
</linearGradient>
<linearGradient id="paint55_linear_14_381" x1="-225.937" y1="829.753" x2="250.622" y2="1418.25" gradientUnits="userSpaceOnUse">
<stop stop-color="#009035"/>
<stop offset="1" stop-color="#004622"/>
</linearGradient>
<linearGradient id="paint56_linear_14_381" x1="-233.391" y1="830.698" x2="204.081" y2="1432.83" gradientUnits="userSpaceOnUse">
<stop stop-color="#009035"/>
<stop offset="1" stop-color="#004622"/>
</linearGradient>
<linearGradient id="paint57_linear_14_381" x1="-240.797" y1="832.823" x2="157.488" y2="1446.13" gradientUnits="userSpaceOnUse">
<stop stop-color="#009035"/>
<stop offset="1" stop-color="#004622"/>
</linearGradient>
<linearGradient id="paint58_linear_14_381" x1="-248.226" y1="836.115" x2="110.921" y2="1458.18" gradientUnits="userSpaceOnUse">
<stop stop-color="#009035"/>
<stop offset="1" stop-color="#004622"/>
</linearGradient>
<linearGradient id="paint59_linear_14_381" x1="-255.748" y1="840.556" x2="64.4529" y2="1468.99" gradientUnits="userSpaceOnUse">
<stop stop-color="#009035"/>
<stop offset="1" stop-color="#004622"/>
</linearGradient>
<linearGradient id="paint60_linear_14_381" x1="-263.431" y1="846.126" x2="18.1584" y2="1478.59" gradientUnits="userSpaceOnUse">
<stop stop-color="#009035"/>
<stop offset="1" stop-color="#004622"/>
</linearGradient>
<linearGradient id="paint61_linear_14_381" x1="-271.341" y1="852.797" x2="-27.8924" y2="1487" gradientUnits="userSpaceOnUse">
<stop stop-color="#009035"/>
<stop offset="1" stop-color="#004622"/>
</linearGradient>
<linearGradient id="paint62_linear_14_381" x1="-279.541" y1="860.541" x2="-73.6314" y2="1494.26" gradientUnits="userSpaceOnUse">
<stop stop-color="#009035"/>
<stop offset="1" stop-color="#004622"/>
</linearGradient>
<linearGradient id="paint63_linear_14_381" x1="-288.091" y1="869.324" x2="-118.993" y2="1500.41" gradientUnits="userSpaceOnUse">
<stop stop-color="#009035"/>
<stop offset="1" stop-color="#004622"/>
</linearGradient>
<linearGradient id="paint64_linear_14_381" x1="-297.052" y1="879.111" x2="-163.914" y2="1505.48" gradientUnits="userSpaceOnUse">
<stop stop-color="#009035"/>
<stop offset="1" stop-color="#004622"/>
</linearGradient>
<linearGradient id="paint65_linear_14_381" x1="-306.478" y1="889.861" x2="-208.335" y2="1509.51" gradientUnits="userSpaceOnUse">
<stop stop-color="#009035"/>
<stop offset="1" stop-color="#004622"/>
</linearGradient>
<linearGradient id="paint66_linear_14_381" x1="-316.421" y1="901.532" x2="-252.201" y2="1512.55" gradientUnits="userSpaceOnUse">
<stop stop-color="#009035"/>
<stop offset="1" stop-color="#004622"/>
</linearGradient>
</defs>
</svg>
