<svg width="563" height="702" viewBox="0 0 563 702" fill="none" xmlns="http://www.w3.org/2000/svg">
<path opacity="0.0144928" d="M343.855 605.743C354.767 605.355 364.105 597.793 366.753 587.2L401.225 449.304C402.791 443.04 401.821 436.41 398.525 430.857L288.495 245.476C285.903 241.109 282.018 237.656 277.378 235.593L108.296 160.437C99.8818 156.697 90.0815 157.991 82.9259 163.785L-11.2965 240.085C-18.4521 245.879 -21.7547 255.197 -19.8459 264.204L18.5136 445.217C19.5663 450.185 22.1368 454.703 25.8694 458.146L184.323 604.315C189.069 608.693 195.352 611.021 201.805 610.791L343.855 605.743Z" stroke="url(#paint0_linear_14_168)" stroke-opacity="0.3"/>
<path opacity="0.0289855" d="M322.112 616.974C333.001 617.14 342.692 610.099 345.899 599.692L387.433 464.91C389.337 458.73 388.721 452.048 385.719 446.32L286.603 257.237C284.238 252.726 280.526 249.064 275.983 246.761L112.467 163.849C104.266 159.691 94.4262 160.475 86.9868 165.88L-10.4595 236.679C-17.8989 242.084 -21.6852 251.199 -20.2646 260.285L8.05961 441.418C8.84651 446.451 11.1823 451.113 14.742 454.756L163.942 607.451C168.461 612.076 174.626 614.727 181.092 614.825L322.112 616.974Z" stroke="url(#paint1_linear_14_168)" stroke-opacity="0.3"/>
<path opacity="0.0434783" d="M300.186 627.464C311.023 628.18 321.038 621.676 324.791 611.485L373.156 480.175C375.395 474.098 375.136 467.382 372.436 461.495L284.317 269.34C282.187 264.696 278.659 260.834 274.226 258.294L116.621 168.001C108.653 163.436 98.8006 163.71 91.0986 168.712L-9.25624 233.883C-16.9582 238.885 -21.2162 247.774 -20.2868 256.91L-1.90342 437.615C-1.38635 442.698 0.706762 447.492 4.08306 451.326L143.784 609.983C148.064 614.844 154.094 617.812 160.557 618.239L300.186 627.464Z" stroke="url(#paint2_linear_14_168)" stroke-opacity="0.3"/>
<path opacity="0.057971" d="M278.119 637.211C288.876 638.472 299.184 632.52 303.471 622.574L358.417 495.077C360.984 489.121 361.085 482.389 358.696 476.359L281.621 281.76C279.734 276.996 276.4 272.943 272.089 270.172L120.716 172.885C113.001 167.926 103.163 167.692 95.2202 172.278L-7.72378 231.712C-15.6663 236.298 -20.3826 244.936 -19.946 254.096L-11.3792 433.833C-11.1353 438.952 -9.29218 443.865 -6.10938 447.882L123.88 611.93C127.909 617.013 133.788 620.292 140.23 621.047L278.119 637.211Z" stroke="url(#paint3_linear_14_168)" stroke-opacity="0.3"/>
<path opacity="0.0724638" d="M255.953 646.213C266.602 648.012 277.174 642.626 281.978 632.952L343.239 509.595C346.129 503.776 346.589 497.049 344.52 490.892L278.501 294.475C276.863 289.602 273.734 285.367 269.556 282.371L124.713 178.492C117.27 173.154 107.472 172.413 99.3116 176.571L-5.89869 230.179C-14.0592 234.336 -19.2191 242.699 -19.2754 251.857L-20.3721 430.097C-20.4037 435.238 -18.8174 440.258 -15.8378 444.448L104.262 613.309C108.027 618.603 113.74 622.184 120.146 623.267L255.953 646.213Z" stroke="url(#paint4_linear_14_168)" stroke-opacity="0.3"/>
<path opacity="0.0869565" d="M233.73 654.472C244.245 656.802 255.048 651.992 260.353 642.619L327.648 523.708C330.852 518.045 331.673 511.341 329.929 505.073L274.943 307.457C273.561 302.488 270.646 298.083 266.613 294.868L128.571 184.809C121.42 179.107 111.688 177.864 103.333 181.584L-3.81883 229.291C-12.1741 233.011 -17.7617 241.075 -18.3098 250.204L-28.8884 426.434C-29.1974 431.582 -27.874 436.696 -25.1067 441.048L84.9584 614.141C88.4495 619.631 93.9808 623.507 100.333 624.915L233.73 654.472Z" stroke="url(#paint5_linear_14_168)" stroke-opacity="0.3"/>
<path opacity="0.101449" d="M211.492 661.992C221.845 664.843 232.849 660.619 238.635 651.573L311.667 537.398C315.178 531.909 316.358 525.247 314.945 518.886L270.936 320.682C269.814 315.631 267.123 311.064 263.246 307.637L132.252 191.822C125.41 185.773 115.771 184.032 107.244 187.305L-1.52177 229.056C-10.0482 232.329 -16.0464 240.073 -17.0833 249.147L-36.9356 422.866C-37.523 428.007 -36.468 433.201 -33.9217 437.706L65.9973 614.448C69.2041 620.12 74.5385 624.282 80.8209 626.011L211.492 661.992Z" stroke="url(#paint6_linear_14_168)" stroke-opacity="0.3"/>
<path opacity="0.115942" d="M189.279 668.78C199.445 672.142 210.616 668.512 216.865 659.817L295.323 550.649C299.132 545.349 300.669 538.749 299.593 532.312L266.469 334.123C265.613 329.003 263.153 324.287 259.444 320.656L135.72 199.517C129.204 193.136 119.682 190.904 111.009 193.722L0.955037 229.48C-7.71854 232.299 -14.1089 239.701 -15.6306 248.693L-44.5219 419.42C-45.388 424.538 -44.6062 429.799 -42.289 434.444L47.4054 614.253C50.3187 620.093 55.4416 624.529 61.6381 626.578L189.279 668.78Z" stroke="url(#paint7_linear_14_168)" stroke-opacity="0.3"/>
<path opacity="0.130435" d="M167.132 674.845C177.086 678.704 188.392 675.674 195.082 667.355L278.644 563.446C282.74 558.352 284.631 551.832 283.896 545.337L261.533 347.754C260.948 342.579 258.728 337.725 255.197 333.897L138.938 207.873C132.763 201.18 123.385 198.463 114.589 200.82L3.57385 230.567C-5.22242 232.924 -11.9856 239.965 -13.9864 248.849L-51.6575 416.118C-52.8018 421.199 -52.2972 426.512 -50.2168 431.287L29.2079 613.58C31.8189 619.573 36.7164 624.274 42.811 626.637L167.132 674.845Z" stroke="url(#paint8_linear_14_168)" stroke-opacity="0.3"/>
<path opacity="0.144928" d="M145.09 680.196C154.806 684.54 166.216 682.115 173.325 674.194L261.656 575.775C266.029 570.902 268.27 564.482 267.879 557.946L256.122 361.547C255.81 356.331 253.838 351.351 250.494 347.335L141.871 216.872C136.053 209.884 126.844 206.693 117.949 208.584L6.29731 232.316C-2.59695 234.207 -9.71259 240.868 -12.1855 249.618L-58.3532 412.983C-59.7743 418.012 -59.5503 423.363 -57.7139 428.255L11.4283 612.456C13.7292 618.586 18.3877 623.54 24.3646 626.212L145.09 680.196Z" stroke="url(#paint9_linear_14_168)" stroke-opacity="0.3"/>
<path opacity="0.15942" d="M123.192 684.847C132.646 689.662 144.126 687.844 151.63 680.342L244.388 587.623C249.026 582.987 251.611 576.685 251.566 570.127L250.23 375.477C250.194 370.233 248.476 365.14 245.33 360.945L144.487 226.492C139.04 219.228 130.022 215.573 121.055 216.993L9.0882 234.727C0.120866 236.147 -7.32582 242.41 -10.2623 251.001L-64.6213 410.036C-66.3172 414.998 -66.3765 420.373 -64.7904 425.371L-5.91142 610.908C-3.9278 617.159 0.478909 622.353 6.32263 625.329L123.192 684.847Z" stroke="url(#paint10_linear_14_168)" stroke-opacity="0.3"/>
<path opacity="0.173913" d="M101.474 688.812C110.644 694.082 122.162 692.872 130.037 685.81L226.867 598.982C231.757 594.597 234.682 588.431 234.984 581.87L243.851 389.514C244.094 384.258 242.637 379.063 239.698 374.699L146.753 236.708C141.689 229.19 132.887 225.082 123.872 226.029L11.9097 237.797C2.89436 238.745 -4.86103 244.593 -8.25135 253L-70.475 407.3C-72.4429 412.18 -72.7874 417.564 -71.4576 422.655L-22.7911 608.963C-21.131 615.318 -16.9884 620.741 -11.2931 624.014L101.474 688.812Z" stroke="url(#paint11_linear_14_168)" stroke-opacity="0.3"/>
<path opacity="0.188406" d="M79.9722 692.109C88.837 697.817 100.359 697.213 108.579 690.61L209.122 609.842C214.251 605.721 217.507 599.711 218.158 593.163L236.985 403.633C237.507 398.378 236.317 393.096 233.593 388.572L148.639 247.497C143.97 239.744 135.407 235.196 126.369 235.669L14.7256 241.52C5.68733 241.994 -2.35362 247.412 -6.18661 255.611L-75.9287 404.794C-78.165 409.577 -78.796 414.955 -77.7276 420.126L-39.1923 606.65C-37.8611 613.094 -33.9942 618.731 -28.4621 622.293L79.9722 692.109Z" stroke="url(#paint12_linear_14_168)" stroke-opacity="0.3"/>
<path opacity="0.202899" d="M58.7226 694.757C67.2606 700.885 78.7556 700.885 87.2935 694.757L191.182 620.195C196.536 616.352 200.116 610.515 201.114 604L229.629 417.805C230.432 412.567 229.514 407.21 227.014 402.537L150.117 258.831C145.854 250.864 137.552 245.89 128.516 245.89L17.5006 245.89C8.46448 245.89 0.161948 250.864 -4.10125 258.831L-80.9974 402.537C-83.4976 407.21 -84.4155 412.567 -83.6132 417.805L-55.0978 604C-54.1001 610.515 -50.5198 616.352 -45.1656 620.195L58.7226 694.757Z" stroke="url(#paint13_linear_14_168)" stroke-opacity="0.3"/>
<path opacity="0.217391" d="M37.7583 696.775C45.9493 703.304 57.3849 703.904 66.2136 698.267L173.076 630.038C178.64 626.485 182.535 620.837 183.879 614.373L221.785 432.003C222.867 426.796 222.226 421.378 219.957 416.567L151.16 270.683C147.312 262.524 139.292 257.139 130.283 256.667L20.1995 250.898C11.1906 250.425 2.65114 254.942 -2.02854 262.655L-85.6976 400.549C-88.4565 405.096 -89.6609 410.417 -89.1288 415.709L-70.493 601.042C-69.8325 607.611 -66.5491 613.635 -61.3867 617.75L37.7583 696.775Z" stroke="url(#paint14_linear_14_168)" stroke-opacity="0.3"/>
<path opacity="0.231884" d="M17.111 698.187C24.9363 705.097 36.2808 706.289 45.3718 701.157L154.832 639.364C160.591 636.114 164.791 630.673 166.478 624.278L213.453 446.201C214.815 441.039 214.453 435.574 212.424 430.637L151.743 283.023C148.319 274.693 140.601 268.914 131.644 267.972L22.7884 256.531C13.8316 255.59 5.08043 259.638 -0.000770979 267.074L-90.0462 398.846C-93.058 403.254 -94.5479 408.524 -94.2892 413.856L-85.3647 597.809C-85.0442 604.414 -82.0672 610.609 -77.1102 614.986L17.111 698.187Z" stroke="url(#paint15_linear_14_168)" stroke-opacity="0.3"/>
<path opacity="0.246377" d="M-3.1886 699.015C4.25337 706.286 15.4756 708.063 24.8 703.448L136.481 648.174C142.418 645.236 146.912 640.018 148.939 633.711L204.638 460.371C206.277 455.27 206.199 449.772 204.415 444.719L151.843 295.821C148.849 287.343 141.453 281.186 132.573 279.779L25.2342 262.779C16.3542 261.372 7.41719 264.942 1.9506 272.08L-94.061 397.445C-97.319 401.699 -99.0925 406.904 -99.11 412.262L-99.7015 594.331C-99.7231 600.955 -97.0611 607.306 -92.3227 611.935L-3.1886 699.015Z" stroke="url(#paint16_linear_14_168)" stroke-opacity="0.3"/>
<path opacity="0.26087" d="M-23.1116 699.286C-16.0695 706.896 -5.00018 709.249 4.52804 705.161L118.05 656.466C124.148 653.85 128.925 648.872 131.287 642.67L195.344 474.488C197.259 469.461 197.466 463.945 195.934 458.789L151.438 309.045C148.881 300.442 141.825 293.925 133.046 292.059L27.505 269.625C18.7261 267.759 9.62955 270.843 3.79487 277.663L-97.7608 396.362C-101.257 400.449 -103.312 405.573 -103.608 410.943L-113.494 590.641C-113.859 597.267 -111.52 603.757 -107.012 608.627L-23.1116 699.286Z" stroke="url(#paint17_linear_14_168)" stroke-opacity="0.3"/>
<path opacity="0.275362" d="M-42.6311 699.027C-36.0042 706.952 -25.1176 709.869 -15.4157 706.319L99.5671 664.241C105.81 661.956 110.856 657.233 113.549 651.154L185.578 488.524C187.765 483.587 188.259 478.066 186.984 472.819L150.509 322.663C148.394 313.957 141.696 307.1 133.042 304.781L29.5695 277.055C20.9157 274.737 11.6864 277.326 5.50202 283.808L-101.165 395.61C-104.892 399.516 -107.224 404.545 -107.799 409.914L-126.735 586.77C-127.443 593.38 -125.434 599.994 -121.17 605.094L-42.6311 699.027Z" stroke="url(#paint18_linear_14_168)" stroke-opacity="0.3"/>
<path opacity="0.289855" d="M-61.7215 698.264C-55.5238 706.483 -44.8492 709.952 -35.0041 706.945L81.0617 671.501C87.4309 669.556 92.734 665.102 95.7498 659.164L175.347 502.455C177.802 497.622 178.584 492.111 177.572 486.786L149.039 336.641C147.37 327.856 141.046 320.678 132.541 317.914L31.3982 285.051C22.8932 282.287 13.5581 284.377 7.04343 290.504L-104.293 395.202C-108.242 398.916 -110.848 403.834 -111.703 409.187L-139.419 582.753C-140.469 589.33 -138.797 596.05 -134.787 601.367L-61.7215 698.264Z" stroke="url(#paint19_linear_14_168)" stroke-opacity="0.3"/>
<path opacity="0.304348" d="M-80.3591 697.028C-74.6033 705.517 -64.1691 709.522 -54.2115 707.065L62.5611 678.251C69.0385 676.652 74.5839 672.482 77.9164 666.702L164.66 516.256C167.378 511.541 168.45 506.055 167.705 500.664L147.014 350.946C145.792 342.104 139.858 334.626 131.525 331.427L32.9629 293.593C24.6297 290.394 15.2161 291.98 8.39154 297.734L-107.166 395.151C-111.327 398.659 -114.201 403.452 -115.336 408.775L-151.541 578.621C-152.932 585.146 -151.602 591.957 -147.858 597.479L-80.3591 697.028Z" stroke="url(#paint20_linear_14_168)" stroke-opacity="0.3"/>
<path opacity="0.318841" d="M-98.5226 695.349C-93.2201 704.083 -83.0536 708.61 -73.0146 706.706L44.0925 684.496C50.6593 683.25 56.4322 679.376 60.0732 673.771L153.528 529.902C156.505 525.319 157.864 519.873 157.39 514.429L144.419 365.542C143.646 356.667 138.116 348.911 129.977 345.287L34.2363 302.66C26.0974 299.037 16.6328 300.117 9.51956 305.481L-109.804 395.467C-114.167 398.757 -117.304 403.412 -118.718 408.69L-163.1 574.408C-164.83 580.864 -163.846 587.747 -160.377 593.46L-98.5226 695.349Z" stroke="url(#paint21_linear_14_168)" stroke-opacity="0.3"/>
<path opacity="0.333333" d="M-116.192 693.258C-111.353 702.213 -101.481 707.244 -91.3914 705.895L25.6825 690.243C32.3196 689.356 38.3043 685.791 42.2448 680.377L141.962 543.37C145.191 538.934 146.837 533.542 146.637 528.058L141.244 380.396C140.92 371.51 135.806 363.497 127.883 359.46L35.1926 312.232C27.2698 308.195 17.7817 308.768 10.402 313.728L-112.229 396.16C-116.783 399.221 -120.177 403.722 -121.869 408.942L-174.097 570.145C-176.161 576.515 -175.528 583.452 -172.344 589.344L-116.192 693.258Z" stroke="url(#paint22_linear_14_168)" stroke-opacity="0.3"/>
<path opacity="0.347826" d="M-133.35 690.787C-128.983 699.938 -119.43 705.454 -109.321 704.66L7.35734 695.501C14.0454 694.976 20.2257 691.731 24.4558 686.524L129.975 556.637C133.449 552.361 135.381 547.038 135.457 541.528L137.48 395.471C137.603 386.597 132.918 378.351 125.233 373.914L35.8079 322.284C28.1224 317.847 18.6384 317.913 11.0151 322.456L-114.463 397.237C-119.196 400.058 -122.84 404.392 -124.807 409.539L-184.533 565.865C-186.927 572.132 -186.647 579.106 -183.757 585.161L-133.35 690.787Z" stroke="url(#paint23_linear_14_168)" stroke-opacity="0.3"/>
<path opacity="0.362319" d="M-149.98 687.97C-146.093 697.291 -136.883 703.272 -126.787 703.032L-10.8579 700.279C-4.13847 700.12 2.22035 697.206 6.72939 692.222L117.581 569.682C121.294 565.579 123.507 560.339 123.862 554.817L133.12 410.731C133.688 401.893 129.442 393.437 122.014 388.613L36.0593 332.793C28.6316 327.969 19.179 327.53 11.3359 331.644L-116.527 398.706C-121.428 401.277 -125.314 405.43 -127.553 410.49L-194.411 561.6C-197.13 567.747 -197.205 574.741 -194.618 580.944L-149.98 687.97Z" stroke="url(#paint24_linear_14_168)" stroke-opacity="0.3"/>
<path opacity="0.376812" d="M-166.07 684.839C-162.667 694.305 -153.825 700.73 -143.77 701.04L-28.9385 704.589C-22.2076 704.797 -15.6878 702.225 -10.9114 697.478L104.796 582.483C108.738 578.566 111.231 573.424 111.865 567.903L128.16 426.142C129.169 417.362 125.371 408.719 118.221 403.524L35.9259 343.733C28.7757 338.538 19.3818 337.597 11.3431 341.27L-118.445 400.573C-123.499 402.883 -127.619 406.843 -130.126 411.802L-203.737 557.382C-206.776 563.391 -207.207 570.387 -204.929 576.724L-166.07 684.839Z" stroke="url(#paint25_linear_14_168)" stroke-opacity="0.3"/>
<path opacity="0.391304" d="M-181.606 681.429C-178.693 691.014 -170.239 697.86 -160.258 698.716L-46.8607 708.442C-40.1382 709.018 -33.4756 706.797 -28.444 702.302L91.6357 595.021C95.7983 591.302 98.5662 586.273 99.4812 580.767L122.596 441.667C124.042 432.967 120.7 424.161 113.846 418.611L35.3886 355.078C28.5346 349.528 19.2264 348.09 11.0169 351.313L-120.237 402.843C-125.433 404.882 -129.776 408.635 -132.549 413.48L-212.519 553.241C-215.87 559.097 -216.657 566.076 -214.696 572.532L-181.606 681.429Z" stroke="url(#paint26_linear_14_168)" stroke-opacity="0.3"/>
<path opacity="0.405797" d="M-196.579 677.773C-194.16 687.451 -186.114 694.695 -176.236 696.09L-64.6017 711.852C-57.9078 712.797 -51.1209 710.934 -45.8473 706.704L78.1171 607.276C82.491 603.768 85.5292 598.866 86.7247 593.388L116.428 457.272C118.305 448.674 115.425 439.73 108.885 433.841L34.4295 366.801C27.8896 360.912 18.6937 358.983 10.3389 361.748L-121.927 405.517C-127.25 407.279 -131.808 410.813 -134.839 415.529L-220.765 549.208C-224.42 554.895 -225.564 561.839 -223.924 568.397L-196.579 677.773Z" stroke="url(#paint27_linear_14_168)" stroke-opacity="0.3"/>
<path opacity="0.42029" d="M-210.983 673.906C-209.058 683.651 -201.44 691.27 -191.695 693.194L-82.1399 714.834C-75.4947 716.146 -68.6026 714.649 -63.1009 710.698L64.2585 619.231C68.8335 615.946 72.1366 611.184 73.6117 605.748L109.659 472.92C111.958 464.445 109.547 455.388 103.338 449.179L33.0326 378.874C26.8235 372.664 17.7663 370.253 9.29182 372.553L-123.537 408.6C-128.973 410.075 -133.734 413.378 -137.02 417.953L-228.486 545.312C-232.438 550.814 -233.935 557.706 -232.622 564.351L-210.983 673.906Z" stroke="url(#paint28_linear_14_168)" stroke-opacity="0.3"/>
<path opacity="0.434783" d="M-224.811 669.863C-223.381 679.65 -216.208 687.616 -206.625 690.061L-99.4543 717.403C-92.8779 719.08 -85.9001 717.955 -80.1847 714.295L50.0792 630.869C54.8444 627.817 58.4062 623.21 60.1599 617.83L102.29 488.576C105.005 480.246 103.066 471.101 97.2032 464.59L31.1838 391.268C25.3215 384.757 16.4287 381.872 7.86066 383.702L-125.089 412.091C-130.623 413.272 -135.577 416.333 -139.11 420.753L-235.695 541.583C-239.933 546.884 -241.781 553.706 -240.8 560.422L-224.811 669.863Z" stroke="url(#paint29_linear_14_168)" stroke-opacity="0.3"/>
<path opacity="0.449275" d="M-238.06 665.679C-237.124 675.48 -230.412 683.77 -221.019 686.723L-116.525 719.576C-110.038 721.615 -102.994 720.867 -97.0802 717.509L35.5989 642.174C40.5429 639.367 44.3567 634.928 46.3868 629.618L94.3282 504.207C97.4493 496.043 95.9842 486.834 90.4834 480.041L28.8707 403.955C23.3698 397.162 14.6666 393.815 6.03144 395.17L-126.606 415.99C-132.222 416.871 -137.357 419.679 -141.131 423.931L-242.405 538.048C-246.919 543.134 -249.116 549.868 -248.469 556.638L-238.06 665.679Z" stroke="url(#paint30_linear_14_168)" stroke-opacity="0.3"/>
<path opacity="0.463768" d="M-250.728 661.387C-250.284 671.179 -244.047 679.763 -234.872 683.211L-133.334 721.37C-126.955 723.767 -119.866 723.399 -113.769 720.355L20.8385 653.133C25.9493 650.581 30.0076 646.323 32.3115 641.095L85.7808 519.779C89.2977 511.8 88.3082 502.552 83.1826 495.498L26.0825 416.906C20.9569 409.851 12.4678 406.053 3.79202 406.932L-128.109 420.295C-133.792 420.871 -139.096 423.415 -143.103 427.487L-248.631 534.734C-253.41 539.591 -255.951 546.22 -255.642 553.027L-250.728 661.387Z" stroke="url(#paint31_linear_14_168)" stroke-opacity="0.3"/>
<path opacity="0.478261" d="M-262.816 657.022C-262.86 666.778 -257.111 675.631 -248.181 679.559L-149.864 722.804C-143.613 725.554 -136.499 725.57 -130.236 722.848L5.81893 663.731C11.084 661.443 15.3785 657.379 17.9531 652.249L76.6567 535.259C80.5582 527.484 80.0442 518.223 75.3063 510.927L22.8103 430.091C18.0724 422.795 9.82126 418.559 1.13145 418.96L-129.621 425.005C-135.355 425.27 -140.814 427.54 -145.046 431.42L-254.391 531.667C-259.424 536.281 -262.303 542.787 -262.334 549.616L-262.816 657.022Z" stroke="url(#paint32_linear_14_168)" stroke-opacity="0.3"/>
<path opacity="0.492754" d="M-274.327 652.618C-274.854 662.314 -269.604 671.406 -260.944 675.798L-166.097 723.898C-159.995 726.993 -152.875 727.394 -146.463 725.005L-9.43746 673.957C-4.03128 671.943 0.490749 668.086 3.33208 663.065L66.9677 550.614C71.2415 543.062 71.2015 533.813 66.8628 526.298L19.0473 443.479C14.7085 435.964 6.71832 431.305 -1.95885 431.23L-131.162 430.114C-136.931 430.065 -142.533 432.052 -146.98 435.727L-259.701 528.871C-264.976 533.23 -268.188 539.596 -268.559 546.429L-274.327 652.618Z" stroke="url(#paint33_linear_14_168)" stroke-opacity="0.3"/>
<path opacity="0.507246" d="M-285.265 648.208C-286.268 657.819 -281.528 667.122 -273.163 671.96L-182.021 724.67C-176.085 728.103 -168.982 728.891 -162.437 726.843L-24.9087 683.801C-19.375 682.069 -14.6349 678.431 -11.5313 673.533L56.7263 565.814C61.3591 558.502 61.7904 549.289 57.8609 541.577L14.7878 457.041C10.8583 449.329 3.15119 444.263 -5.48679 443.714L-132.755 435.619C-138.541 435.251 -144.271 436.947 -148.925 440.406L-264.584 526.37C-270.087 530.461 -273.624 536.67 -274.336 543.49L-285.265 648.208Z" stroke="url(#paint34_linear_14_168)" stroke-opacity="0.3"/>
<path opacity="0.521739" d="M-295.636 643.825C-297.108 653.328 -292.885 662.812 -284.838 668.077L-197.619 725.142C-191.869 728.904 -184.803 730.078 -178.145 728.378L-40.5714 693.254C-34.9243 691.812 -29.9761 688.404 -26.6154 683.642L45.9475 580.827C50.9254 573.774 51.8239 564.621 48.3126 556.735L10.0287 470.748C6.51743 462.861 -0.885364 457.405 -9.45771 456.385L-134.418 441.513C-140.206 440.824 -146.049 442.221 -150.899 445.453L-269.057 524.186C-274.775 527.997 -278.631 534.034 -279.682 540.825L-295.636 643.825Z" stroke="url(#paint35_linear_14_168)" stroke-opacity="0.3"/>
<path opacity="0.536232" d="M-305.449 639.501C-307.381 648.871 -303.681 658.509 -295.976 664.18L-212.881 725.334C-207.335 729.416 -200.326 730.975 -193.573 729.63L-56.4029 702.306C-50.6568 701.162 -45.5112 697.996 -41.8991 693.383L34.6473 595.625C39.9553 588.846 41.3155 579.779 38.23 571.741L4.76789 484.569C1.68241 476.531 -5.39582 470.703 -13.8764 469.217L-136.174 447.788C-141.945 446.777 -147.887 447.867 -152.923 450.862L-273.143 522.341C-279.063 525.86 -283.228 531.708 -284.618 538.453L-305.449 639.501Z" stroke="url(#paint36_linear_14_168)" stroke-opacity="0.3"/>
<path opacity="0.550725" d="M-314.713 635.267C-317.095 644.482 -313.923 654.243 -306.58 660.299L-227.795 725.268C-222.47 729.659 -215.541 731.601 -208.71 730.616L-72.3792 710.953C-66.5492 710.112 -61.2173 707.199 -57.3601 702.747L22.8438 610.181C28.4664 603.691 30.2816 594.732 27.6283 586.566L-0.9944 498.475C-3.6477 490.309 -10.3822 484.127 -18.7453 482.182L-138.041 454.437C-143.778 453.103 -149.804 453.88 -155.015 456.627L-276.866 520.852C-282.971 524.07 -287.436 529.714 -289.163 536.396L-314.713 635.267Z" stroke="url(#paint37_linear_14_168)" stroke-opacity="0.3"/>
<path opacity="0.565217" d="M-323.441 631.153C-326.261 640.192 -323.621 650.046 -316.659 656.464L-242.35 724.967C-237.265 729.655 -230.435 731.975 -223.546 731.355L-88.4766 719.188C-82.5781 718.657 -77.0717 716.007 -72.9763 711.729L10.5563 624.466C16.477 618.281 18.7393 609.454 16.5232 601.183L-7.25659 512.436C-9.47263 504.165 -15.8455 497.652 -24.0655 495.256L-140.038 461.45C-145.724 459.793 -151.818 460.251 -157.192 462.74L-280.249 519.739C-286.525 522.646 -291.28 528.07 -293.34 534.673L-323.441 631.153Z" stroke="url(#paint38_linear_14_168)" stroke-opacity="0.3"/>
<path opacity="0.57971" d="M-331.646 627.189C-334.892 636.029 -332.784 645.948 -326.222 652.704L-256.54 724.451C-251.711 729.424 -245.001 732.118 -238.073 731.866L-104.671 727.008C-98.72 726.792 -93.0513 724.415 -88.7252 720.322L-2.19458 638.456C4.00717 632.589 6.70732 623.916 4.93228 615.565L-14.0154 526.424C-15.7904 518.073 -21.7847 511.248 -29.8367 508.41L-142.184 468.818C-147.801 466.838 -153.946 466.973 -159.471 469.195L-283.316 519.017C-289.747 521.604 -294.781 526.795 -297.17 533.302L-331.646 627.189Z" stroke="url(#paint39_linear_14_168)" stroke-opacity="0.3"/>
<path opacity="0.594203" d="M-339.342 623.404C-343.001 632.025 -341.424 641.978 -335.28 649.047L-270.356 723.745C-265.798 728.988 -259.229 732.05 -252.283 732.169L-120.939 734.411C-114.951 734.513 -109.133 732.419 -104.584 728.523L-15.3867 652.128C-8.92151 646.591 -5.79381 638.095 -7.12541 629.688L-21.2656 540.41C-22.5972 532.003 -28.1972 524.889 -36.0571 521.621L-144.496 476.529C-150.026 474.229 -156.207 474.035 -161.871 475.982L-286.093 518.702C-292.662 520.962 -297.964 525.904 -300.678 532.299L-339.342 623.404Z" stroke="url(#paint40_linear_14_168)" stroke-opacity="0.3"/>
<defs>
<linearGradient id="paint0_linear_14_168" x1="362.675" y1="605.574" x2="5.54765" y2="164.558" gradientUnits="userSpaceOnUse">
<stop stop-color="#009035"/>
<stop offset="1" stop-color="#004622"/>
</linearGradient>
<linearGradient id="paint1_linear_14_168" x1="340.854" y1="617.759" x2="10.2411" y2="162.709" gradientUnits="userSpaceOnUse">
<stop stop-color="#009035"/>
<stop offset="1" stop-color="#004622"/>
</linearGradient>
<linearGradient id="paint2_linear_14_168" x1="318.801" y1="629.195" x2="15.1845" y2="161.666" gradientUnits="userSpaceOnUse">
<stop stop-color="#009035"/>
<stop offset="1" stop-color="#004622"/>
</linearGradient>
<linearGradient id="paint3_linear_14_168" x1="296.559" y1="639.876" x2="20.3309" y2="161.435" gradientUnits="userSpaceOnUse">
<stop stop-color="#009035"/>
<stop offset="1" stop-color="#004622"/>
</linearGradient>
<linearGradient id="paint4_linear_14_168" x1="274.17" y1="649.798" x2="25.6347" y2="162.019" gradientUnits="userSpaceOnUse">
<stop stop-color="#009035"/>
<stop offset="1" stop-color="#004622"/>
</linearGradient>
<linearGradient id="paint5_linear_14_168" x1="251.679" y1="658.961" x2="31.0493" y2="163.419" gradientUnits="userSpaceOnUse">
<stop stop-color="#009035"/>
<stop offset="1" stop-color="#004622"/>
</linearGradient>
<linearGradient id="paint6_linear_14_168" x1="229.126" y1="667.367" x2="36.5289" y2="165.633" gradientUnits="userSpaceOnUse">
<stop stop-color="#009035"/>
<stop offset="1" stop-color="#004622"/>
</linearGradient>
<linearGradient id="paint7_linear_14_168" x1="206.556" y1="675.019" x2="42.0285" y2="168.657" gradientUnits="userSpaceOnUse">
<stop stop-color="#009035"/>
<stop offset="1" stop-color="#004622"/>
</linearGradient>
<linearGradient id="paint8_linear_14_168" x1="184.008" y1="681.925" x2="47.5034" y2="172.484" gradientUnits="userSpaceOnUse">
<stop stop-color="#009035"/>
<stop offset="1" stop-color="#004622"/>
</linearGradient>
<linearGradient id="paint9_linear_14_168" x1="161.524" y1="688.092" x2="52.9099" y2="177.104" gradientUnits="userSpaceOnUse">
<stop stop-color="#009035"/>
<stop offset="1" stop-color="#004622"/>
</linearGradient>
<linearGradient id="paint10_linear_14_168" x1="139.143" y1="693.531" x2="58.2049" y2="182.507" gradientUnits="userSpaceOnUse">
<stop stop-color="#009035"/>
<stop offset="1" stop-color="#004622"/>
</linearGradient>
<linearGradient id="paint11_linear_14_168" x1="116.905" y1="698.257" x2="63.3465" y2="188.677" gradientUnits="userSpaceOnUse">
<stop stop-color="#009035"/>
<stop offset="1" stop-color="#004622"/>
</linearGradient>
<linearGradient id="paint12_linear_14_168" x1="94.8481" y1="702.282" x2="68.294" y2="195.6" gradientUnits="userSpaceOnUse">
<stop stop-color="#009035"/>
<stop offset="1" stop-color="#004622"/>
</linearGradient>
<linearGradient id="paint13_linear_14_168" x1="73.0081" y1="705.625" x2="73.0081" y2="203.256" gradientUnits="userSpaceOnUse">
<stop stop-color="#009035"/>
<stop offset="1" stop-color="#004622"/>
</linearGradient>
<linearGradient id="paint14_linear_14_168" x1="51.4208" y1="708.305" x2="77.4506" y2="211.626" gradientUnits="userSpaceOnUse">
<stop stop-color="#009035"/>
<stop offset="1" stop-color="#004622"/>
</linearGradient>
<linearGradient id="paint15_linear_14_168" x1="30.12" y1="710.341" x2="81.5848" y2="220.687" gradientUnits="userSpaceOnUse">
<stop stop-color="#009035"/>
<stop offset="1" stop-color="#004622"/>
</linearGradient>
<linearGradient id="paint16_linear_14_168" x1="9.1386" y1="711.758" x2="85.3758" y2="230.415" gradientUnits="userSpaceOnUse">
<stop stop-color="#009035"/>
<stop offset="1" stop-color="#004622"/>
</linearGradient>
<linearGradient id="paint17_linear_14_168" x1="-11.4925" y1="712.578" x2="88.7904" y2="240.784" gradientUnits="userSpaceOnUse">
<stop stop-color="#009035"/>
<stop offset="1" stop-color="#004622"/>
</linearGradient>
<linearGradient id="paint18_linear_14_168" x1="-31.7442" y1="712.827" x2="91.7968" y2="251.766" gradientUnits="userSpaceOnUse">
<stop stop-color="#009035"/>
<stop offset="1" stop-color="#004622"/>
</linearGradient>
<linearGradient id="paint19_linear_14_168" x1="-51.5886" y1="712.532" x2="94.3654" y2="263.332" gradientUnits="userSpaceOnUse">
<stop stop-color="#009035"/>
<stop offset="1" stop-color="#004622"/>
</linearGradient>
<linearGradient id="paint20_linear_14_168" x1="-70.9997" y1="711.723" x2="96.4686" y2="275.453" gradientUnits="userSpaceOnUse">
<stop stop-color="#009035"/>
<stop offset="1" stop-color="#004622"/>
</linearGradient>
<linearGradient id="paint21_linear_14_168" x1="-89.9537" y1="710.427" x2="98.0804" y2="288.096" gradientUnits="userSpaceOnUse">
<stop stop-color="#009035"/>
<stop offset="1" stop-color="#004622"/>
</linearGradient>
<linearGradient id="paint22_linear_14_168" x1="-108.429" y1="708.677" x2="99.177" y2="301.228" gradientUnits="userSpaceOnUse">
<stop stop-color="#009035"/>
<stop offset="1" stop-color="#004622"/>
</linearGradient>
<linearGradient id="paint23_linear_14_168" x1="-126.404" y1="706.503" x2="99.7368" y2="314.815" gradientUnits="userSpaceOnUse">
<stop stop-color="#009035"/>
<stop offset="1" stop-color="#004622"/>
</linearGradient>
<linearGradient id="paint24_linear_14_168" x1="-143.862" y1="703.938" x2="99.7402" y2="328.823" gradientUnits="userSpaceOnUse">
<stop stop-color="#009035"/>
<stop offset="1" stop-color="#004622"/>
</linearGradient>
<linearGradient id="paint25_linear_14_168" x1="-160.787" y1="701.015" x2="99.1699" y2="343.215" gradientUnits="userSpaceOnUse">
<stop stop-color="#009035"/>
<stop offset="1" stop-color="#004622"/>
</linearGradient>
<linearGradient id="paint26_linear_14_168" x1="-177.163" y1="697.768" x2="98.0108" y2="357.956" gradientUnits="userSpaceOnUse">
<stop stop-color="#009035"/>
<stop offset="1" stop-color="#004622"/>
</linearGradient>
<linearGradient id="paint27_linear_14_168" x1="-192.98" y1="694.231" x2="96.2499" y2="373.008" gradientUnits="userSpaceOnUse">
<stop stop-color="#009035"/>
<stop offset="1" stop-color="#004622"/>
</linearGradient>
<linearGradient id="paint28_linear_14_168" x1="-208.227" y1="690.439" x2="93.8763" y2="388.335" gradientUnits="userSpaceOnUse">
<stop stop-color="#009035"/>
<stop offset="1" stop-color="#004622"/>
</linearGradient>
<linearGradient id="paint29_linear_14_168" x1="-222.896" y1="686.426" x2="90.8818" y2="403.899" gradientUnits="userSpaceOnUse">
<stop stop-color="#009035"/>
<stop offset="1" stop-color="#004622"/>
</linearGradient>
<linearGradient id="paint30_linear_14_168" x1="-236.982" y1="682.228" x2="87.2599" y2="419.662" gradientUnits="userSpaceOnUse">
<stop stop-color="#009035"/>
<stop offset="1" stop-color="#004622"/>
</linearGradient>
<linearGradient id="paint31_linear_14_168" x1="-250.48" y1="677.879" x2="83.0068" y2="435.587" gradientUnits="userSpaceOnUse">
<stop stop-color="#009035"/>
<stop offset="1" stop-color="#004622"/>
</linearGradient>
<linearGradient id="paint32_linear_14_168" x1="-263.39" y1="673.415" x2="78.1203" y2="451.636" gradientUnits="userSpaceOnUse">
<stop stop-color="#009035"/>
<stop offset="1" stop-color="#004622"/>
</linearGradient>
<linearGradient id="paint33_linear_14_168" x1="-275.71" y1="668.87" x2="72.6011" y2="467.772" gradientUnits="userSpaceOnUse">
<stop stop-color="#009035"/>
<stop offset="1" stop-color="#004622"/>
</linearGradient>
<linearGradient id="paint34_linear_14_168" x1="-287.445" y1="664.278" x2="66.4513" y2="483.959" gradientUnits="userSpaceOnUse">
<stop stop-color="#009035"/>
<stop offset="1" stop-color="#004622"/>
</linearGradient>
<linearGradient id="paint35_linear_14_168" x1="-298.597" y1="659.673" x2="59.6759" y2="500.16" gradientUnits="userSpaceOnUse">
<stop stop-color="#009035"/>
<stop offset="1" stop-color="#004622"/>
</linearGradient>
<linearGradient id="paint36_linear_14_168" x1="-309.173" y1="655.088" x2="52.2811" y2="516.339" gradientUnits="userSpaceOnUse">
<stop stop-color="#009035"/>
<stop offset="1" stop-color="#004622"/>
</linearGradient>
<linearGradient id="paint37_linear_14_168" x1="-319.181" y1="650.555" x2="44.2757" y2="532.461" gradientUnits="userSpaceOnUse">
<stop stop-color="#009035"/>
<stop offset="1" stop-color="#004622"/>
</linearGradient>
<linearGradient id="paint38_linear_14_168" x1="-328.631" y1="646.107" x2="35.6704" y2="548.493" gradientUnits="userSpaceOnUse">
<stop stop-color="#009035"/>
<stop offset="1" stop-color="#004622"/>
</linearGradient>
<linearGradient id="paint39_linear_14_168" x1="-337.534" y1="641.774" x2="26.4773" y2="564.401" gradientUnits="userSpaceOnUse">
<stop stop-color="#009035"/>
<stop offset="1" stop-color="#004622"/>
</linearGradient>
<linearGradient id="paint40_linear_14_168" x1="-345.904" y1="637.586" x2="16.711" y2="580.154" gradientUnits="userSpaceOnUse">
<stop stop-color="#009035"/>
<stop offset="1" stop-color="#004622"/>
</linearGradient>
</defs>
</svg>
