<svg width="96" height="22" viewBox="0 0 96 22" fill="none" xmlns="http://www.w3.org/2000/svg">
<g clip-path="url(#clip0_638_168)">
<path d="M0 21.2596V0.706848H4.23721V21.2596H0Z" fill="white"/>
<path d="M23.2672 21.2596L21.5186 16.4153H13.1325L11.3548 21.2596H6.87988L14.6438 0.706787H20.0076L27.7711 21.2596H23.2672H23.2672ZM14.5846 12.422H20.037L17.3108 4.96433L14.5846 12.422Z" fill="white"/>
<path d="M38.6247 21.6118C35.543 21.6118 32.9848 20.599 30.9499 18.573C28.9151 16.5474 27.8977 14.0173 27.8977 10.9832C27.8977 7.94957 28.9151 5.41945 30.9499 3.39348C32.9848 1.36782 35.543 0.354614 38.6247 0.354614C41.0743 0.354614 43.2031 1.035 45.0106 2.39522C46.8182 3.7555 48.0282 5.54175 48.6408 7.7535H44.1071C43.6131 6.67717 42.887 5.84033 41.9289 5.24321C40.9708 4.6465 39.8595 4.34796 38.5953 4.34796C36.6986 4.34796 35.1529 4.96912 33.9576 6.21228C32.7627 7.45496 32.1648 9.04555 32.1648 10.9832C32.1648 12.9213 32.7627 14.5115 33.9576 15.7546C35.153 16.9974 36.6986 17.619 38.5953 17.619C39.8595 17.619 40.9708 17.3204 41.9289 16.7234C42.887 16.1266 43.6131 15.2898 44.1071 14.213H48.6408C48.0282 16.4248 46.8182 18.211 45.0106 19.5713C43.2031 20.9319 41.0743 21.6119 38.6247 21.6119V21.6118Z" fill="white"/>
<path d="M58.1531 16.3795C57.7251 15.8172 57.3681 15.2299 57.0794 14.6266C56.7813 14.0037 56.5555 13.3614 56.3982 12.7102C56.2897 12.2585 56.2138 11.8009 56.1703 11.3421C56.1265 10.8819 56.1159 10.4201 56.1376 9.96139C56.1597 9.49006 56.2133 9.02863 56.2969 8.58089C56.3827 8.12124 56.4998 7.6697 56.6464 7.23011L56.6484 7.23006C56.7931 6.79674 56.9666 6.37349 57.167 5.96447C57.3675 5.55541 57.5971 5.15579 57.8537 4.76974C58.1096 4.38471 58.3889 4.01849 58.6891 3.6751C58.9902 3.3305 59.3158 3.00371 59.6634 2.69824C60.1824 2.24298 60.7522 1.83459 61.3671 1.48399C61.966 1.14239 62.6073 0.855222 63.2856 0.631934L63.2876 0.6318C68.2705 -1.0027 72.802 0.841658 77.3041 2.67407C85.6068 6.05342 90.7538 6.16654 95.9999 1.17726C92.7007 8.55376 88.5041 14.768 81.8672 18.6966C77.7384 21.1406 72.9495 22.3035 68.5602 21.8869C64.4662 21.4984 60.716 19.742 58.1532 16.3794L58.1531 16.3795Z" fill="white"/>
<path d="M89.8603 7.09729C81.7341 20.7235 65.5453 23.7375 59.4058 14.0112C60.6463 15.6593 73.2864 25.1348 86.782 7.44068C87.726 7.43285 88.8178 7.4444 89.8603 7.09729H89.8603Z" fill="#C1C3C3"/>
<path d="M83.7289 7.12282C75.0794 18.3598 66.0841 18.6324 58.6917 12.3567C62.5634 14.815 72.0297 18.4869 80.9028 6.45435C81.8723 6.74102 82.7174 6.94783 83.7289 7.12282Z" fill="#C1C3C3"/>
<path d="M77.9731 5.47004C70.1935 15.3379 62.1622 14.0733 58.6917 12.3566C62.4461 13.4503 69.0554 12.4916 75.3133 4.41479L77.9731 5.47004Z" fill="#C1C3C3"/>
<path d="M72.1432 3.24055C68.0459 10.1257 62.3724 13.0331 58.6917 12.3567C62.418 12.0853 66.3645 8.35745 67.9414 4.58291C62.9568 3.96596 59.28 7.58825 58.5068 10.5239C58.7258 3.27502 65.8159 0.880495 72.1432 3.24055Z" fill="#FEFEFE"/>
</g>
<defs>
<clipPath id="clip0_638_168">
<rect width="96" height="21.9701" fill="white"/>
</clipPath>
</defs>
</svg>
