<svg width="96" height="22" viewBox="0 0 96 22" fill="none" xmlns="http://www.w3.org/2000/svg">
<g clip-path="url(#clip0_638_98)">
<path d="M0 21.2596V0.706818H4.23721V21.2596H0Z" fill="#00843E"/>
<path d="M23.2672 21.2596L21.5186 16.4153H13.1325L11.3548 21.2596H6.87988L14.6438 0.706787H20.0076L27.7711 21.2596H23.2672H23.2672ZM14.5846 12.422H20.037L17.3108 4.96433L14.5846 12.422Z" fill="#00843E"/>
<path d="M38.6245 21.6118C35.5428 21.6118 32.9845 20.599 30.9497 18.573C28.9149 16.5474 27.8975 14.0173 27.8975 10.9832C27.8975 7.94957 28.9149 5.41945 30.9497 3.39348C32.9845 1.36782 35.5428 0.354614 38.6245 0.354614C41.0741 0.354614 43.2028 1.035 45.0104 2.39522C46.8179 3.7555 48.028 5.54175 48.6406 7.7535H44.1068C43.6128 6.67717 42.8868 5.84033 41.9287 5.24321C40.9706 4.6465 39.8592 4.34796 38.5951 4.34796C36.6983 4.34796 35.1527 4.96912 33.9574 6.21228C32.7624 7.45496 32.1646 9.04555 32.1646 10.9832C32.1646 12.9213 32.7625 14.5115 33.9574 15.7546C35.1527 16.9974 36.6983 17.619 38.5951 17.619C39.8593 17.619 40.9706 17.3204 41.9287 16.7234C42.8868 16.1266 43.6128 15.2898 44.1068 14.213H48.6406C48.028 16.4248 46.8179 18.211 45.0104 19.5713C43.2028 20.9319 41.0741 21.6119 38.6245 21.6119V21.6118Z" fill="#00843E"/>
<path d="M58.1534 16.3795C57.7253 15.8172 57.3684 15.2299 57.0797 14.6266C56.7816 14.0037 56.5557 13.3614 56.3985 12.7102C56.2899 12.2585 56.2141 11.8009 56.1705 11.3421C56.1267 10.8819 56.1162 10.4201 56.1378 9.96139C56.1599 9.49006 56.2136 9.02863 56.2971 8.58089C56.3829 8.12124 56.5 7.6697 56.6467 7.23011L56.6486 7.23006C56.7933 6.79674 56.9669 6.37349 57.1673 5.96447C57.3678 5.55541 57.5973 5.15579 57.8539 4.76974C58.1098 4.38471 58.3891 4.01849 58.6893 3.6751C58.9904 3.3305 59.3161 3.00371 59.6636 2.69824C60.1827 2.24298 60.7525 1.83459 61.3674 1.48399C61.9663 1.14239 62.6076 0.855222 63.2858 0.631934L63.2878 0.6318C68.2708 -1.0027 72.8023 0.841658 77.3044 2.67407C85.6071 6.05342 90.754 6.16654 96.0001 1.17726C92.701 8.55376 88.5044 14.768 81.8675 18.6966C77.7387 21.1406 72.9498 22.3035 68.5604 21.8869C64.4664 21.4984 60.7162 19.742 58.1534 16.3794L58.1534 16.3795Z" fill="#00843E"/>
<path d="M89.8603 7.09729C81.7341 20.7235 65.5453 23.7375 59.4058 14.0112C60.6463 15.6593 73.2864 25.1348 86.782 7.44068C87.726 7.43285 88.8178 7.4444 89.8603 7.09729H89.8603Z" fill="#FEFEFE"/>
<path d="M83.7292 7.12282C75.0796 18.3598 66.0843 18.6324 58.6919 12.3567C62.5637 14.815 72.0299 18.4869 80.903 6.45435C81.8726 6.74102 82.7177 6.94783 83.7292 7.12282Z" fill="#FEFEFE"/>
<path d="M77.9733 5.47004C70.1938 15.3379 62.1624 14.0733 58.6919 12.3566C62.4463 13.4503 69.0556 12.4916 75.3135 4.41479L77.9733 5.47004Z" fill="#FEFEFE"/>
<path d="M72.1432 3.24052C68.0459 10.1257 62.3724 13.0331 58.6917 12.3567C62.418 12.0853 66.3645 8.35742 67.9414 4.58288C62.9568 3.96593 59.28 7.58822 58.5068 10.5239C58.7258 3.27499 65.8159 0.880465 72.1432 3.24052Z" fill="#FEFEFE"/>
</g>
<defs>
<clipPath id="clip0_638_98">
<rect width="96" height="21.9701" fill="white"/>
</clipPath>
</defs>
</svg>
