<svg width="96" height="22" viewBox="0 0 96 22" fill="none" xmlns="http://www.w3.org/2000/svg">
<g clip-path="url(#clip0_6223_36254)">
<path d="M0 21.2596V0.706845H4.23721V21.2596H0Z" fill="#00843E"/>
<path d="M23.2672 21.2596L21.5186 16.4153H13.1325L11.3548 21.2596H6.87988L14.6438 0.7068H20.0076L27.7711 21.2596H23.2672H23.2672ZM14.5846 12.422H20.037L17.3108 4.96435L14.5846 12.422Z" fill="#00843E"/>
<path d="M38.6245 21.6118C35.5428 21.6118 32.9845 20.599 30.9497 18.573C28.9149 16.5474 27.8975 14.0173 27.8975 10.9832C27.8975 7.94959 28.9149 5.41947 30.9497 3.3935C32.9845 1.36784 35.5428 0.354635 38.6245 0.354635C41.0741 0.354635 43.2028 1.03502 45.0104 2.39524C46.8179 3.75552 48.028 5.54177 48.6406 7.75352H44.1068C43.6128 6.67719 42.8868 5.84035 41.9287 5.24323C40.9706 4.64652 39.8592 4.34798 38.5951 4.34798C36.6983 4.34798 35.1527 4.96914 33.9574 6.2123C32.7624 7.45498 32.1646 9.04557 32.1646 10.9833C32.1646 12.9213 32.7625 14.5115 33.9574 15.7547C35.1527 16.9974 36.6983 17.619 38.5951 17.619C39.8593 17.619 40.9706 17.3205 41.9287 16.7234C42.8868 16.1266 43.6128 15.2898 44.1068 14.213H48.6406C48.028 16.4248 46.8179 18.211 45.0104 19.5713C43.2028 20.932 41.0741 21.6119 38.6245 21.6119V21.6118Z" fill="#00843E"/>
<path fill-rule="evenodd" clip-rule="evenodd" d="M58.1534 16.3795C57.7253 15.8172 57.3684 15.2299 57.0797 14.6266C56.7816 14.0037 56.5557 13.3614 56.3985 12.7103C56.2899 12.2585 56.2141 11.8009 56.1705 11.3421C56.1267 10.8819 56.1162 10.4202 56.1378 9.96141C56.1599 9.49008 56.2136 9.02865 56.2971 8.58091C56.3829 8.12126 56.5 7.66972 56.6467 7.23013L56.6486 7.23008C56.7933 6.79676 56.9669 6.37351 57.1673 5.96449C57.3678 5.55543 57.5973 5.15581 57.8539 4.76976C58.1098 4.38473 58.3891 4.01851 58.6893 3.67512C58.9904 3.33052 59.3161 3.00373 59.6636 2.69826C60.1827 2.243 60.7525 1.83461 61.3674 1.48401C61.9663 1.14241 62.6076 0.855241 63.2858 0.631954L63.2878 0.631819C68.2708 -1.00268 72.8023 0.841677 77.3044 2.67409C85.6071 6.05343 90.754 6.16656 96.0001 1.17728C92.701 8.55378 88.5044 14.768 81.8675 18.6966C77.7387 21.1406 72.9498 22.3036 68.5604 21.8869C64.4664 21.4984 60.7162 19.7421 58.1534 16.3795ZM89.8598 7.09731C81.7337 20.7235 65.5448 23.7376 59.4053 14.0113C60.6458 15.6593 73.2859 25.1348 86.7815 7.4407L86.9353 7.43954C87.843 7.43307 88.8735 7.42572 89.8598 7.09731H89.8598ZM58.6914 12.3567C66.0839 18.6324 75.0791 18.3599 83.7287 7.12282C82.7172 6.94784 81.8721 6.74102 80.9025 6.45435C72.0294 18.4869 62.5632 14.815 58.6914 12.3567ZM77.9728 5.47006C70.1933 15.3379 62.1619 14.0733 58.6914 12.3566C62.4458 13.4503 69.0551 12.4916 75.313 4.41481L77.9728 5.47006ZM58.6917 12.3567C62.3724 13.0331 68.0459 10.1257 72.1432 3.24054C65.8159 0.880488 58.7258 3.27501 58.5068 10.5239C59.28 7.58825 62.9568 3.96596 67.9414 4.58291C66.3645 8.35744 62.418 12.0853 58.6917 12.3567Z" fill="#00843E"/>
</g>
<defs>
<clipPath id="clip0_6223_36254">
<rect width="96" height="21.9701" fill="white"/>
</clipPath>
</defs>
</svg>
