<svg width="1440" height="900" viewBox="0 0 1440 900" fill="none" xmlns="http://www.w3.org/2000/svg">
<path opacity="0.0144928" d="M1633.14 -12.6582C1638.26 -22.3022 1636.38 -34.1704 1628.53 -41.7602L1330.2 -330.212C1325.55 -334.701 1319.33 -337.175 1312.87 -337.097L724.781 -330.008C719.703 -329.947 714.77 -328.31 710.664 -325.322L292.643 -21.2208C285.198 -15.8042 281.418 -6.67031 282.858 2.42385L339.675 361.155C341.116 370.249 347.533 377.768 356.289 380.619L847.822 540.661C852.65 542.233 857.848 542.266 862.697 540.755L1424.19 365.767C1430.36 363.846 1435.52 359.569 1438.54 353.865L1633.14 -12.6582Z" stroke="url(#paint0_linear_14_310)" stroke-opacity="0.3"/>
<path opacity="0.0289855" d="M1631.42 51.6037C1637.01 42.2569 1635.76 30.3436 1628.35 22.3628L1348.01 -279.609C1343.61 -284.348 1337.51 -287.156 1331.05 -287.419L748.753 -311.181C743.664 -311.389 738.637 -310.005 734.37 -307.222L305.074 -27.234C297.372 -22.2106 293.131 -13.2972 294.092 -4.15195L331.835 354.947C332.796 364.092 338.798 371.929 347.376 375.241L825.504 559.855C830.255 561.69 835.461 561.998 840.395 560.737L1405.03 416.429C1411.29 414.827 1416.67 410.814 1419.99 405.263L1631.42 51.6037Z" stroke="url(#paint1_linear_14_310)" stroke-opacity="0.3"/>
<path opacity="0.0434783" d="M1627.75 115.378C1633.79 106.351 1633.17 94.4259 1626.22 86.0796L1364.45 -228.324C1360.31 -233.302 1354.36 -236.435 1347.92 -237.041L773.016 -291.027C767.93 -291.504 762.821 -290.38 758.405 -287.81L319.2 -32.277C311.262 -27.6588 306.573 -18.9892 307.054 -9.81822L325.84 348.641C326.321 357.812 331.89 365.944 340.267 369.707L803.776 577.931C808.437 580.025 813.635 580.609 818.644 579.602L1384.75 465.819C1391.1 464.543 1396.69 460.804 1400.29 455.421L1627.75 115.378Z" stroke="url(#paint2_linear_14_310)" stroke-opacity="0.3"/>
<path opacity="0.057971" d="M1622.18 178.562C1628.65 169.877 1628.65 157.973 1622.18 149.288L1379.52 -176.436C1375.64 -181.638 1369.86 -185.09 1363.45 -186.037L797.498 -269.538C792.428 -270.286 787.251 -269.425 782.696 -267.077L334.953 -36.2647C326.801 -32.0624 321.679 -23.6591 321.679 -14.4879L321.679 342.338C321.679 351.509 326.801 359.912 334.953 364.115L782.696 594.927C787.251 597.275 792.428 598.136 797.498 597.388L1363.45 513.887C1369.86 512.94 1375.64 509.488 1379.52 504.286L1622.18 178.562Z" stroke="url(#paint3_linear_14_310)" stroke-opacity="0.3"/>
<path opacity="0.0724638" d="M1614.75 241.056C1621.63 232.733 1622.25 220.885 1616.28 211.888L1393.18 -124.025C1389.59 -129.436 1383.99 -133.199 1377.62 -134.485L822.123 -246.713C817.084 -247.732 811.852 -247.139 807.169 -245.019L352.26 -39.1174C343.916 -35.3407 338.375 -27.2257 337.896 -18.0795L319.332 336.136C318.853 345.282 323.515 353.932 331.418 358.56L762.313 610.885C766.749 613.482 771.89 614.619 777.008 614.133L1341.2 560.585C1347.66 559.972 1353.62 556.815 1357.76 551.809L1614.75 241.056Z" stroke="url(#paint4_linear_14_310)" stroke-opacity="0.3"/>
<path opacity="0.0869565" d="M1605.52 302.766C1612.79 294.825 1614.03 283.064 1608.56 273.784L1405.42 -71.1681C1402.12 -76.7743 1396.73 -80.8372 1390.43 -82.4608L846.818 -222.553C841.824 -223.84 836.551 -223.518 831.75 -221.634L371.044 -40.7581C362.531 -37.4157 356.588 -29.6096 355.632 -20.5137L318.777 330.133C317.821 339.229 322.011 348.1 329.644 353.14L742.676 625.849C746.98 628.691 752.071 630.102 757.223 629.881L1318.08 605.873C1324.58 605.594 1330.7 602.742 1335.1 597.945L1605.52 302.766Z" stroke="url(#paint5_linear_14_310)" stroke-opacity="0.3"/>
<path opacity="0.101449" d="M1594.54 363.601C1602.19 356.06 1604.03 344.419 1599.09 334.884L1416.24 -17.9443C1413.24 -23.7297 1408.06 -28.0824 1401.85 -30.0399L871.509 -197.062C866.574 -198.616 861.273 -198.568 856.367 -196.925L391.224 -41.1153C382.564 -38.2144 376.236 -30.7373 374.808 -21.7166L319.984 324.424C318.555 333.445 322.263 342.512 329.603 347.947L723.833 639.867C727.991 642.946 733.017 644.63 738.19 644.677L1294.18 649.712C1300.7 649.771 1306.97 647.232 1311.61 642.657L1594.54 363.601Z" stroke="url(#paint6_linear_14_310)" stroke-opacity="0.3"/>
<path opacity="0.115942" d="M1581.89 423.472C1589.88 416.349 1592.33 404.859 1587.92 395.1L1425.62 35.5661C1422.93 29.6176 1417.99 24.9865 1411.87 22.6997L896.124 -170.25C891.263 -172.069 885.949 -172.296 880.949 -170.9L412.718 -40.1243C403.934 -37.671 397.24 -30.5419 395.344 -21.6212L322.921 319.101C321.025 328.022 324.24 337.257 331.267 343.071L705.826 652.987C709.826 656.297 714.773 658.25 719.954 658.566L1269.59 692.072C1276.11 692.469 1282.51 690.251 1287.38 685.909L1581.89 423.472Z" stroke="url(#paint7_linear_14_310)" stroke-opacity="0.3"/>
<path opacity="0.130435" d="M1567.64 482.298C1575.95 475.607 1578.98 464.301 1575.12 454.348L1433.57 89.2846C1431.2 83.19 1426.5 78.2925 1420.51 75.6815L920.594 -142.13C915.819 -144.211 910.505 -144.715 905.425 -143.571L435.438 -37.7242C426.554 -35.7234 419.513 -28.9602 417.156 -20.164L327.549 314.252C325.192 323.048 327.909 332.426 334.602 338.601L688.699 665.26C692.527 668.792 697.381 671.011 702.556 671.597L1244.4 732.924C1250.9 733.659 1257.42 731.768 1262.51 727.672L1567.64 482.298Z" stroke="url(#paint8_linear_14_310)" stroke-opacity="0.3"/>
<path opacity="0.144928" d="M1551.85 540C1560.47 533.758 1564.07 522.665 1560.77 512.548L1440.08 143.135C1438.05 136.911 1433.61 131.76 1427.75 128.831L944.845 -112.719C940.171 -115.057 934.872 -115.839 929.723 -114.951L459.295 -33.8585C450.334 -32.3139 442.966 -25.9335 440.156 -17.2856L333.825 309.966C331.016 318.614 333.226 328.107 339.568 334.624L672.487 676.739C676.131 680.484 680.878 682.966 686.033 683.822L1218.69 772.249C1225.15 773.321 1231.77 771.764 1237.07 767.924L1551.85 540Z" stroke="url(#paint9_linear_14_310)" stroke-opacity="0.3"/>
<path opacity="0.15942" d="M1534.6 596.505C1543.5 590.725 1547.66 579.874 1544.92 569.625L1445.17 197.038C1443.47 190.703 1439.31 185.313 1433.61 182.073L968.81 -82.0377C964.251 -84.6283 958.981 -85.6878 953.775 -85.0605L484.197 -28.4789C475.183 -27.3927 467.509 -21.4109 464.255 -12.9348L341.703 306.325C338.449 314.801 340.15 324.382 346.122 331.22L657.226 687.478C660.675 691.428 665.3 694.166 670.421 695.292L1192.56 810.028C1198.96 811.436 1205.66 810.217 1211.16 806.644L1534.6 596.505Z" stroke="url(#paint10_linear_14_310)" stroke-opacity="0.3"/>
<path opacity="0.173913" d="M1515.98 651.746C1525.13 646.438 1529.84 635.859 1527.66 625.508L1448.84 250.919C1447.49 244.491 1443.61 238.876 1438.08 235.333L992.42 -50.11C987.99 -52.9481 982.763 -54.2841 977.513 -53.9205L510.049 -21.5398C501.005 -20.9135 493.047 -15.3448 489.36 -7.06352L351.128 303.41C347.441 311.691 348.628 321.332 354.214 328.471L642.945 697.532C646.187 701.677 650.678 704.667 655.752 706.061L1166.08 846.252C1172.42 847.991 1179.18 847.115 1184.86 843.819L1515.98 651.746Z" stroke="url(#paint11_linear_14_310)" stroke-opacity="0.3"/>
<path opacity="0.188406" d="M1496.07 705.658C1505.44 700.835 1510.68 690.554 1509.07 680.134L1451.11 304.704C1450.11 298.202 1446.53 292.376 1441.19 288.539L1015.61 -16.9635C1011.32 -20.0428 1006.15 -21.6538 1000.87 -21.5566L536.756 -13.0026C527.707 -12.8358 519.487 -7.69375 515.378 0.370498L362.048 301.297C357.939 309.362 358.611 319.034 363.795 326.453L629.676 706.96C632.7 711.288 637.042 714.524 642.055 716.184L1139.36 880.913C1145.61 882.982 1152.42 882.452 1158.27 879.442L1496.07 705.658Z" stroke="url(#paint12_linear_14_310)" stroke-opacity="0.3"/>
<path opacity="0.202899" d="M1474.95 758.184C1484.53 753.853 1490.27 743.899 1489.24 733.441L1452.01 358.318C1451.36 351.76 1448.09 345.741 1442.95 341.619L1038.32 17.3688C1034.19 14.0549 1029.09 12.1712 1023.79 12.0002L564.221 -2.836C555.19 -3.12756 546.731 1.57578 542.213 9.4013L374.402 300.058C369.884 307.884 370.04 317.561 374.809 325.237L617.442 715.817C620.238 720.319 624.419 723.792 629.356 725.717L1112.48 914.009C1118.62 916.403 1125.47 916.221 1131.47 913.505L1474.95 758.184Z" stroke="url(#paint13_linear_14_310)" stroke-opacity="0.3"/>
<path opacity="0.217391" d="M1452.72 809.27C1462.47 805.441 1468.7 795.837 1468.23 785.373L1451.54 411.691C1451.25 405.096 1448.31 398.899 1443.38 394.504L1060.49 52.8536C1056.52 49.3126 1051.5 47.1592 1046.2 46.7185L592.347 8.9886C583.357 8.24124 574.684 12.4949 569.77 20.0607L388.13 299.763C383.216 307.329 382.858 316.982 387.198 324.891L606.266 724.164C608.824 728.827 612.831 732.531 617.68 734.716L1085.53 945.546C1091.55 948.258 1098.41 948.427 1104.55 946.013L1452.72 809.27Z" stroke="url(#paint14_linear_14_310)" stroke-opacity="0.3"/>
<path opacity="0.231884" d="M1429.45 858.871C1439.35 855.55 1446.06 846.321 1446.16 835.882L1449.75 464.754C1449.81 458.141 1447.2 451.783 1442.51 447.125L1082.05 89.4532C1078.26 85.6931 1073.34 83.2737 1068.05 82.5627L621.033 22.4924C612.107 21.293 603.243 25.0873 597.949 32.3734L403.162 300.475C397.868 307.761 396.999 317.364 400.898 325.483L596.165 732.061C598.476 736.873 602.295 740.798 607.042 743.24L1058.6 975.532C1064.48 978.557 1071.33 979.076 1077.6 976.972L1429.45 858.871Z" stroke="url(#paint15_linear_14_310)" stroke-opacity="0.3"/>
<path opacity="0.246377" d="M1405.26 906.945C1415.28 904.135 1422.43 895.305 1423.1 884.922L1446.65 517.437C1447.08 510.826 1444.8 504.325 1440.36 499.417L1102.95 127.126C1099.35 123.156 1094.55 120.474 1089.28 119.493L650.181 37.6902C641.343 36.0437 632.312 39.3704 626.654 46.3575L419.432 302.255C413.774 309.242 412.398 318.767 415.846 327.07L587.155 739.566C589.21 744.514 592.831 748.653 597.462 751.347L1031.77 1003.98C1037.5 1007.31 1044.33 1008.18 1050.7 1006.39L1405.26 906.945Z" stroke="url(#paint16_linear_14_310)" stroke-opacity="0.3"/>
<path opacity="0.26087" d="M1380.23 953.455C1390.34 951.161 1397.91 942.751 1399.14 932.456L1442.29 569.678C1443.07 563.088 1441.15 556.463 1436.96 551.316L1123.13 165.829C1119.74 161.658 1115.06 158.72 1109.83 157.469L679.691 54.5931C670.962 52.5055 661.791 55.3576 655.785 62.0274L436.868 305.159C430.863 311.829 428.985 321.249 431.974 329.711L579.248 746.742C581.039 751.813 584.449 756.155 588.953 759.096L1005.13 1030.91C1010.69 1034.54 1017.48 1035.76 1023.95 1034.29L1380.23 953.455Z" stroke="url(#paint17_linear_14_310)" stroke-opacity="0.3"/>
<path opacity="0.275362" d="M1354.46 998.373C1364.63 996.597 1372.6 988.627 1374.38 978.45L1436.69 621.412C1437.83 614.864 1436.27 608.132 1432.35 602.761L1142.55 205.517C1139.37 201.155 1134.84 197.966 1129.65 196.446L709.464 73.2048C700.868 70.6833 691.58 73.0553 685.245 79.3904L455.396 309.239C449.061 315.574 446.689 324.861 449.211 333.458L572.452 753.648C573.972 758.829 577.161 763.364 581.523 766.546L978.767 1056.34C984.138 1060.26 990.87 1061.83 997.419 1060.68L1354.46 998.373Z" stroke="url(#paint18_linear_14_310)" stroke-opacity="0.3"/>
<path opacity="0.289855" d="M1328.04 1041.67C1338.25 1040.41 1346.59 1032.9 1348.91 1022.87L1429.9 672.581C1431.4 666.092 1430.2 659.273 1426.56 653.692L1161.16 246.138C1158.2 241.595 1153.82 238.162 1148.7 236.376L739.403 93.5226C730.96 90.5758 721.582 92.4633 714.936 98.4472L474.941 314.539C468.295 320.523 465.438 329.653 467.486 338.358L566.774 760.345C568.015 765.622 570.972 770.338 575.18 773.755L952.759 1080.31C957.929 1084.5 964.585 1086.42 971.195 1085.6L1328.04 1041.67Z" stroke="url(#paint19_linear_14_310)" stroke-opacity="0.3"/>
<path opacity="0.304348" d="M1301.06 1083.33C1311.29 1082.59 1319.98 1075.56 1322.83 1065.71L1421.96 723.125C1423.82 716.716 1422.98 709.829 1419.64 704.053L1178.9 287.643C1176.18 282.931 1171.96 279.261 1166.92 277.21L769.408 115.54C761.14 112.177 751.697 113.578 744.76 119.195L495.423 321.103C488.486 326.721 485.154 335.666 486.724 344.453L562.213 766.894C563.17 772.252 565.884 777.138 569.927 780.782L927.185 1102.83C932.14 1107.3 938.703 1109.55 945.358 1109.07L1301.06 1083.33Z" stroke="url(#paint20_linear_14_310)" stroke-opacity="0.3"/>
<path opacity="0.318841" d="M1273.64 1123.35C1283.86 1123.12 1292.86 1116.58 1296.23 1106.93L1412.92 772.992C1415.13 766.682 1414.66 759.746 1411.62 753.79L1195.75 329.978C1193.27 325.109 1189.23 321.209 1184.28 318.897L799.384 139.245C791.311 135.477 781.828 136.388 774.621 141.625L516.764 328.969C509.556 334.205 505.759 342.942 506.848 351.784L558.769 773.355C559.437 778.779 561.899 783.823 565.764 787.687L902.123 1123.96C906.85 1128.69 913.302 1131.28 919.984 1131.13L1273.64 1123.35Z" stroke="url(#paint21_linear_14_310)" stroke-opacity="0.3"/>
<path opacity="0.333333" d="M1245.86 1161.7C1256.04 1161.99 1265.33 1155.95 1269.21 1146.54L1402.82 822.13C1405.37 815.938 1405.28 808.973 1402.56 802.853L1211.65 373.088C1209.42 368.074 1205.57 363.952 1200.72 361.384L829.236 164.619C821.378 160.458 811.882 160.88 804.425 165.723L538.884 338.167C531.426 343.01 527.178 351.513 527.784 360.385L556.439 779.788C556.813 785.262 559.014 790.452 562.689 794.527L877.648 1143.73C882.133 1148.71 888.458 1151.63 895.151 1151.82L1245.86 1161.7Z" stroke="url(#paint22_linear_14_310)" stroke-opacity="0.3"/>
<path opacity="0.347826" d="M1217.82 1198.4C1227.93 1199.19 1237.49 1193.67 1241.85 1184.52L1391.72 870.489C1394.61 864.434 1394.89 857.46 1392.49 851.193L1226.57 416.915C1224.6 411.768 1220.96 407.434 1216.23 404.613L858.87 191.639C851.247 187.096 841.763 187.03 834.078 191.467L561.699 348.725C554.013 353.162 549.328 361.409 549.451 370.282L555.214 786.249C555.29 791.759 557.221 797.082 560.695 801.358L853.831 1162.19C858.061 1167.4 864.242 1170.64 870.93 1171.17L1217.82 1198.4Z" stroke="url(#paint23_linear_14_310)" stroke-opacity="0.3"/>
<path opacity="0.362319" d="M1189.62 1233.44C1199.64 1234.73 1209.42 1229.74 1214.26 1220.88L1379.66 918.026C1382.88 912.127 1383.53 905.164 1381.47 898.767L1240.49 461.401C1238.79 456.134 1235.36 451.597 1230.75 448.529L888.197 220.276C880.827 215.365 871.38 214.814 863.489 218.835L585.128 360.667C577.236 364.688 572.13 372.654 571.77 381.503L555.082 792.8C554.858 798.329 556.511 803.771 559.774 808.24L830.741 1179.38C834.705 1184.81 840.724 1188.37 847.39 1189.23L1189.62 1233.44Z" stroke="url(#paint24_linear_14_310)" stroke-opacity="0.3"/>
<path opacity="0.376812" d="M1161.35 1266.83C1171.25 1268.62 1181.23 1264.17 1186.53 1255.62L1366.69 964.699C1370.24 958.974 1371.27 952.041 1369.55 945.531L1253.36 506.485C1251.94 501.112 1248.73 496.383 1244.27 493.073L917.127 250.497C910.028 245.233 900.643 244.201 892.569 247.796L609.088 374.01C601.014 377.604 595.502 385.269 594.663 394.068L556.031 799.496C555.504 805.028 556.873 810.576 559.915 815.227L808.444 1195.35C812.129 1200.99 817.972 1204.86 824.599 1206.06L1161.35 1266.83Z" stroke="url(#paint25_linear_14_310)" stroke-opacity="0.3"/>
<path opacity="0.391304" d="M1133.1 1298.59C1142.86 1300.86 1153.01 1296.96 1158.74 1288.74L1352.89 1010.47C1356.75 1004.93 1358.16 998.054 1356.78 991.449L1265.17 552.106C1264.03 546.641 1261.06 541.73 1256.75 538.184L945.575 282.264C938.763 276.662 929.466 275.153 921.232 278.314L633.496 388.766C625.262 391.926 619.363 399.268 618.049 407.99L558.044 806.392C557.213 811.912 558.291 817.55 561.101 822.374L787.001 1210.17C790.397 1216 796.047 1220.17 802.619 1221.7L1133.1 1298.59Z" stroke="url(#paint26_linear_14_310)" stroke-opacity="0.3"/>
<path opacity="0.405797" d="M1104.97 1328.74C1114.56 1331.48 1124.85 1328.13 1131 1320.28L1338.3 1055.3C1342.46 1049.97 1344.24 1043.17 1343.22 1036.48L1275.9 598.201C1275.05 592.659 1272.32 587.576 1268.17 583.802L973.458 315.534C966.95 309.61 957.765 307.632 949.395 310.351L658.269 404.944C649.9 407.663 643.631 414.663 641.848 423.28L561.102 813.544C559.966 819.035 560.747 824.749 563.316 829.733L766.471 1223.88C769.569 1229.89 775.011 1234.35 781.511 1236.21L1104.97 1328.74Z" stroke="url(#paint27_linear_14_310)" stroke-opacity="0.3"/>
<path opacity="0.42029" d="M1077.04 1357.29C1086.44 1360.5 1096.85 1357.71 1103.38 1350.23L1322.98 1099.16C1327.43 1094.06 1329.58 1087.34 1328.91 1080.6L1285.52 644.707C1284.96 639.102 1282.49 633.861 1278.52 629.865L1000.7 350.259C994.506 344.031 985.457 341.59 976.975 343.863L683.325 422.546C674.843 424.819 668.226 431.457 665.981 439.946L565.181 821.004C563.741 826.449 564.22 832.224 566.54 837.357L746.909 1236.55C749.698 1242.72 754.918 1247.47 761.329 1249.65L1077.04 1357.29Z" stroke="url(#paint28_linear_14_310)" stroke-opacity="0.3"/>
<path opacity="0.434783" d="M1049.4 1384.29C1058.59 1387.95 1069.07 1385.72 1075.98 1378.64L1306.99 1142.02C1311.73 1137.17 1314.24 1130.56 1313.93 1123.78L1294.02 691.56C1293.76 685.908 1291.55 680.519 1287.77 676.311L1027.21 386.389C1021.36 379.873 1012.47 376.98 1003.9 378.801L708.582 441.572C700.012 443.394 693.068 449.653 690.368 457.988L570.258 828.823C568.514 834.206 568.688 840.027 570.749 845.297L728.365 1248.25C730.837 1254.57 735.821 1259.58 742.127 1262.09L1049.4 1384.29Z" stroke="url(#paint29_linear_14_310)" stroke-opacity="0.3"/>
<path opacity="0.449275" d="M1022.14 1409.77C1031.09 1413.86 1041.63 1412.19 1048.88 1405.53L1290.39 1183.87C1295.4 1179.27 1298.27 1172.79 1298.32 1165.99L1301.4 738.696C1301.44 733.011 1299.5 727.489 1295.91 723.075L1052.94 423.868C1047.42 417.083 1038.72 413.747 1030.08 415.115L733.959 462.016C725.326 463.384 718.075 469.247 714.931 477.403L576.304 837.051C574.259 842.355 574.123 848.206 575.919 853.601L710.886 1259.03C713.034 1265.49 717.767 1270.76 723.953 1273.58L1022.14 1409.77Z" stroke="url(#paint30_linear_14_310)" stroke-opacity="0.3"/>
<path opacity="0.463768" d="M995.332 1433.75C1004.03 1438.26 1014.59 1437.15 1022.16 1430.93L1273.24 1224.67C1278.51 1220.34 1281.73 1214.02 1282.15 1207.22L1307.63 786.051C1307.98 780.349 1306.32 774.705 1302.94 770.096L1077.79 462.637C1072.64 455.602 1064.14 451.835 1055.47 452.747L759.376 483.867C750.704 484.778 743.169 490.231 739.593 498.184L583.289 845.735C580.946 850.945 580.497 856.81 582.021 862.316L694.514 1268.98C696.331 1275.55 700.801 1281.06 706.851 1284.2L995.332 1433.75Z" stroke="url(#paint31_linear_14_310)" stroke-opacity="0.3"/>
<path opacity="0.478261" d="M969.063 1456.3C977.49 1461.21 988.031 1460.66 995.898 1454.89L1255.61 1264.41C1261.12 1260.37 1264.69 1254.22 1265.46 1247.43L1312.73 833.56C1313.38 827.856 1312 822.105 1308.85 817.31L1101.73 502.634C1096.94 495.368 1088.67 491.183 1079.98 491.638L784.755 507.11C776.068 507.565 768.274 512.593 764.277 520.319L591.182 854.921C588.544 860.02 587.781 865.883 589.025 871.487L679.288 1278.15C680.768 1284.82 684.962 1290.56 690.861 1294L969.063 1456.3Z" stroke="url(#paint32_linear_14_310)" stroke-opacity="0.3"/>
<path opacity="0.492754" d="M943.407 1477.44C951.54 1482.75 962.038 1482.75 970.172 1477.44L1237.56 1303.07C1243.29 1299.34 1247.2 1293.37 1248.34 1286.62L1316.68 881.158C1317.64 875.469 1316.56 869.624 1313.63 864.653L1124.67 543.792C1120.27 536.315 1112.24 531.725 1103.56 531.725L810.02 531.725C801.342 531.725 793.312 536.315 788.909 543.792L599.948 864.653C597.02 869.624 595.941 875.469 596.9 881.158L665.242 1286.62C666.38 1293.37 670.287 1299.34 676.019 1303.07L943.407 1477.44Z" stroke="url(#paint33_linear_14_310)" stroke-opacity="0.3"/>
<path opacity="0.507246" d="M918.434 1497.24C926.256 1502.92 936.682 1503.46 945.054 1498.64L1219.15 1340.66C1225.09 1337.23 1229.32 1331.48 1230.82 1324.78L1319.49 928.783C1320.76 923.125 1319.98 917.2 1317.29 912.064L1146.57 586.044C1142.55 578.376 1134.79 573.396 1126.15 572.943L835.096 557.69C826.452 557.237 818.211 561.378 813.416 568.584L609.55 874.972C606.338 879.8 604.942 885.61 605.611 891.37L652.406 1294.47C653.197 1301.28 656.806 1307.45 662.356 1311.48L918.434 1497.24Z" stroke="url(#paint34_linear_14_310)" stroke-opacity="0.3"/>
<path opacity="0.521739" d="M894.214 1515.75C901.707 1521.78 912.033 1522.86 920.615 1518.53L1200.44 1377.15C1206.57 1374.05 1211.12 1368.52 1212.98 1361.9L1321.18 976.37C1322.76 970.759 1322.28 964.769 1319.83 959.478L1167.37 629.317C1163.75 621.48 1156.27 616.126 1147.69 615.223L859.911 584.977C851.325 584.074 842.898 587.757 837.729 594.671L619.951 885.917C616.461 890.585 614.749 896.344 615.123 902.16L640.806 1301.77C641.246 1308.62 644.547 1314.98 649.902 1319.29L894.214 1515.75Z" stroke="url(#paint35_linear_14_310)" stroke-opacity="0.3"/>
<path opacity="0.536232" d="M870.81 1533.03C877.96 1539.39 888.156 1541 896.92 1537.16L1181.49 1412.55C1187.8 1409.79 1192.65 1404.5 1194.86 1397.98L1321.75 1023.86C1323.63 1018.31 1323.46 1012.27 1321.27 1006.84L1187.03 673.539C1183.81 665.553 1176.64 659.841 1168.13 658.494L884.394 613.554C875.89 612.207 867.304 615.423 861.777 622.024L631.11 897.525C627.349 902.017 625.322 907.709 625.397 913.567L630.461 1308.59C630.549 1315.47 633.531 1322 638.677 1326.58L870.81 1533.03Z" stroke="url(#paint36_linear_14_310)" stroke-opacity="0.3"/>
<path opacity="0.550725" d="M848.284 1549.13C855.074 1555.8 865.113 1557.94 874.029 1554.61L1162.36 1446.86C1168.83 1444.45 1173.98 1439.42 1176.54 1433.01L1321.2 1071.18C1323.39 1065.72 1323.53 1059.64 1321.61 1054.08L1205.5 718.633C1202.69 710.519 1195.84 704.467 1187.44 702.682L908.478 643.387C900.08 641.602 891.36 644.344 885.494 650.614L642.984 909.829C638.96 914.131 636.62 919.738 636.394 925.624L621.387 1315.01C621.121 1321.9 623.777 1328.59 628.7 1333.43L848.284 1549.13Z" stroke="url(#paint37_linear_14_310)" stroke-opacity="0.3"/>
<path opacity="0.565217" d="M826.692 1564.13C833.11 1571.09 842.964 1573.73 852.003 1570.91L1143.13 1480.08C1149.73 1478.02 1155.15 1473.27 1158.06 1466.99L1319.58 1118.29C1322.06 1112.92 1322.52 1106.82 1320.87 1101.14L1222.74 764.521C1220.35 756.301 1213.83 749.928 1205.56 747.712L932.1 674.438C923.829 672.222 915.002 674.484 908.817 680.404L655.533 922.862C651.254 926.957 648.604 932.463 648.073 938.362L613.598 1321.1C612.978 1327.99 615.298 1334.82 619.986 1339.91L826.692 1564.13Z" stroke="url(#paint38_linear_14_310)" stroke-opacity="0.3"/>
<path opacity="0.57971" d="M806.085 1578.09C812.118 1585.32 821.762 1588.45 830.893 1586.15L1123.83 1512.22C1130.56 1510.53 1136.24 1506.06 1139.49 1499.94L1316.88 1165.12C1319.66 1159.85 1320.44 1153.76 1319.06 1147.96L1238.73 811.125C1236.75 802.82 1230.59 796.145 1222.47 793.507L955.194 706.664C947.075 704.025 938.167 705.804 931.684 711.359L668.708 936.652C664.186 940.526 661.229 945.915 660.392 951.812L607.099 1326.95C606.124 1333.82 608.102 1340.77 612.543 1346.09L806.085 1578.09Z" stroke="url(#paint39_linear_14_310)" stroke-opacity="0.3"/>
<path opacity="0.594203" d="M786.512 1591.07C792.149 1598.55 801.557 1602.16 810.751 1600.38L1104.55 1543.29C1111.37 1541.97 1117.3 1537.81 1120.88 1531.85L1313.13 1211.61C1316.22 1206.47 1317.31 1200.38 1316.21 1194.5L1253.43 858.363C1251.87 849.996 1246.08 843.039 1238.13 839.988L977.706 740.021C969.759 736.97 960.798 738.263 954.038 743.436L682.467 951.225C677.711 954.865 674.452 960.12 673.307 965.999L601.895 1332.63C600.567 1339.45 602.196 1346.51 606.378 1352.06L786.512 1591.07Z" stroke="url(#paint40_linear_14_310)" stroke-opacity="0.3"/>
<path opacity="0.608696" d="M768.015 1603.16C773.246 1610.86 782.394 1614.93 791.62 1613.67L1085.32 1573.3C1092.22 1572.35 1098.39 1568.52 1102.28 1562.75L1308.37 1257.7C1311.74 1252.71 1313.16 1246.65 1312.35 1240.68L1266.83 906.155C1265.68 897.746 1260.27 890.528 1252.52 887.077L999.577 774.46C991.824 771.009 982.837 771.815 975.822 776.591L696.762 966.606C691.783 969.996 688.227 975.102 686.774 980.948L597.982 1338.22C596.303 1344.97 597.578 1352.13 601.489 1357.89L768.015 1603.16Z" stroke="url(#paint41_linear_14_310)" stroke-opacity="0.3"/>
<path opacity="0.623188" d="M750.633 1614.41C755.45 1622.32 764.314 1626.84 773.544 1626.09L1066.21 1602.27C1073.16 1601.71 1079.55 1598.2 1083.76 1592.64L1302.62 1303.35C1306.28 1298.52 1308.01 1292.5 1307.49 1286.47L1278.89 954.419C1278.17 945.99 1273.15 938.533 1265.61 934.692L1020.76 809.933C1013.22 806.093 1004.23 806.412 996.986 810.779L711.545 982.816C706.355 985.943 702.509 990.883 700.748 996.681L595.356 1343.78C593.328 1350.46 594.245 1357.69 597.876 1363.65L750.633 1614.41Z" stroke="url(#paint42_linear_14_310)" stroke-opacity="0.3"/>
<path opacity="0.637681" d="M734.4 1624.92C738.796 1633.01 747.355 1637.95 756.557 1637.71L1047.27 1630.22C1054.26 1630.04 1060.84 1626.88 1065.36 1621.54L1295.92 1348.5C1299.85 1343.84 1301.9 1337.89 1301.68 1331.8L1289.62 1003.07C1289.31 994.645 1284.69 986.969 1277.39 982.752L1041.19 846.386C1033.89 842.169 1024.93 842.005 1017.48 845.951L726.768 999.871C721.381 1002.72 717.25 1007.48 715.183 1013.22L594.006 1349.41C591.634 1355.99 592.188 1363.27 595.528 1369.41L734.4 1624.92Z" stroke="url(#paint43_linear_14_310)" stroke-opacity="0.3"/>
<path opacity="0.652174" d="M719.345 1634.75C723.314 1642.99 731.546 1648.34 740.692 1648.61L1028.55 1657.18C1035.56 1657.39 1042.32 1654.58 1047.13 1649.47L1288.29 1393.11C1292.49 1388.64 1294.86 1382.76 1294.94 1376.63L1299 1052.03C1299.11 1043.63 1294.9 1035.76 1287.85 1031.18L1060.85 883.763C1053.8 879.186 1044.9 878.541 1037.26 882.055L742.381 1017.79C736.81 1020.35 732.403 1024.91 730.032 1030.57L593.916 1355.16C591.204 1361.62 591.393 1368.94 594.434 1375.26L719.345 1634.75Z" stroke="url(#paint44_linear_14_310)" stroke-opacity="0.3"/>
<path opacity="0.666667" d="M705.493 1643.97C709.029 1652.35 716.915 1658.08 725.976 1658.85L1010.11 1683.16C1017.11 1683.75 1024.03 1681.32 1029.12 1676.46L1279.78 1437.11C1284.24 1432.85 1286.93 1427.06 1287.31 1420.9L1307.03 1101.22C1307.54 1092.85 1303.75 1084.81 1296.98 1079.89L1079.68 922.009C1072.9 917.085 1064.08 915.965 1056.28 919.039L758.337 1036.58C752.596 1038.85 747.921 1043.19 745.247 1048.76L595.069 1361.11C592.024 1367.44 591.845 1374.78 594.579 1381.25L705.493 1643.97Z" stroke="url(#paint45_linear_14_310)" stroke-opacity="0.3"/>
<path opacity="0.681159" d="M692.861 1652.68C695.963 1661.16 703.484 1667.25 712.431 1668.52L991.992 1708.19C998.967 1709.18 1006.03 1707.12 1011.38 1702.53L1270.42 1480.48C1275.14 1476.44 1278.14 1470.76 1278.83 1464.59L1313.71 1150.54C1314.63 1142.25 1311.26 1134.05 1304.77 1128.8L1097.64 961.063C1091.15 955.81 1082.44 954.221 1074.51 956.847L774.584 1056.26C768.688 1058.21 763.755 1062.33 760.782 1067.78L597.441 1367.33C594.069 1373.52 593.522 1380.85 595.94 1387.47L692.861 1652.68Z" stroke="url(#paint46_linear_14_310)" stroke-opacity="0.3"/>
<path opacity="0.695652" d="M681.467 1660.94C684.131 1669.51 691.272 1675.94 700.077 1677.69L974.245 1732.31C981.171 1733.69 988.355 1732.01 993.955 1727.71L1260.26 1523.17C1265.22 1519.36 1268.54 1513.8 1269.53 1507.63L1319.04 1199.93C1320.36 1191.72 1317.43 1183.4 1311.24 1177.83L1114.7 1000.87C1108.52 995.301 1099.94 993.252 1091.91 995.424L791.074 1076.83C785.039 1078.46 779.858 1082.34 776.589 1087.67L601.007 1373.9C597.315 1379.92 596.399 1387.23 598.495 1393.98L681.467 1660.94Z" stroke="url(#paint47_linear_14_310)" stroke-opacity="0.3"/>
<defs>
<linearGradient id="paint0_linear_14_310" x1="1642.4" y1="-29.0415" x2="188.864" y2="201.176" gradientUnits="userSpaceOnUse">
<stop stop-color="#009035"/>
<stop offset="1" stop-color="#004622"/>
</linearGradient>
<linearGradient id="paint1_linear_14_310" x1="1641.47" y1="35.7653" x2="190.798" y2="188.237" gradientUnits="userSpaceOnUse">
<stop stop-color="#009035"/>
<stop offset="1" stop-color="#004622"/>
</linearGradient>
<linearGradient id="paint2_linear_14_310" x1="1638.56" y1="100.122" x2="194.864" y2="175.783" gradientUnits="userSpaceOnUse">
<stop stop-color="#009035"/>
<stop offset="1" stop-color="#004622"/>
</linearGradient>
<linearGradient id="paint3_linear_14_310" x1="1633.71" y1="163.925" x2="201.018" y2="163.925" gradientUnits="userSpaceOnUse">
<stop stop-color="#009035"/>
<stop offset="1" stop-color="#004622"/>
</linearGradient>
<linearGradient id="paint4_linear_14_310" x1="1626.96" y1="227.072" x2="209.207" y2="152.77" gradientUnits="userSpaceOnUse">
<stop stop-color="#009035"/>
<stop offset="1" stop-color="#004622"/>
</linearGradient>
<linearGradient id="paint5_linear_14_310" x1="1618.38" y1="289.466" x2="219.372" y2="142.425" gradientUnits="userSpaceOnUse">
<stop stop-color="#009035"/>
<stop offset="1" stop-color="#004622"/>
</linearGradient>
<linearGradient id="paint6_linear_14_310" x1="1608.01" y1="351.016" x2="231.449" y2="132.99" gradientUnits="userSpaceOnUse">
<stop stop-color="#009035"/>
<stop offset="1" stop-color="#004622"/>
</linearGradient>
<linearGradient id="paint7_linear_14_310" x1="1595.93" y1="411.63" x2="245.371" y2="124.559" gradientUnits="userSpaceOnUse">
<stop stop-color="#009035"/>
<stop offset="1" stop-color="#004622"/>
</linearGradient>
<linearGradient id="paint8_linear_14_310" x1="1582.2" y1="471.223" x2="261.065" y2="117.225" gradientUnits="userSpaceOnUse">
<stop stop-color="#009035"/>
<stop offset="1" stop-color="#004622"/>
</linearGradient>
<linearGradient id="paint9_linear_14_310" x1="1566.9" y1="529.716" x2="278.453" y2="111.074" gradientUnits="userSpaceOnUse">
<stop stop-color="#009035"/>
<stop offset="1" stop-color="#004622"/>
</linearGradient>
<linearGradient id="paint10_linear_14_310" x1="1550.1" y1="587.033" x2="297.452" y2="106.187" gradientUnits="userSpaceOnUse">
<stop stop-color="#009035"/>
<stop offset="1" stop-color="#004622"/>
</linearGradient>
<linearGradient id="paint11_linear_14_310" x1="1531.88" y1="643.103" x2="317.977" y2="102.641" gradientUnits="userSpaceOnUse">
<stop stop-color="#009035"/>
<stop offset="1" stop-color="#004622"/>
</linearGradient>
<linearGradient id="paint12_linear_14_310" x1="1512.32" y1="697.862" x2="339.94" y2="100.506" gradientUnits="userSpaceOnUse">
<stop stop-color="#009035"/>
<stop offset="1" stop-color="#004622"/>
</linearGradient>
<linearGradient id="paint13_linear_14_310" x1="1491.5" y1="751.246" x2="363.248" y2="99.8467" gradientUnits="userSpaceOnUse">
<stop stop-color="#009035"/>
<stop offset="1" stop-color="#004622"/>
</linearGradient>
<linearGradient id="paint14_linear_14_310" x1="1469.53" y1="803.203" x2="387.806" y2="100.722" gradientUnits="userSpaceOnUse">
<stop stop-color="#009035"/>
<stop offset="1" stop-color="#004622"/>
</linearGradient>
<linearGradient id="paint15_linear_14_310" x1="1446.49" y1="853.683" x2="413.516" y2="103.186" gradientUnits="userSpaceOnUse">
<stop stop-color="#009035"/>
<stop offset="1" stop-color="#004622"/>
</linearGradient>
<linearGradient id="paint16_linear_14_310" x1="1422.46" y1="902.64" x2="440.279" y2="107.285" gradientUnits="userSpaceOnUse">
<stop stop-color="#009035"/>
<stop offset="1" stop-color="#004622"/>
</linearGradient>
<linearGradient id="paint17_linear_14_310" x1="1397.55" y1="950.038" x2="467.993" y2="113.061" gradientUnits="userSpaceOnUse">
<stop stop-color="#009035"/>
<stop offset="1" stop-color="#004622"/>
</linearGradient>
<linearGradient id="paint18_linear_14_310" x1="1371.85" y1="995.844" x2="496.556" y2="120.55" gradientUnits="userSpaceOnUse">
<stop stop-color="#009035"/>
<stop offset="1" stop-color="#004622"/>
</linearGradient>
<linearGradient id="paint19_linear_14_310" x1="1345.46" y1="1040.03" x2="525.864" y2="129.778" gradientUnits="userSpaceOnUse">
<stop stop-color="#009035"/>
<stop offset="1" stop-color="#004622"/>
</linearGradient>
<linearGradient id="paint20_linear_14_310" x1="1318.47" y1="1082.58" x2="555.812" y2="140.771" gradientUnits="userSpaceOnUse">
<stop stop-color="#009035"/>
<stop offset="1" stop-color="#004622"/>
</linearGradient>
<linearGradient id="paint21_linear_14_310" x1="1290.98" y1="1123.46" x2="586.296" y2="153.545" gradientUnits="userSpaceOnUse">
<stop stop-color="#009035"/>
<stop offset="1" stop-color="#004622"/>
</linearGradient>
<linearGradient id="paint22_linear_14_310" x1="1263.1" y1="1162.69" x2="617.211" y2="168.11" gradientUnits="userSpaceOnUse">
<stop stop-color="#009035"/>
<stop offset="1" stop-color="#004622"/>
</linearGradient>
<linearGradient id="paint23_linear_14_310" x1="1234.91" y1="1200.24" x2="648.452" y2="184.47" gradientUnits="userSpaceOnUse">
<stop stop-color="#009035"/>
<stop offset="1" stop-color="#004622"/>
</linearGradient>
<linearGradient id="paint24_linear_14_310" x1="1206.51" y1="1236.12" x2="679.916" y2="202.626" gradientUnits="userSpaceOnUse">
<stop stop-color="#009035"/>
<stop offset="1" stop-color="#004622"/>
</linearGradient>
<linearGradient id="paint25_linear_14_310" x1="1178" y1="1270.34" x2="711.5" y2="222.569" gradientUnits="userSpaceOnUse">
<stop stop-color="#009035"/>
<stop offset="1" stop-color="#004622"/>
</linearGradient>
<linearGradient id="paint26_linear_14_310" x1="1149.47" y1="1302.91" x2="743.103" y2="244.286" gradientUnits="userSpaceOnUse">
<stop stop-color="#009035"/>
<stop offset="1" stop-color="#004622"/>
</linearGradient>
<linearGradient id="paint27_linear_14_310" x1="1121.02" y1="1333.85" x2="774.625" y2="267.758" gradientUnits="userSpaceOnUse">
<stop stop-color="#009035"/>
<stop offset="1" stop-color="#004622"/>
</linearGradient>
<linearGradient id="paint28_linear_14_310" x1="1092.73" y1="1363.17" x2="805.97" y2="292.962" gradientUnits="userSpaceOnUse">
<stop stop-color="#009035"/>
<stop offset="1" stop-color="#004622"/>
</linearGradient>
<linearGradient id="paint29_linear_14_310" x1="1064.7" y1="1390.92" x2="837.042" y2="319.869" gradientUnits="userSpaceOnUse">
<stop stop-color="#009035"/>
<stop offset="1" stop-color="#004622"/>
</linearGradient>
<linearGradient id="paint30_linear_14_310" x1="1037.01" y1="1417.11" x2="867.747" y2="348.442" gradientUnits="userSpaceOnUse">
<stop stop-color="#009035"/>
<stop offset="1" stop-color="#004622"/>
</linearGradient>
<linearGradient id="paint31_linear_14_310" x1="1009.74" y1="1441.78" x2="897.998" y2="378.643" gradientUnits="userSpaceOnUse">
<stop stop-color="#009035"/>
<stop offset="1" stop-color="#004622"/>
</linearGradient>
<linearGradient id="paint32_linear_14_310" x1="982.973" y1="1464.99" x2="927.706" y2="410.428" gradientUnits="userSpaceOnUse">
<stop stop-color="#009035"/>
<stop offset="1" stop-color="#004622"/>
</linearGradient>
<linearGradient id="paint33_linear_14_310" x1="956.789" y1="1486.77" x2="956.789" y2="443.747" gradientUnits="userSpaceOnUse">
<stop stop-color="#009035"/>
<stop offset="1" stop-color="#004622"/>
</linearGradient>
<linearGradient id="paint34_linear_14_310" x1="931.261" y1="1507.16" x2="985.168" y2="478.547" gradientUnits="userSpaceOnUse">
<stop stop-color="#009035"/>
<stop offset="1" stop-color="#004622"/>
</linearGradient>
<linearGradient id="paint35_linear_14_310" x1="906.458" y1="1526.24" x2="1012.77" y2="514.77" gradientUnits="userSpaceOnUse">
<stop stop-color="#009035"/>
<stop offset="1" stop-color="#004622"/>
</linearGradient>
<linearGradient id="paint36_linear_14_310" x1="882.447" y1="1544.05" x2="1039.52" y2="552.357" gradientUnits="userSpaceOnUse">
<stop stop-color="#009035"/>
<stop offset="1" stop-color="#004622"/>
</linearGradient>
<linearGradient id="paint37_linear_14_310" x1="859.291" y1="1560.65" x2="1065.34" y2="591.241" gradientUnits="userSpaceOnUse">
<stop stop-color="#009035"/>
<stop offset="1" stop-color="#004622"/>
</linearGradient>
<linearGradient id="paint38_linear_14_310" x1="837.048" y1="1576.1" x2="1090.19" y2="631.356" gradientUnits="userSpaceOnUse">
<stop stop-color="#009035"/>
<stop offset="1" stop-color="#004622"/>
</linearGradient>
<linearGradient id="paint39_linear_14_310" x1="815.772" y1="1590.48" x2="1114" y2="672.629" gradientUnits="userSpaceOnUse">
<stop stop-color="#009035"/>
<stop offset="1" stop-color="#004622"/>
</linearGradient>
<linearGradient id="paint40_linear_14_310" x1="795.514" y1="1603.85" x2="1136.71" y2="714.989" gradientUnits="userSpaceOnUse">
<stop stop-color="#009035"/>
<stop offset="1" stop-color="#004622"/>
</linearGradient>
<linearGradient id="paint41_linear_14_310" x1="776.317" y1="1616.27" x2="1158.29" y2="758.358" gradientUnits="userSpaceOnUse">
<stop stop-color="#009035"/>
<stop offset="1" stop-color="#004622"/>
</linearGradient>
<linearGradient id="paint42_linear_14_310" x1="758.224" y1="1627.84" x2="1178.67" y2="802.659" gradientUnits="userSpaceOnUse">
<stop stop-color="#009035"/>
<stop offset="1" stop-color="#004622"/>
</linearGradient>
<linearGradient id="paint43_linear_14_310" x1="741.27" y1="1638.6" x2="1197.83" y2="847.812" gradientUnits="userSpaceOnUse">
<stop stop-color="#009035"/>
<stop offset="1" stop-color="#004622"/>
</linearGradient>
<linearGradient id="paint44_linear_14_310" x1="725.486" y1="1648.66" x2="1215.74" y2="893.736" gradientUnits="userSpaceOnUse">
<stop stop-color="#009035"/>
<stop offset="1" stop-color="#004622"/>
</linearGradient>
<linearGradient id="paint45_linear_14_310" x1="710.9" y1="1658.07" x2="1232.35" y2="940.348" gradientUnits="userSpaceOnUse">
<stop stop-color="#009035"/>
<stop offset="1" stop-color="#004622"/>
</linearGradient>
<linearGradient id="paint46_linear_14_310" x1="697.532" y1="1666.92" x2="1247.66" y2="987.565" gradientUnits="userSpaceOnUse">
<stop stop-color="#009035"/>
<stop offset="1" stop-color="#004622"/>
</linearGradient>
<linearGradient id="paint47_linear_14_310" x1="685.401" y1="1675.28" x2="1261.64" y2="1035.3" gradientUnits="userSpaceOnUse">
<stop stop-color="#009035"/>
<stop offset="1" stop-color="#004622"/>
</linearGradient>
</defs>
</svg>
