<svg width="96" height="22" viewBox="0 0 96 22" fill="none" xmlns="http://www.w3.org/2000/svg">
<g clip-path="url(#clip0_858_104)">
<path d="M0 21.2596V0.706848H4.23721V21.2596H0Z" fill="white"/>
<path d="M23.2672 21.2596L21.5185 16.4153H13.1324L11.3547 21.2596H6.87982L14.6438 0.706787H20.0075L27.771 21.2596H23.2671H23.2672ZM14.5845 12.422H20.037L17.3107 4.96433L14.5845 12.422Z" fill="white"/>
<path d="M38.6247 21.6118C35.543 21.6118 32.9847 20.599 30.9499 18.573C28.915 16.5474 27.8976 14.0173 27.8976 10.9832C27.8976 7.94957 28.915 5.41945 30.9499 3.39348C32.9847 1.36782 35.543 0.354614 38.6247 0.354614C41.0742 0.354614 43.203 1.035 45.0106 2.39522C46.8181 3.7555 48.0281 5.54175 48.6408 7.7535H44.107C43.613 6.67717 42.887 5.84033 41.9289 5.24321C40.9708 4.6465 39.8594 4.34796 38.5952 4.34796C36.6985 4.34796 35.1529 4.96912 33.9576 6.21228C32.7626 7.45496 32.1648 9.04555 32.1648 10.9832C32.1648 12.9213 32.7627 14.5115 33.9576 15.7546C35.1529 16.9974 36.6985 17.619 38.5952 17.619C39.8595 17.619 40.9708 17.3204 41.9289 16.7234C42.887 16.1266 43.613 15.2898 44.107 14.213H48.6408C48.0282 16.4248 46.8181 18.211 45.0106 19.5713C43.203 20.9319 41.0742 21.6119 38.6247 21.6119V21.6118Z" fill="white"/>
<path d="M58.1533 16.3795C57.7252 15.8172 57.3683 15.2299 57.0796 14.6266C56.7815 14.0037 56.5556 13.3614 56.3983 12.7102C56.2898 12.2585 56.214 11.8009 56.1704 11.3421C56.1266 10.8819 56.1161 10.4201 56.1377 9.96139C56.1598 9.49006 56.2134 9.02863 56.297 8.58089C56.3828 8.12124 56.4999 7.6697 56.6466 7.23011L56.6485 7.23006C56.7932 6.79674 56.9668 6.37349 57.1672 5.96447C57.3676 5.55541 57.5972 5.15579 57.8538 4.76974C58.1097 4.38471 58.389 4.01849 58.6892 3.6751C58.9903 3.3305 59.316 3.00371 59.6635 2.69824C60.1825 2.24298 60.7523 1.83459 61.3672 1.48399C61.9661 1.14239 62.6075 0.855222 63.2857 0.631934L63.2877 0.6318C68.2707 -1.0027 72.8022 0.841658 77.3043 2.67407C85.6069 6.05342 90.7539 6.16654 96 1.17726C92.7009 8.55376 88.5043 14.768 81.8674 18.6966C77.7385 21.1406 72.9496 22.3035 68.5603 21.8869C64.4663 21.4984 60.7161 19.742 58.1533 16.3794L58.1533 16.3795Z" fill="white"/>
<path d="M89.8603 7.09729C81.7341 20.7235 65.5452 23.7375 59.4057 14.0112C60.6462 15.6593 73.2863 25.1348 86.7819 7.44068C87.726 7.43285 88.8177 7.4444 89.8602 7.09729H89.8603Z" fill="#009035"/>
<path d="M83.729 7.12282C75.0795 18.3598 66.0842 18.6324 58.6918 12.3567C62.5636 14.815 72.0298 18.4869 80.9029 6.45435C81.8724 6.74102 82.7176 6.94783 83.729 7.12282Z" fill="#009035"/>
<path d="M77.9732 5.47004C70.1937 15.3379 62.1623 14.0733 58.6918 12.3566C62.4462 13.4503 69.0555 12.4916 75.3134 4.41479L77.9732 5.47004Z" fill="#009035"/>
<path d="M72.1433 3.24055C68.046 10.1257 62.3725 13.0331 58.6918 12.3567C62.4181 12.0853 66.3646 8.35745 67.9414 4.58291C62.9568 3.96596 59.2801 7.58825 58.5069 10.5239C58.7259 3.27502 65.8159 0.880495 72.1433 3.24055Z" fill="#009035"/>
</g>
<defs>
<clipPath id="clip0_858_104">
<rect width="96" height="21.9701" fill="white"/>
</clipPath>
</defs>
</svg>
